<svg xmlns="http://www.w3.org/2000/svg" xmlns:xlink="http://www.w3.org/1999/xlink" width="650" zoomAndPan="magnify" viewBox="0 0 487.5 262.499992" height="350" preserveAspectRatio="xMidYMid meet" version="1.0"><defs><g/><clipPath id="e53723eefa"><path d="M 0.214844 0 L 486.785156 0 L 486.785156 262 L 0.214844 262 Z M 0.214844 0 " clip-rule="nonzero"/></clipPath><clipPath id="4386ed6b76"><path d="M 192.34375 61 L 294 61 L 294 159 L 192.34375 159 Z M 192.34375 61 " clip-rule="nonzero"/></clipPath></defs><g clip-path="url(#e53723eefa)"><path fill="#ffffff" d="M 0.214844 0 L 487.285156 0 L 487.285156 262.269531 L 0.214844 262.269531 Z M 0.214844 0 " fill-opacity="1" fill-rule="nonzero"/><path fill="#e8cfc1" d="M 0.214844 0 L 487.285156 0 L 487.285156 262.269531 L 0.214844 262.269531 Z M 0.214844 0 " fill-opacity="1" fill-rule="nonzero"/></g><g clip-path="url(#4386ed6b76)"><path fill="#523e27" d="M 274.125 122.898438 L 268.261719 122.898438 L 264.964844 119.570312 L 243.429688 98.007812 L 218.570312 122.902344 L 212.734375 122.902344 L 213.585938 122.050781 L 217.921875 117.707031 L 220.238281 115.390625 L 243.429688 92.167969 L 267.390625 116.164062 L 268.9375 117.710938 L 273.273438 122.050781 Z M 238.09375 116.433594 L 242.902344 116.433594 L 242.902344 111.621094 L 238.09375 111.621094 Z M 244.554688 111.621094 L 244.554688 116.433594 L 249.363281 116.433594 L 249.363281 111.621094 Z M 238.09375 122.796875 L 242.902344 122.796875 L 242.902344 117.984375 L 238.09375 117.984375 Z M 244.554688 122.796875 L 249.363281 122.796875 L 249.363281 117.984375 L 244.554688 117.984375 Z M 251.972656 155.457031 C 256.164062 156.679688 260.464844 157.574219 264.863281 158.195312 C 265.367188 158.269531 266.003906 158.171875 266.4375 157.914062 C 268.921875 156.4375 271.46875 155.027344 273.804688 153.335938 C 280.414062 148.554688 285.460938 142.394531 289.148438 135.132812 C 291.082031 131.328125 292.488281 127.3125 293.398438 122.78125 C 289.699219 126.929688 285.832031 130.636719 281.773438 133.851562 C 275.566406 144.867188 264.769531 152.9375 251.972656 155.457031 Z M 201.8125 97.890625 C 198.566406 100.988281 195.566406 104.367188 192.761719 107.972656 C 192.527344 108.28125 192.351562 108.75 192.371094 109.132812 C 192.550781 113.039062 192.46875 116.996094 193.046875 120.847656 C 194.394531 129.878906 198.238281 137.875 204.03125 144.910156 C 205.523438 146.71875 207.242188 148.339844 208.855469 150.046875 C 207.136719 144.644531 205.902344 139.324219 205.210938 134.082031 C 201.53125 127.644531 199.421875 120.183594 199.421875 112.226562 C 199.429688 107.207031 200.265625 102.386719 201.8125 97.890625 Z M 276.523438 83.1875 C 275.496094 78.960938 274.121094 74.808594 272.476562 70.707031 C 272.257812 70.167969 271.757812 69.652344 271.257812 69.332031 C 259.988281 62.078125 247.714844 59.628906 234.519531 61.804688 C 232.285156 62.171875 230.09375 62.816406 227.886719 63.332031 C 233.429688 64.546875 238.667969 66.136719 243.566406 68.167969 C 256.703125 68.207031 268.484375 74.011719 276.523438 83.1875 Z M 276.523438 83.1875 " fill-opacity="1" fill-rule="nonzero"/></g><path fill="#ce6857" d="M 243.429688 156.289062 C 243.433594 156.289062 243.4375 156.289062 243.441406 156.289062 C 248.289062 158.269531 253.46875 159.824219 258.949219 161 C 257.769531 161.335938 256.597656 161.707031 255.40625 162 C 254.167969 162.296875 252.917969 162.566406 251.65625 162.761719 C 241.144531 164.375 231.039062 163.046875 221.421875 158.445312 C 219.289062 157.425781 217.269531 156.160156 215.234375 154.945312 C 214.832031 154.710938 214.5 154.222656 214.320312 153.773438 C 212.6875 149.640625 211.308594 145.449219 210.277344 141.199219 C 218.34375 150.445312 230.199219 156.289062 243.429688 156.289062 Z M 234.929688 68.988281 C 230.925781 67.808594 226.824219 66.925781 222.644531 66.277344 C 221.5625 66.109375 220.6875 66.304688 219.746094 66.808594 C 210.546875 71.714844 203.425781 78.710938 198.425781 87.871094 C 196.105469 92.117188 194.460938 96.605469 193.363281 101.652344 C 197.128906 97.429688 201.066406 93.660156 205.199219 90.402344 C 211.429688 79.476562 222.195312 71.484375 234.929688 68.988281 Z M 285.675781 83.449219 C 283.460938 80.152344 280.882812 77.164062 277.816406 74.566406 C 279.503906 79.792969 280.734375 84.949219 281.445312 90.035156 C 285.25 96.550781 287.429688 104.136719 287.429688 112.226562 C 287.429688 117.175781 286.613281 121.933594 285.113281 126.378906 C 288.238281 123.375 291.136719 120.117188 293.84375 116.636719 C 294.203125 116.179688 294.386719 115.488281 294.417969 114.894531 C 295.003906 103.441406 292.058594 92.957031 285.675781 83.449219 Z M 277.585938 117.726562 L 274.058594 114.195312 L 274.058594 102.195312 L 267.773438 102.195312 L 267.773438 107.898438 L 243.429688 83.523438 L 211.609375 115.386719 L 209.273438 117.726562 L 204.105469 122.898438 L 212.730469 122.898438 L 213.582031 122.046875 L 217.917969 117.703125 L 220.234375 115.386719 L 243.429688 92.164062 L 267.390625 116.160156 L 268.933594 117.707031 L 273.269531 122.050781 L 274.121094 122.902344 L 282.75 122.902344 Z M 277.585938 117.726562 " fill-opacity="1" fill-rule="nonzero"/><g fill="#523e27" fill-opacity="1"><g transform="translate(216.54574, 191.061376)"><g><path d="M 9.703125 0 L 9.703125 -9 L 6.6875 -2.953125 L 5.78125 -2.953125 L 2.8125 -9 L 2.8125 0 L 1.421875 0 L 1.421875 -10.859375 L 3.390625 -10.859375 L 6.265625 -4.953125 L 9.171875 -10.859375 L 11.078125 -10.859375 L 11.078125 0 Z M 9.703125 0 "/></g></g></g><g fill="#523e27" fill-opacity="1"><g transform="translate(229.053596, 191.061376)"><g><path d="M 9.78125 -5.4375 C 9.78125 -3.476562 9.410156 -2.039062 8.671875 -1.125 C 7.929688 -0.21875 6.828125 0.234375 5.359375 0.234375 C 3.859375 0.234375 2.742188 -0.226562 2.015625 -1.15625 C 1.296875 -2.082031 0.9375 -3.507812 0.9375 -5.4375 C 0.9375 -7.34375 1.289062 -8.757812 2 -9.6875 C 2.71875 -10.625 3.835938 -11.09375 5.359375 -11.09375 C 6.847656 -11.09375 7.957031 -10.632812 8.6875 -9.71875 C 9.414062 -8.800781 9.78125 -7.375 9.78125 -5.4375 Z M 8.25 -5.4375 C 8.25 -6.9375 8.019531 -8.039062 7.5625 -8.75 C 7.113281 -9.457031 6.378906 -9.8125 5.359375 -9.8125 C 4.328125 -9.8125 3.582031 -9.457031 3.125 -8.75 C 2.675781 -8.039062 2.453125 -6.9375 2.453125 -5.4375 C 2.453125 -3.914062 2.679688 -2.804688 3.140625 -2.109375 C 3.597656 -1.410156 4.335938 -1.0625 5.359375 -1.0625 C 6.367188 -1.0625 7.101562 -1.40625 7.5625 -2.09375 C 8.019531 -2.789062 8.25 -3.90625 8.25 -5.4375 Z M 8.25 -5.4375 "/></g></g></g><g fill="#523e27" fill-opacity="1"><g transform="translate(239.763399, 191.061376)"><g><path d="M 9.59375 -4.53125 C 9.59375 -3.34375 9.457031 -2.40625 9.1875 -1.71875 C 8.925781 -1.039062 8.507812 -0.539062 7.9375 -0.21875 C 7.363281 0.09375 6.5625 0.25 5.53125 0.25 C 4.507812 0.25 3.703125 0.0859375 3.109375 -0.234375 C 2.515625 -0.554688 2.082031 -1.0625 1.8125 -1.75 C 1.550781 -2.4375 1.421875 -3.363281 1.421875 -4.53125 L 1.421875 -10.859375 L 2.875 -10.859375 L 2.875 -4.6875 C 2.875 -3.738281 2.960938 -3.003906 3.140625 -2.484375 C 3.316406 -1.972656 3.585938 -1.601562 3.953125 -1.375 C 4.328125 -1.15625 4.847656 -1.046875 5.515625 -1.046875 C 6.179688 -1.046875 6.703125 -1.15625 7.078125 -1.375 C 7.453125 -1.601562 7.722656 -1.957031 7.890625 -2.4375 C 8.066406 -2.925781 8.15625 -3.664062 8.15625 -4.65625 L 8.15625 -10.859375 L 9.59375 -10.859375 Z M 9.59375 -4.53125 "/></g></g></g><g fill="#523e27" fill-opacity="1"><g transform="translate(250.795123, 191.061376)"><g><path d="M 7.546875 0 L 4.765625 -4.4375 L 2.875 -4.4375 L 2.875 0 L 1.421875 0 L 1.421875 -10.859375 L 4.796875 -10.859375 C 6.148438 -10.859375 7.117188 -10.609375 7.703125 -10.109375 C 8.296875 -9.617188 8.59375 -8.851562 8.59375 -7.8125 C 8.59375 -6.925781 8.410156 -6.222656 8.046875 -5.703125 C 7.691406 -5.179688 7.109375 -4.832031 6.296875 -4.65625 L 9.25 0 Z M 7.09375 -7.703125 C 7.09375 -8.421875 6.910156 -8.910156 6.546875 -9.171875 C 6.179688 -9.441406 5.59375 -9.578125 4.78125 -9.578125 L 2.875 -9.578125 L 2.875 -5.71875 L 4.6875 -5.71875 C 5.300781 -5.71875 5.78125 -5.78125 6.125 -5.90625 C 6.476562 -6.039062 6.726562 -6.25 6.875 -6.53125 C 7.019531 -6.8125 7.09375 -7.203125 7.09375 -7.703125 Z M 7.09375 -7.703125 "/></g></g></g><g fill="#523e27" fill-opacity="1"><g transform="translate(260.507752, 191.061376)"><g><path d="M 0.40625 0 L 4.109375 -10.859375 L 6 -10.859375 L 9.71875 0 L 8.1875 0 L 7.234375 -2.828125 L 2.8125 -2.828125 L 1.890625 0 Z M 3.25 -4.140625 L 6.78125 -4.140625 L 5.015625 -9.4375 Z M 3.25 -4.140625 "/></g></g></g><g fill="#ce6857" fill-opacity="1"><g transform="translate(222.473826, 208.556728)"><g><path d="M 2.75 -4.171875 C 2.34375 -4.171875 2.03125 -4.019531 1.8125 -3.71875 C 1.601562 -3.414062 1.5 -3.003906 1.5 -2.484375 C 1.5 -1.953125 1.597656 -1.539062 1.796875 -1.25 C 1.992188 -0.957031 2.3125 -0.8125 2.75 -0.8125 C 2.945312 -0.8125 3.144531 -0.832031 3.34375 -0.875 C 3.550781 -0.925781 3.773438 -0.992188 4.015625 -1.078125 L 4.015625 -0.1875 C 3.796875 -0.101562 3.578125 -0.0390625 3.359375 0 C 3.148438 0.0390625 2.910156 0.0625 2.640625 0.0625 C 2.128906 0.0625 1.707031 -0.0390625 1.375 -0.25 C 1.039062 -0.457031 0.796875 -0.753906 0.640625 -1.140625 C 0.484375 -1.523438 0.40625 -1.972656 0.40625 -2.484375 C 0.40625 -2.984375 0.492188 -3.425781 0.671875 -3.8125 C 0.859375 -4.207031 1.125 -4.515625 1.46875 -4.734375 C 1.8125 -4.953125 2.238281 -5.0625 2.75 -5.0625 C 2.988281 -5.0625 3.234375 -5.03125 3.484375 -4.96875 C 3.734375 -4.90625 3.972656 -4.816406 4.203125 -4.703125 L 3.859375 -3.84375 C 3.671875 -3.9375 3.484375 -4.015625 3.296875 -4.078125 C 3.109375 -4.140625 2.925781 -4.171875 2.75 -4.171875 Z M 2.75 -4.171875 "/></g></g></g><g fill="#ce6857" fill-opacity="1"><g transform="translate(226.92716, 208.556728)"><g><path d="M 5.15625 -2.5 C 5.15625 -1.976562 5.066406 -1.523438 4.890625 -1.140625 C 4.722656 -0.765625 4.460938 -0.46875 4.109375 -0.25 C 3.765625 -0.0390625 3.320312 0.0625 2.78125 0.0625 C 2.238281 0.0625 1.789062 -0.0390625 1.4375 -0.25 C 1.09375 -0.46875 0.832031 -0.769531 0.65625 -1.15625 C 0.488281 -1.539062 0.40625 -1.988281 0.40625 -2.5 C 0.40625 -3.019531 0.488281 -3.46875 0.65625 -3.84375 C 0.832031 -4.226562 1.09375 -4.523438 1.4375 -4.734375 C 1.789062 -4.953125 2.238281 -5.0625 2.78125 -5.0625 C 3.320312 -5.0625 3.765625 -4.953125 4.109375 -4.734375 C 4.460938 -4.523438 4.722656 -4.226562 4.890625 -3.84375 C 5.066406 -3.46875 5.15625 -3.019531 5.15625 -2.5 Z M 1.515625 -2.5 C 1.515625 -1.976562 1.613281 -1.566406 1.8125 -1.265625 C 2.007812 -0.960938 2.332031 -0.8125 2.78125 -0.8125 C 3.226562 -0.8125 3.550781 -0.960938 3.75 -1.265625 C 3.945312 -1.566406 4.046875 -1.976562 4.046875 -2.5 C 4.046875 -3.019531 3.945312 -3.429688 3.75 -3.734375 C 3.550781 -4.035156 3.226562 -4.1875 2.78125 -4.1875 C 2.332031 -4.1875 2.007812 -4.035156 1.8125 -3.734375 C 1.613281 -3.429688 1.515625 -3.019531 1.515625 -2.5 Z M 1.515625 -2.5 "/></g></g></g><g fill="#ce6857" fill-opacity="1"><g transform="translate(232.492074, 208.556728)"><g><path d="M 2.078125 -4.984375 C 2.753906 -4.984375 3.253906 -4.859375 3.578125 -4.609375 C 3.910156 -4.367188 4.078125 -4 4.078125 -3.5 C 4.078125 -3.269531 4.03125 -3.066406 3.9375 -2.890625 C 3.851562 -2.722656 3.738281 -2.578125 3.59375 -2.453125 C 3.457031 -2.335938 3.304688 -2.242188 3.140625 -2.171875 L 4.609375 0 L 3.4375 0 L 2.25 -1.90625 L 1.6875 -1.90625 L 1.6875 0 L 0.625 0 L 0.625 -4.984375 Z M 2 -4.125 L 1.6875 -4.125 L 1.6875 -2.765625 L 2.03125 -2.765625 C 2.375 -2.765625 2.617188 -2.820312 2.765625 -2.9375 C 2.921875 -3.0625 3 -3.238281 3 -3.46875 C 3 -3.707031 2.914062 -3.875 2.75 -3.96875 C 2.59375 -4.070312 2.34375 -4.125 2 -4.125 Z M 2 -4.125 "/></g></g></g><g fill="#ce6857" fill-opacity="1"><g transform="translate(237.106196, 208.556728)"><g><path d="M 2.078125 -4.984375 C 2.753906 -4.984375 3.253906 -4.859375 3.578125 -4.609375 C 3.910156 -4.367188 4.078125 -4 4.078125 -3.5 C 4.078125 -3.269531 4.03125 -3.066406 3.9375 -2.890625 C 3.851562 -2.722656 3.738281 -2.578125 3.59375 -2.453125 C 3.457031 -2.335938 3.304688 -2.242188 3.140625 -2.171875 L 4.609375 0 L 3.4375 0 L 2.25 -1.90625 L 1.6875 -1.90625 L 1.6875 0 L 0.625 0 L 0.625 -4.984375 Z M 2 -4.125 L 1.6875 -4.125 L 1.6875 -2.765625 L 2.03125 -2.765625 C 2.375 -2.765625 2.617188 -2.820312 2.765625 -2.9375 C 2.921875 -3.0625 3 -3.238281 3 -3.46875 C 3 -3.707031 2.914062 -3.875 2.75 -3.96875 C 2.59375 -4.070312 2.34375 -4.125 2 -4.125 Z M 2 -4.125 "/></g></g></g><g fill="#ce6857" fill-opacity="1"><g transform="translate(241.720318, 208.556728)"><g><path d="M 3.5 0 L 0.625 0 L 0.625 -4.984375 L 3.5 -4.984375 L 3.5 -4.125 L 1.6875 -4.125 L 1.6875 -3.03125 L 3.375 -3.03125 L 3.375 -2.15625 L 1.6875 -2.15625 L 1.6875 -0.875 L 3.5 -0.875 Z M 3.5 0 "/></g></g></g><g fill="#ce6857" fill-opacity="1"><g transform="translate(245.635338, 208.556728)"><g><path d="M 2.546875 0 L 1.5 0 L 1.5 -4.109375 L 0.140625 -4.109375 L 0.140625 -4.984375 L 3.90625 -4.984375 L 3.90625 -4.109375 L 2.546875 -4.109375 Z M 2.546875 0 "/></g></g></g><g fill="#ce6857" fill-opacity="1"><g transform="translate(249.683181, 208.556728)"><g><path d="M 5.15625 -2.5 C 5.15625 -1.976562 5.066406 -1.523438 4.890625 -1.140625 C 4.722656 -0.765625 4.460938 -0.46875 4.109375 -0.25 C 3.765625 -0.0390625 3.320312 0.0625 2.78125 0.0625 C 2.238281 0.0625 1.789062 -0.0390625 1.4375 -0.25 C 1.09375 -0.46875 0.832031 -0.769531 0.65625 -1.15625 C 0.488281 -1.539062 0.40625 -1.988281 0.40625 -2.5 C 0.40625 -3.019531 0.488281 -3.46875 0.65625 -3.84375 C 0.832031 -4.226562 1.09375 -4.523438 1.4375 -4.734375 C 1.789062 -4.953125 2.238281 -5.0625 2.78125 -5.0625 C 3.320312 -5.0625 3.765625 -4.953125 4.109375 -4.734375 C 4.460938 -4.523438 4.722656 -4.226562 4.890625 -3.84375 C 5.066406 -3.46875 5.15625 -3.019531 5.15625 -2.5 Z M 1.515625 -2.5 C 1.515625 -1.976562 1.613281 -1.566406 1.8125 -1.265625 C 2.007812 -0.960938 2.332031 -0.8125 2.78125 -0.8125 C 3.226562 -0.8125 3.550781 -0.960938 3.75 -1.265625 C 3.945312 -1.566406 4.046875 -1.976562 4.046875 -2.5 C 4.046875 -3.019531 3.945312 -3.429688 3.75 -3.734375 C 3.550781 -4.035156 3.226562 -4.1875 2.78125 -4.1875 C 2.332031 -4.1875 2.007812 -4.035156 1.8125 -3.734375 C 1.613281 -3.429688 1.515625 -3.019531 1.515625 -2.5 Z M 1.515625 -2.5 "/></g></g></g><g fill="#ce6857" fill-opacity="1"><g transform="translate(255.248095, 208.556728)"><g><path d="M 2.078125 -4.984375 C 2.753906 -4.984375 3.253906 -4.859375 3.578125 -4.609375 C 3.910156 -4.367188 4.078125 -4 4.078125 -3.5 C 4.078125 -3.269531 4.03125 -3.066406 3.9375 -2.890625 C 3.851562 -2.722656 3.738281 -2.578125 3.59375 -2.453125 C 3.457031 -2.335938 3.304688 -2.242188 3.140625 -2.171875 L 4.609375 0 L 3.4375 0 L 2.25 -1.90625 L 1.6875 -1.90625 L 1.6875 0 L 0.625 0 L 0.625 -4.984375 Z M 2 -4.125 L 1.6875 -4.125 L 1.6875 -2.765625 L 2.03125 -2.765625 C 2.375 -2.765625 2.617188 -2.820312 2.765625 -2.9375 C 2.921875 -3.0625 3 -3.238281 3 -3.46875 C 3 -3.707031 2.914062 -3.875 2.75 -3.96875 C 2.59375 -4.070312 2.34375 -4.125 2 -4.125 Z M 2 -4.125 "/></g></g></g><g fill="#ce6857" fill-opacity="1"><g transform="translate(259.862217, 208.556728)"><g><path d="M 3.6875 0 L 3.3125 -1.1875 L 1.5 -1.1875 L 1.140625 0 L 0 0 L 1.765625 -5.015625 L 3.046875 -5.015625 L 4.8125 0 Z M 3.0625 -2.078125 L 2.703125 -3.234375 C 2.679688 -3.316406 2.648438 -3.414062 2.609375 -3.53125 C 2.578125 -3.65625 2.539062 -3.78125 2.5 -3.90625 C 2.457031 -4.03125 2.425781 -4.140625 2.40625 -4.234375 C 2.382812 -4.140625 2.351562 -4.023438 2.3125 -3.890625 C 2.269531 -3.753906 2.234375 -3.625 2.203125 -3.5 C 2.171875 -3.375 2.144531 -3.285156 2.125 -3.234375 L 1.765625 -2.078125 Z M 3.0625 -2.078125 "/></g></g></g></svg>