<svg xmlns="http://www.w3.org/2000/svg" xmlns:xlink="http://www.w3.org/1999/xlink" width="650" zoomAndPan="magnify" viewBox="0 0 487.5 262.499992" height="350" preserveAspectRatio="xMidYMid meet" version="1.0"><defs><g/><clipPath id="6bebfb8b90"><path d="M 483.539062 79.597656 L 486.785156 79.597656 L 486.785156 211.46875 L 483.539062 211.46875 Z M 483.539062 79.597656 " clip-rule="nonzero"/></clipPath><clipPath id="8cd97e8395"><path d="M 484 83 L 486.785156 83 L 486.785156 94 L 484 94 Z M 484 83 " clip-rule="nonzero"/></clipPath><clipPath id="d5b6c7d498"><path d="M 484 102 L 486.785156 102 L 486.785156 109 L 484 109 Z M 484 102 " clip-rule="nonzero"/></clipPath><clipPath id="37aeb81962"><path d="M 484 118 L 486.785156 118 L 486.785156 125 L 484 125 Z M 484 118 " clip-rule="nonzero"/></clipPath><clipPath id="5ddafc23e5"><path d="M 484 132 L 486.785156 132 L 486.785156 141 L 484 141 Z M 484 132 " clip-rule="nonzero"/></clipPath><clipPath id="8dc9170b28"><path d="M 484 150 L 486.785156 150 L 486.785156 157 L 484 157 Z M 484 150 " clip-rule="nonzero"/></clipPath><clipPath id="634c985a71"><path d="M 484 165 L 486.785156 165 L 486.785156 175 L 484 175 Z M 484 165 " clip-rule="nonzero"/></clipPath><clipPath id="3e6e259fe9"><path d="M 484 181 L 486.785156 181 L 486.785156 188 L 484 188 Z M 484 181 " clip-rule="nonzero"/></clipPath><clipPath id="96ca5845d1"><path d="M 484 197 L 486.785156 197 L 486.785156 204 L 484 204 Z M 484 197 " clip-rule="nonzero"/></clipPath></defs><path fill="#98523c" d="M 251.230469 169.414062 L 249.925781 168.453125 L 297.164062 104.472656 L 297.164062 153.535156 L 295.542969 153.535156 L 295.542969 109.398438 Z M 251.230469 169.414062 " fill-opacity="1" fill-rule="nonzero"/><path fill="#98523c" d="M 242.476562 153.535156 L 240.855469 153.535156 L 240.855469 94.285156 L 268.40625 132.699219 L 301.773438 86.601562 L 303.085938 87.554688 L 268.398438 135.46875 L 242.476562 99.324219 Z M 242.476562 153.535156 " fill-opacity="1" fill-rule="nonzero"/><path fill="#98523c" d="M 253.175781 153.054688 L 267.753906 133.605469 L 269.050781 134.574219 L 254.472656 154.027344 Z M 253.175781 153.054688 " fill-opacity="1" fill-rule="nonzero"/><path fill="#98523c" d="M 318.03125 134.273438 L 323.820312 104.683594 L 333.261719 126.074219 L 343.046875 104.683594 L 348.25 134.273438 L 343.992188 134.273438 L 341.335938 117.667969 L 333.195312 135.546875 L 325.28125 117.652344 L 322.335938 134.28125 Z M 318.03125 134.273438 " fill-opacity="1" fill-rule="nonzero"/><path fill="#98523c" d="M 352.703125 120.386719 C 352.703125 116.511719 354.121094 113.183594 356.960938 110.40625 C 358.304688 109.042969 359.863281 108 361.632812 107.277344 C 363.402344 106.550781 365.242188 106.203125 367.15625 106.234375 C 371.082031 106.234375 374.445312 107.636719 377.242188 110.441406 C 378.613281 111.761719 379.667969 113.300781 380.402344 115.054688 C 381.136719 116.8125 381.488281 118.644531 381.460938 120.550781 C 381.496094 122.449219 381.140625 124.277344 380.402344 126.03125 C 379.664062 127.785156 378.605469 129.3125 377.222656 130.617188 C 374.382812 133.386719 370.957031 134.773438 366.941406 134.773438 C 363.390625 134.773438 360.199219 133.542969 357.371094 131.082031 C 354.261719 128.359375 352.703125 124.796875 352.703125 120.386719 Z M 356.890625 120.441406 C 356.890625 123.476562 357.914062 125.976562 359.957031 127.941406 C 362 129.90625 364.347656 130.886719 366.996094 130.886719 C 368.367188 130.914062 369.6875 130.671875 370.957031 130.148438 C 372.230469 129.628906 373.34375 128.875 374.300781 127.894531 C 375.277344 126.917969 376.023438 125.789062 376.539062 124.511719 C 377.054688 123.230469 377.300781 121.902344 377.273438 120.523438 C 377.273438 117.585938 376.292969 115.128906 374.332031 113.144531 C 372.367188 111.160156 369.957031 110.160156 367.101562 110.148438 C 365.738281 110.121094 364.425781 110.367188 363.164062 110.890625 C 361.902344 111.410156 360.796875 112.160156 359.847656 113.144531 C 357.878906 115.109375 356.890625 117.539062 356.890625 120.441406 Z M 356.890625 120.441406 " fill-opacity="1" fill-rule="nonzero"/><path fill="#98523c" d="M 390.835938 106.75 L 390.835938 123.328125 C 390.835938 125.695312 391.222656 127.425781 391.996094 128.515625 C 393.144531 130.097656 394.769531 130.886719 396.859375 130.886719 C 398.953125 130.886719 400.578125 130.097656 401.742188 128.515625 C 402.511719 127.457031 402.898438 125.730469 402.898438 123.328125 L 402.898438 106.75 L 407.050781 106.75 L 407.050781 124.46875 C 407.050781 127.367188 406.148438 129.753906 404.34375 131.632812 C 403.855469 132.132812 403.324219 132.574219 402.746094 132.964844 C 402.171875 133.355469 401.5625 133.6875 400.921875 133.957031 C 400.28125 134.226562 399.617188 134.429688 398.933594 134.566406 C 398.253906 134.703125 397.5625 134.773438 396.867188 134.773438 C 396.171875 134.773438 395.484375 134.703125 394.800781 134.566406 C 394.117188 134.429688 393.457031 134.226562 392.8125 133.957031 C 392.171875 133.6875 391.5625 133.355469 390.988281 132.964844 C 390.410156 132.574219 389.878906 132.132812 389.394531 131.632812 C 387.589844 129.757812 386.683594 127.371094 386.683594 124.46875 L 386.683594 106.75 Z M 390.835938 106.75 " fill-opacity="1" fill-rule="nonzero"/><path fill="#98523c" d="M 422.964844 122.542969 L 431.480469 134.273438 L 426.394531 134.273438 L 418.53125 123.007812 L 417.785156 123.007812 L 417.785156 134.273438 L 413.632812 134.273438 L 413.632812 106.75 L 418.496094 106.75 C 422.132812 106.75 424.757812 107.433594 426.375 108.800781 C 428.160156 110.324219 429.050781 112.332031 429.050781 114.824219 C 429.097656 116.703125 428.539062 118.378906 427.378906 119.851562 C 426.828125 120.550781 426.171875 121.128906 425.410156 121.59375 C 424.652344 122.054688 423.835938 122.375 422.964844 122.542969 Z M 417.796875 119.390625 L 419.113281 119.390625 C 423.039062 119.390625 425.003906 117.886719 425.003906 114.878906 C 425.003906 112.066406 423.089844 110.65625 419.265625 110.65625 L 417.789062 110.65625 Z M 417.796875 119.390625 " fill-opacity="1" fill-rule="nonzero"/><path fill="#98523c" d="M 454.695312 127.585938 L 442.914062 127.585938 L 439.847656 134.28125 L 435.378906 134.28125 L 448.992188 105.035156 L 462.109375 134.28125 L 457.558594 134.28125 Z M 453.003906 123.683594 L 448.921875 114.328125 L 444.640625 123.683594 Z M 453.003906 123.683594 " fill-opacity="1" fill-rule="nonzero"/><path fill="#98523c" d="M 351.761719 148.164062 L 351.761719 148.140625 C 351.753906 147.816406 351.800781 147.496094 351.894531 147.183594 C 351.988281 146.871094 352.125 146.582031 352.308594 146.3125 C 352.492188 146.046875 352.710938 145.8125 352.96875 145.609375 C 353.222656 145.410156 353.503906 145.253906 353.808594 145.140625 C 354.113281 145.027344 354.429688 144.960938 354.753906 144.945312 C 355.078125 144.929688 355.398438 144.960938 355.710938 145.046875 C 356.027344 145.128906 356.320312 145.257812 356.597656 145.429688 C 356.871094 145.605469 357.113281 145.816406 357.320312 146.066406 L 356.902344 146.5 C 356.367188 145.960938 355.777344 145.492188 354.867188 145.492188 C 353.472656 145.492188 352.398438 146.652344 352.398438 148.117188 L 352.398438 148.140625 C 352.386719 148.480469 352.445312 148.8125 352.566406 149.132812 C 352.6875 149.453125 352.867188 149.738281 353.101562 149.984375 C 353.339844 150.234375 353.613281 150.425781 353.925781 150.566406 C 354.238281 150.703125 354.566406 150.777344 354.910156 150.785156 C 355.75 150.761719 356.433594 150.421875 356.960938 149.765625 L 357.367188 150.128906 C 356.742188 150.835938 356 151.335938 354.875 151.335938 C 354.457031 151.332031 354.058594 151.25 353.675781 151.085938 C 353.289062 150.921875 352.953125 150.691406 352.660156 150.394531 C 352.371094 150.097656 352.144531 149.753906 351.988281 149.367188 C 351.832031 148.984375 351.757812 148.582031 351.761719 148.164062 Z M 351.761719 148.164062 " fill-opacity="1" fill-rule="nonzero"/><path fill="#98523c" d="M 360.820312 148.164062 L 360.820312 148.140625 C 360.808594 147.714844 360.875 147.304688 361.027344 146.910156 C 361.179688 146.511719 361.402344 146.160156 361.699219 145.855469 C 361.992188 145.550781 362.335938 145.3125 362.726562 145.148438 C 363.117188 144.980469 363.523438 144.894531 363.949219 144.894531 C 364.371094 144.894531 364.78125 144.972656 365.171875 145.136719 C 365.5625 145.300781 365.90625 145.535156 366.203125 145.839844 C 366.5 146.140625 366.726562 146.492188 366.882812 146.886719 C 367.039062 147.28125 367.109375 147.691406 367.097656 148.117188 L 367.097656 148.140625 C 367.105469 148.5625 367.03125 148.972656 366.875 149.363281 C 366.71875 149.757812 366.492188 150.105469 366.195312 150.40625 C 365.898438 150.710938 365.558594 150.941406 365.167969 151.105469 C 364.777344 151.269531 364.371094 151.351562 363.949219 151.355469 C 363.527344 151.355469 363.125 151.273438 362.734375 151.109375 C 362.347656 150.949219 362.007812 150.714844 361.714844 150.417969 C 361.417969 150.117188 361.195312 149.769531 361.039062 149.378906 C 360.886719 148.988281 360.8125 148.585938 360.820312 148.164062 Z M 366.464844 148.164062 L 366.464844 148.140625 C 366.476562 147.796875 366.421875 147.464844 366.296875 147.144531 C 366.175781 146.820312 365.996094 146.535156 365.761719 146.289062 C 365.523438 146.039062 365.25 145.84375 364.933594 145.707031 C 364.621094 145.570312 364.292969 145.496094 363.949219 145.492188 C 362.496094 145.492188 361.457031 146.675781 361.457031 148.117188 L 361.457031 148.140625 C 361.445312 148.484375 361.5 148.816406 361.621094 149.136719 C 361.742188 149.457031 361.921875 149.742188 362.160156 149.992188 C 362.394531 150.242188 362.671875 150.433594 362.984375 150.574219 C 363.300781 150.710938 363.628906 150.78125 363.972656 150.789062 C 365.421875 150.785156 366.464844 149.601562 366.464844 148.164062 Z M 366.464844 148.164062 " fill-opacity="1" fill-rule="nonzero"/><path fill="#98523c" d="M 371.300781 145.082031 L 371.890625 145.082031 L 371.890625 146.820312 C 372.371094 145.730469 373.386719 144.945312 374.597656 144.988281 L 374.597656 145.632812 L 374.539062 145.632812 C 373.125 145.632812 371.890625 146.703125 371.890625 148.691406 L 371.890625 151.195312 L 371.300781 151.195312 Z M 371.300781 145.082031 " fill-opacity="1" fill-rule="nonzero"/><path fill="#98523c" d="M 378.492188 145.082031 L 379.078125 145.082031 L 379.078125 146.820312 C 379.558594 145.730469 380.578125 144.945312 381.785156 144.988281 L 381.785156 145.632812 L 381.726562 145.632812 C 380.3125 145.632812 379.078125 146.703125 379.078125 148.691406 L 379.078125 151.195312 L 378.492188 151.195312 Z M 378.492188 145.082031 " fill-opacity="1" fill-rule="nonzero"/><path fill="#98523c" d="M 384.960938 148.152344 L 384.960938 148.125 C 384.960938 146.351562 386.207031 144.9375 387.863281 144.9375 C 389.574219 144.9375 390.664062 146.328125 390.664062 148.140625 C 390.671875 148.21875 390.671875 148.296875 390.664062 148.378906 L 385.597656 148.378906 C 385.703125 149.902344 386.792969 150.789062 388.007812 150.789062 C 388.851562 150.792969 389.550781 150.472656 390.101562 149.828125 L 390.507812 150.1875 C 390.195312 150.5625 389.820312 150.851562 389.375 151.050781 C 388.933594 151.253906 388.46875 151.351562 387.980469 151.339844 C 386.351562 151.339844 384.960938 150.058594 384.960938 148.152344 Z M 390.03125 147.851562 C 389.945312 146.617188 389.226562 145.476562 387.835938 145.476562 C 386.628906 145.476562 385.695312 146.5 385.585938 147.851562 Z M 390.03125 147.851562 " fill-opacity="1" fill-rule="nonzero"/><path fill="#98523c" d="M 395.097656 149.625 L 395.097656 145.621094 L 394.210938 145.621094 L 394.210938 145.085938 L 395.097656 145.085938 L 395.097656 143.132812 L 395.683594 143.132812 L 395.683594 145.085938 L 397.828125 145.085938 L 397.828125 145.621094 L 395.683594 145.621094 L 395.683594 149.566406 C 395.683594 150.441406 396.199219 150.75 396.90625 150.75 C 397.222656 150.75 397.523438 150.679688 397.804688 150.535156 L 397.804688 151.089844 C 397.488281 151.234375 397.160156 151.308594 396.8125 151.304688 C 395.871094 151.304688 395.097656 150.785156 395.097656 149.625 Z M 395.097656 149.625 " fill-opacity="1" fill-rule="nonzero"/><path fill="#98523c" d="M 401.363281 148.164062 L 401.363281 148.140625 C 401.359375 147.71875 401.433594 147.3125 401.589844 146.917969 C 401.75 146.527344 401.976562 146.183594 402.273438 145.882812 C 402.566406 145.582031 402.910156 145.347656 403.300781 145.183594 C 403.6875 145.023438 404.09375 144.941406 404.515625 144.9375 C 404.9375 144.9375 405.339844 145.015625 405.726562 145.179688 C 406.113281 145.339844 406.453125 145.566406 406.75 145.867188 C 407.042969 146.164062 407.269531 146.507812 407.425781 146.894531 C 407.582031 147.285156 407.65625 147.6875 407.652344 148.109375 L 407.652344 148.132812 C 407.660156 148.554688 407.585938 148.964844 407.429688 149.355469 C 407.273438 149.75 407.046875 150.097656 406.75 150.398438 C 406.453125 150.703125 406.109375 150.933594 405.71875 151.097656 C 405.332031 151.261719 404.921875 151.34375 404.5 151.34375 C 404.082031 151.347656 403.675781 151.265625 403.289062 151.105469 C 402.898438 150.945312 402.558594 150.714844 402.261719 150.414062 C 401.96875 150.113281 401.742188 149.769531 401.585938 149.378906 C 401.429688 148.988281 401.355469 148.585938 401.363281 148.164062 Z M 407.007812 148.164062 L 407.007812 148.140625 C 407.019531 147.796875 406.964844 147.464844 406.84375 147.144531 C 406.71875 146.824219 406.542969 146.539062 406.304688 146.289062 C 406.070312 146.039062 405.792969 145.84375 405.480469 145.707031 C 405.164062 145.570312 404.835938 145.496094 404.492188 145.492188 C 403.042969 145.492188 402 146.675781 402 148.117188 L 402 148.140625 C 401.988281 148.484375 402.042969 148.816406 402.164062 149.136719 C 402.289062 149.457031 402.46875 149.742188 402.703125 149.992188 C 402.941406 150.242188 403.214844 150.433594 403.53125 150.574219 C 403.84375 150.710938 404.171875 150.78125 404.515625 150.789062 C 405.964844 150.785156 407.007812 149.601562 407.007812 148.164062 Z M 407.007812 148.164062 " fill-opacity="1" fill-rule="nonzero"/><path fill="#98523c" d="M 411.847656 145.082031 L 412.4375 145.082031 L 412.4375 146.820312 C 412.914062 145.730469 413.933594 144.945312 415.144531 144.988281 L 415.144531 145.632812 L 415.085938 145.632812 C 413.667969 145.632812 412.4375 146.703125 412.4375 148.691406 L 412.4375 151.195312 L 411.847656 151.195312 Z M 411.847656 145.082031 " fill-opacity="1" fill-rule="nonzero"/><path fill="#98523c" d="M 418.234375 149.421875 L 418.234375 149.398438 C 418.234375 148.125 419.324219 147.410156 420.910156 147.410156 C 421.597656 147.402344 422.273438 147.492188 422.9375 147.675781 L 422.9375 147.410156 C 422.9375 146.175781 422.179688 145.535156 420.921875 145.535156 C 420.242188 145.539062 419.605469 145.703125 419.007812 146.023438 L 418.789062 145.511719 C 419.46875 145.160156 420.191406 144.984375 420.957031 144.972656 C 421.785156 144.972656 422.445312 145.203125 422.886719 145.644531 C 423.34375 146.128906 423.550781 146.707031 423.511719 147.371094 L 423.511719 151.183594 L 422.9375 151.183594 L 422.9375 150.164062 C 422.667969 150.539062 422.324219 150.832031 421.914062 151.035156 C 421.5 151.242188 421.0625 151.339844 420.597656 151.328125 C 419.457031 151.339844 418.234375 150.691406 418.234375 149.421875 Z M 422.941406 148.90625 L 422.941406 148.210938 C 422.261719 148.03125 421.570312 147.941406 420.871094 147.945312 C 419.578125 147.945312 418.855469 148.519531 418.855469 149.367188 L 418.855469 149.394531 C 418.855469 150.28125 419.695312 150.796875 420.632812 150.796875 C 421.875 150.785156 422.941406 150.019531 422.941406 148.910156 Z M 422.941406 148.90625 " fill-opacity="1" fill-rule="nonzero"/><path fill="#98523c" d="M 28.109375 127.617188 C 28.71875 122.269531 31.007812 118.308594 36.546875 118.308594 C 42.0625 118.308594 44.554688 122.25 45.144531 127.617188 Z M 55.207031 134.425781 C 55.207031 134.425781 58.601562 134.425781 58.601562 131.023438 C 58.601562 118.550781 50.738281 110.019531 35.75 110.019531 C 20.765625 110.019531 12.902344 118.308594 12.902344 130.890625 C 12.902344 143.476562 20.765625 151.765625 35.75 151.765625 C 45.738281 151.765625 52.546875 148.082031 56 141.921875 C 56 141.921875 56.183594 141.625 56.183594 141.199219 C 56.183594 140.382812 55.519531 139.699219 54.6875 139.699219 L 43.539062 139.699219 C 42.210938 142.03125 39.886719 143.476562 36.546875 143.476562 C 31.101562 143.476562 28.792969 139.644531 28.148438 134.425781 Z M 55.207031 134.425781 " fill-opacity="1" fill-rule="nonzero"/><path fill="#98523c" d="M 118.273438 127.617188 C 118.882812 122.269531 121.171875 118.308594 126.710938 118.308594 C 132.230469 118.308594 134.703125 122.25 135.3125 127.617188 Z M 145.351562 134.425781 C 145.351562 134.425781 148.75 134.425781 148.75 131.023438 C 148.75 118.550781 140.886719 110.019531 125.898438 110.019531 C 110.910156 110.019531 103.046875 118.308594 103.046875 130.890625 C 103.046875 143.476562 110.910156 151.765625 125.898438 151.765625 C 135.882812 151.765625 142.695312 148.082031 146.144531 141.921875 C 146.144531 141.921875 146.332031 141.625 146.332031 141.199219 C 146.332031 140.382812 145.664062 139.699219 144.835938 139.699219 L 133.707031 139.699219 C 132.375 142.03125 130.050781 143.476562 126.710938 143.476562 C 121.265625 143.476562 118.957031 139.644531 118.3125 134.425781 Z M 145.351562 134.425781 " fill-opacity="1" fill-rule="nonzero"/><path fill="#98523c" d="M 60.117188 150.171875 L 60.117188 113.3125 C 60.117188 109.910156 63.511719 109.910156 63.511719 109.910156 L 75.160156 109.910156 L 75.160156 151.671875 L 61.59375 151.671875 C 61.609375 151.671875 60.117188 151.671875 60.117188 150.171875 " fill-opacity="1" fill-rule="nonzero"/><path fill="#98523c" d="M 77.410156 151.78125 L 110.246094 110.019531 L 99.394531 110.019531 C 99.394531 110.019531 95.996094 110.019531 93.320312 113.425781 L 77.429688 133.648438 L 77.429688 151.78125 Z M 77.410156 151.78125 " fill-opacity="1" fill-rule="nonzero"/><path fill="#98523c" d="M 166.042969 150.285156 C 166.042969 151.78125 164.546875 151.78125 164.546875 151.78125 L 150.980469 151.78125 L 150.980469 110.019531 L 162.628906 110.019531 C 162.628906 110.019531 166.023438 110.019531 166.023438 113.425781 L 166.023438 115.292969 C 169.21875 111.832031 173.941406 110.019531 179.238281 110.019531 C 188.875 110.019531 196.664062 117.292969 196.664062 126.265625 L 196.664062 150.285156 C 196.664062 151.78125 195.167969 151.78125 195.167969 151.78125 L 181.601562 151.78125 L 181.601562 129.597656 C 181.601562 125.285156 178.113281 121.789062 173.8125 121.789062 C 169.511719 121.789062 166.023438 125.285156 166.023438 129.597656 L 166.023438 150.285156 Z M 166.042969 150.285156 " fill-opacity="1" fill-rule="nonzero"/><g fill="#98523c" fill-opacity="1"><g transform="translate(38.458907, 99.641654)"><g><path d="M 2 0 L 1.296875 0 L 1.296875 -7.71875 L 2 -7.71875 Z M 1.1875 -9.859375 C 1.1875 -10.304688 1.335938 -10.53125 1.640625 -10.53125 C 1.785156 -10.53125 1.898438 -10.472656 1.984375 -10.359375 C 2.066406 -10.242188 2.109375 -10.078125 2.109375 -9.859375 C 2.109375 -9.640625 2.066406 -9.46875 1.984375 -9.34375 C 1.898438 -9.226562 1.785156 -9.171875 1.640625 -9.171875 C 1.335938 -9.171875 1.1875 -9.398438 1.1875 -9.859375 Z M 1.1875 -9.859375 "/></g></g></g><g fill="#98523c" fill-opacity="1"><g transform="translate(44.63497, 99.641654)"><g><path d="M 6.671875 0 L 6.671875 -5 C 6.671875 -5.78125 6.503906 -6.34375 6.171875 -6.6875 C 5.847656 -7.039062 5.34375 -7.21875 4.65625 -7.21875 C 3.738281 -7.21875 3.066406 -6.984375 2.640625 -6.515625 C 2.210938 -6.054688 2 -5.300781 2 -4.25 L 2 0 L 1.296875 0 L 1.296875 -7.71875 L 1.890625 -7.71875 L 2.015625 -6.65625 L 2.0625 -6.65625 C 2.5625 -7.457031 3.453125 -7.859375 4.734375 -7.859375 C 6.484375 -7.859375 7.359375 -6.921875 7.359375 -5.046875 L 7.359375 0 Z M 6.671875 0 "/></g></g></g><g fill="#98523c" fill-opacity="1"><g transform="translate(56.094485, 99.641654)"><g><path d="M 4.375 0.140625 C 3.269531 0.140625 2.40625 -0.203125 1.78125 -0.890625 C 1.15625 -1.585938 0.84375 -2.5625 0.84375 -3.8125 C 0.84375 -5.082031 1.164062 -6.070312 1.8125 -6.78125 C 2.457031 -7.5 3.347656 -7.859375 4.484375 -7.859375 C 5.148438 -7.859375 5.785156 -7.742188 6.390625 -7.515625 L 6.203125 -6.890625 C 5.535156 -7.109375 4.957031 -7.21875 4.46875 -7.21875 C 3.519531 -7.21875 2.800781 -6.925781 2.3125 -6.34375 C 1.820312 -5.757812 1.578125 -4.921875 1.578125 -3.828125 C 1.578125 -2.785156 1.820312 -1.96875 2.3125 -1.375 C 2.800781 -0.789062 3.484375 -0.5 4.359375 -0.5 C 5.054688 -0.5 5.707031 -0.625 6.3125 -0.875 L 6.3125 -0.21875 C 5.8125 0.0195312 5.164062 0.140625 4.375 0.140625 Z M 4.375 0.140625 "/></g></g></g><g fill="#98523c" fill-opacity="1"><g transform="translate(65.887409, 99.641654)"><g><path d="M 7.671875 -3.859375 C 7.671875 -2.609375 7.363281 -1.628906 6.75 -0.921875 C 6.144531 -0.210938 5.304688 0.140625 4.234375 0.140625 C 3.554688 0.140625 2.957031 -0.0195312 2.4375 -0.34375 C 1.925781 -0.675781 1.53125 -1.144531 1.25 -1.75 C 0.976562 -2.363281 0.84375 -3.066406 0.84375 -3.859375 C 0.84375 -5.117188 1.144531 -6.097656 1.75 -6.796875 C 2.363281 -7.503906 3.203125 -7.859375 4.265625 -7.859375 C 5.328125 -7.859375 6.160156 -7.5 6.765625 -6.78125 C 7.367188 -6.070312 7.671875 -5.097656 7.671875 -3.859375 Z M 1.578125 -3.859375 C 1.578125 -2.804688 1.8125 -1.984375 2.28125 -1.390625 C 2.75 -0.796875 3.40625 -0.5 4.25 -0.5 C 5.101562 -0.5 5.765625 -0.796875 6.234375 -1.390625 C 6.703125 -1.984375 6.9375 -2.804688 6.9375 -3.859375 C 6.9375 -4.929688 6.695312 -5.757812 6.21875 -6.34375 C 5.75 -6.925781 5.09375 -7.21875 4.25 -7.21875 C 3.394531 -7.21875 2.734375 -6.925781 2.265625 -6.34375 C 1.804688 -5.757812 1.578125 -4.929688 1.578125 -3.859375 Z M 1.578125 -3.859375 "/></g></g></g><g fill="#98523c" fill-opacity="1"><g transform="translate(77.290189, 99.641654)"><g><path d="M 4.328125 -7.859375 C 4.648438 -7.859375 5 -7.828125 5.375 -7.765625 L 5.25 -7.09375 C 4.925781 -7.164062 4.59375 -7.203125 4.25 -7.203125 C 3.582031 -7.203125 3.039062 -6.921875 2.625 -6.359375 C 2.207031 -5.804688 2 -5.101562 2 -4.25 L 2 0 L 1.296875 0 L 1.296875 -7.71875 L 1.890625 -7.71875 L 1.953125 -6.328125 L 2.015625 -6.328125 C 2.328125 -6.890625 2.660156 -7.285156 3.015625 -7.515625 C 3.378906 -7.742188 3.816406 -7.859375 4.328125 -7.859375 Z M 4.328125 -7.859375 "/></g></g></g><g fill="#98523c" fill-opacity="1"><g transform="translate(85.834944, 99.641654)"><g><path d="M 4.59375 0.140625 C 3.40625 0.140625 2.539062 -0.300781 2 -1.1875 L 1.9375 -1.1875 L 1.96875 -0.59375 C 1.988281 -0.25 2 0.128906 2 0.546875 L 2 3.484375 L 1.296875 3.484375 L 1.296875 -7.71875 L 1.890625 -7.71875 L 2.015625 -6.609375 L 2.0625 -6.609375 C 2.59375 -7.441406 3.441406 -7.859375 4.609375 -7.859375 C 5.648438 -7.859375 6.441406 -7.515625 6.984375 -6.828125 C 7.535156 -6.148438 7.8125 -5.160156 7.8125 -3.859375 C 7.8125 -2.585938 7.519531 -1.601562 6.9375 -0.90625 C 6.363281 -0.207031 5.582031 0.140625 4.59375 0.140625 Z M 4.578125 -0.484375 C 5.367188 -0.484375 5.976562 -0.773438 6.40625 -1.359375 C 6.84375 -1.941406 7.0625 -2.765625 7.0625 -3.828125 C 7.0625 -6.085938 6.242188 -7.21875 4.609375 -7.21875 C 3.703125 -7.21875 3.039062 -6.96875 2.625 -6.46875 C 2.207031 -5.976562 2 -5.175781 2 -4.0625 L 2 -3.84375 C 2 -2.632812 2.195312 -1.769531 2.59375 -1.25 C 3 -0.738281 3.660156 -0.484375 4.578125 -0.484375 Z M 4.578125 -0.484375 "/></g></g></g><g fill="#98523c" fill-opacity="1"><g transform="translate(97.372475, 99.641654)"><g><path d="M 7.671875 -3.859375 C 7.671875 -2.609375 7.363281 -1.628906 6.75 -0.921875 C 6.144531 -0.210938 5.304688 0.140625 4.234375 0.140625 C 3.554688 0.140625 2.957031 -0.0195312 2.4375 -0.34375 C 1.925781 -0.675781 1.53125 -1.144531 1.25 -1.75 C 0.976562 -2.363281 0.84375 -3.066406 0.84375 -3.859375 C 0.84375 -5.117188 1.144531 -6.097656 1.75 -6.796875 C 2.363281 -7.503906 3.203125 -7.859375 4.265625 -7.859375 C 5.328125 -7.859375 6.160156 -7.5 6.765625 -6.78125 C 7.367188 -6.070312 7.671875 -5.097656 7.671875 -3.859375 Z M 1.578125 -3.859375 C 1.578125 -2.804688 1.8125 -1.984375 2.28125 -1.390625 C 2.75 -0.796875 3.40625 -0.5 4.25 -0.5 C 5.101562 -0.5 5.765625 -0.796875 6.234375 -1.390625 C 6.703125 -1.984375 6.9375 -2.804688 6.9375 -3.859375 C 6.9375 -4.929688 6.695312 -5.757812 6.21875 -6.34375 C 5.75 -6.925781 5.09375 -7.21875 4.25 -7.21875 C 3.394531 -7.21875 2.734375 -6.925781 2.265625 -6.34375 C 1.804688 -5.757812 1.578125 -4.929688 1.578125 -3.859375 Z M 1.578125 -3.859375 "/></g></g></g><g fill="#98523c" fill-opacity="1"><g transform="translate(108.775255, 99.641654)"><g><path d="M 4.328125 -7.859375 C 4.648438 -7.859375 5 -7.828125 5.375 -7.765625 L 5.25 -7.09375 C 4.925781 -7.164062 4.59375 -7.203125 4.25 -7.203125 C 3.582031 -7.203125 3.039062 -6.921875 2.625 -6.359375 C 2.207031 -5.804688 2 -5.101562 2 -4.25 L 2 0 L 1.296875 0 L 1.296875 -7.71875 L 1.890625 -7.71875 L 1.953125 -6.328125 L 2.015625 -6.328125 C 2.328125 -6.890625 2.660156 -7.285156 3.015625 -7.515625 C 3.378906 -7.742188 3.816406 -7.859375 4.328125 -7.859375 Z M 4.328125 -7.859375 "/></g></g></g><g fill="#98523c" fill-opacity="1"><g transform="translate(117.32001, 99.641654)"><g><path d="M 5.96875 0 L 5.796875 -1.21875 L 5.734375 -1.21875 C 5.347656 -0.71875 4.953125 -0.363281 4.546875 -0.15625 C 4.140625 0.0390625 3.65625 0.140625 3.09375 0.140625 C 2.332031 0.140625 1.742188 -0.0507812 1.328125 -0.4375 C 0.910156 -0.820312 0.703125 -1.359375 0.703125 -2.046875 C 0.703125 -2.796875 1.015625 -3.378906 1.640625 -3.796875 C 2.265625 -4.210938 3.171875 -4.4375 4.359375 -4.46875 L 5.828125 -4.5 L 5.828125 -5.015625 C 5.828125 -5.742188 5.675781 -6.296875 5.375 -6.671875 C 5.082031 -7.046875 4.601562 -7.234375 3.9375 -7.234375 C 3.21875 -7.234375 2.476562 -7.035156 1.71875 -6.640625 L 1.453125 -7.25 C 2.296875 -7.644531 3.132812 -7.84375 3.96875 -7.84375 C 4.8125 -7.84375 5.441406 -7.625 5.859375 -7.1875 C 6.285156 -6.75 6.5 -6.0625 6.5 -5.125 L 6.5 0 Z M 3.140625 -0.5 C 3.960938 -0.5 4.609375 -0.734375 5.078125 -1.203125 C 5.554688 -1.671875 5.796875 -2.328125 5.796875 -3.171875 L 5.796875 -3.921875 L 4.453125 -3.859375 C 3.367188 -3.804688 2.59375 -3.640625 2.125 -3.359375 C 1.664062 -3.078125 1.4375 -2.628906 1.4375 -2.015625 C 1.4375 -1.535156 1.582031 -1.160156 1.875 -0.890625 C 2.175781 -0.628906 2.597656 -0.5 3.140625 -0.5 Z M 3.140625 -0.5 "/></g></g></g><g fill="#98523c" fill-opacity="1"><g transform="translate(127.907228, 99.641654)"><g><path d="M 4.109375 -7.859375 C 4.671875 -7.859375 5.15625 -7.753906 5.5625 -7.546875 C 5.96875 -7.347656 6.332031 -7.003906 6.65625 -6.515625 L 6.703125 -6.515625 C 6.671875 -7.109375 6.65625 -7.691406 6.65625 -8.265625 L 6.65625 -11.046875 L 7.34375 -11.046875 L 7.34375 0 L 6.890625 0 L 6.71875 -1.171875 L 6.65625 -1.171875 C 6.070312 -0.296875 5.226562 0.140625 4.125 0.140625 C 3.0625 0.140625 2.25 -0.1875 1.6875 -0.84375 C 1.125 -1.507812 0.84375 -2.476562 0.84375 -3.75 C 0.84375 -5.082031 1.117188 -6.097656 1.671875 -6.796875 C 2.234375 -7.503906 3.046875 -7.859375 4.109375 -7.859375 Z M 4.109375 -7.21875 C 3.273438 -7.21875 2.644531 -6.921875 2.21875 -6.328125 C 1.789062 -5.742188 1.578125 -4.890625 1.578125 -3.765625 C 1.578125 -1.578125 2.425781 -0.484375 4.125 -0.484375 C 5 -0.484375 5.640625 -0.734375 6.046875 -1.234375 C 6.453125 -1.742188 6.65625 -2.582031 6.65625 -3.75 L 6.65625 -3.859375 C 6.65625 -5.054688 6.453125 -5.914062 6.046875 -6.4375 C 5.648438 -6.957031 5.003906 -7.21875 4.109375 -7.21875 Z M 4.109375 -7.21875 "/></g></g></g><g fill="#98523c" fill-opacity="1"><g transform="translate(139.444755, 99.641654)"><g><path d="M 7.671875 -3.859375 C 7.671875 -2.609375 7.363281 -1.628906 6.75 -0.921875 C 6.144531 -0.210938 5.304688 0.140625 4.234375 0.140625 C 3.554688 0.140625 2.957031 -0.0195312 2.4375 -0.34375 C 1.925781 -0.675781 1.53125 -1.144531 1.25 -1.75 C 0.976562 -2.363281 0.84375 -3.066406 0.84375 -3.859375 C 0.84375 -5.117188 1.144531 -6.097656 1.75 -6.796875 C 2.363281 -7.503906 3.203125 -7.859375 4.265625 -7.859375 C 5.328125 -7.859375 6.160156 -7.5 6.765625 -6.78125 C 7.367188 -6.070312 7.671875 -5.097656 7.671875 -3.859375 Z M 1.578125 -3.859375 C 1.578125 -2.804688 1.8125 -1.984375 2.28125 -1.390625 C 2.75 -0.796875 3.40625 -0.5 4.25 -0.5 C 5.101562 -0.5 5.765625 -0.796875 6.234375 -1.390625 C 6.703125 -1.984375 6.9375 -2.804688 6.9375 -3.859375 C 6.9375 -4.929688 6.695312 -5.757812 6.21875 -6.34375 C 5.75 -6.925781 5.09375 -7.21875 4.25 -7.21875 C 3.394531 -7.21875 2.734375 -6.925781 2.265625 -6.34375 C 1.804688 -5.757812 1.578125 -4.929688 1.578125 -3.859375 Z M 1.578125 -3.859375 "/></g></g></g><g fill="#98523c" fill-opacity="1"><g transform="translate(150.84753, 99.641654)"><g><path d="M 4.328125 -7.859375 C 4.648438 -7.859375 5 -7.828125 5.375 -7.765625 L 5.25 -7.09375 C 4.925781 -7.164062 4.59375 -7.203125 4.25 -7.203125 C 3.582031 -7.203125 3.039062 -6.921875 2.625 -6.359375 C 2.207031 -5.804688 2 -5.101562 2 -4.25 L 2 0 L 1.296875 0 L 1.296875 -7.71875 L 1.890625 -7.71875 L 1.953125 -6.328125 L 2.015625 -6.328125 C 2.328125 -6.890625 2.660156 -7.285156 3.015625 -7.515625 C 3.378906 -7.742188 3.816406 -7.859375 4.328125 -7.859375 Z M 4.328125 -7.859375 "/></g></g></g><g fill="#98523c" fill-opacity="1"><g transform="translate(159.39228, 99.641654)"><g><path d="M 5.96875 0 L 5.796875 -1.21875 L 5.734375 -1.21875 C 5.347656 -0.71875 4.953125 -0.363281 4.546875 -0.15625 C 4.140625 0.0390625 3.65625 0.140625 3.09375 0.140625 C 2.332031 0.140625 1.742188 -0.0507812 1.328125 -0.4375 C 0.910156 -0.820312 0.703125 -1.359375 0.703125 -2.046875 C 0.703125 -2.796875 1.015625 -3.378906 1.640625 -3.796875 C 2.265625 -4.210938 3.171875 -4.4375 4.359375 -4.46875 L 5.828125 -4.5 L 5.828125 -5.015625 C 5.828125 -5.742188 5.675781 -6.296875 5.375 -6.671875 C 5.082031 -7.046875 4.601562 -7.234375 3.9375 -7.234375 C 3.21875 -7.234375 2.476562 -7.035156 1.71875 -6.640625 L 1.453125 -7.25 C 2.296875 -7.644531 3.132812 -7.84375 3.96875 -7.84375 C 4.8125 -7.84375 5.441406 -7.625 5.859375 -7.1875 C 6.285156 -6.75 6.5 -6.0625 6.5 -5.125 L 6.5 0 Z M 3.140625 -0.5 C 3.960938 -0.5 4.609375 -0.734375 5.078125 -1.203125 C 5.554688 -1.671875 5.796875 -2.328125 5.796875 -3.171875 L 5.796875 -3.921875 L 4.453125 -3.859375 C 3.367188 -3.804688 2.59375 -3.640625 2.125 -3.359375 C 1.664062 -3.078125 1.4375 -2.628906 1.4375 -2.015625 C 1.4375 -1.535156 1.582031 -1.160156 1.875 -0.890625 C 2.175781 -0.628906 2.597656 -0.5 3.140625 -0.5 Z M 3.140625 -0.5 "/></g></g></g><g clip-path="url(#6bebfb8b90)"><path fill="#98523c" d="M 419.496094 79.597656 L 551.367188 79.597656 L 551.367188 211.46875 L 419.496094 211.46875 Z M 419.496094 79.597656 " fill-opacity="1" fill-rule="nonzero"/></g><g clip-path="url(#8cd97e8395)"><g fill="#98523c" fill-opacity="1"><g transform="translate(483.900998, 93.183682)"><g><path d="M 2.796875 -9.296875 L 2.796875 0 L 0.671875 0 L 0.671875 -9.296875 Z M 2.796875 -9.296875 "/></g></g></g></g><g clip-path="url(#d5b6c7d498)"><g fill="#98523c" fill-opacity="1"><g transform="translate(483.900998, 108.919861)"><g><path d="M 0.671875 0 L 0.671875 -5.78125 L 2.671875 -5.78125 L 2.671875 -5.171875 L 2.6875 -5.171875 C 3.207031 -5.691406 3.757812 -5.953125 4.34375 -5.953125 C 4.632812 -5.953125 4.921875 -5.910156 5.203125 -5.828125 C 5.484375 -5.753906 5.753906 -5.640625 6.015625 -5.484375 C 6.273438 -5.328125 6.484375 -5.101562 6.640625 -4.8125 C 6.804688 -4.519531 6.890625 -4.1875 6.890625 -3.8125 L 6.890625 0 L 4.890625 0 L 4.890625 -3.265625 C 4.890625 -3.566406 4.789062 -3.828125 4.59375 -4.046875 C 4.40625 -4.273438 4.160156 -4.390625 3.859375 -4.390625 C 3.554688 -4.390625 3.28125 -4.269531 3.03125 -4.03125 C 2.789062 -3.800781 2.671875 -3.546875 2.671875 -3.265625 L 2.671875 0 Z M 0.671875 0 "/></g></g></g></g><g clip-path="url(#37aeb81962)"><g fill="#98523c" fill-opacity="1"><g transform="translate(483.900998, 124.65604)"><g><path d="M 3.1875 -5.953125 C 3.519531 -5.953125 3.847656 -5.910156 4.171875 -5.828125 C 4.492188 -5.753906 4.734375 -5.679688 4.890625 -5.609375 L 5.125 -5.5 L 4.46875 -4.1875 C 4.019531 -4.425781 3.59375 -4.546875 3.1875 -4.546875 C 2.957031 -4.546875 2.796875 -4.519531 2.703125 -4.46875 C 2.609375 -4.425781 2.5625 -4.335938 2.5625 -4.203125 C 2.5625 -4.171875 2.566406 -4.140625 2.578125 -4.109375 C 2.585938 -4.078125 2.601562 -4.046875 2.625 -4.015625 C 2.644531 -3.992188 2.664062 -3.972656 2.6875 -3.953125 C 2.707031 -3.941406 2.738281 -3.921875 2.78125 -3.890625 C 2.820312 -3.867188 2.851562 -3.851562 2.875 -3.84375 C 2.90625 -3.832031 2.953125 -3.816406 3.015625 -3.796875 C 3.078125 -3.773438 3.125 -3.757812 3.15625 -3.75 C 3.1875 -3.738281 3.234375 -3.71875 3.296875 -3.6875 C 3.367188 -3.664062 3.425781 -3.65625 3.46875 -3.65625 C 3.695312 -3.582031 3.898438 -3.503906 4.078125 -3.421875 C 4.253906 -3.335938 4.4375 -3.222656 4.625 -3.078125 C 4.8125 -2.941406 4.957031 -2.765625 5.0625 -2.546875 C 5.175781 -2.328125 5.234375 -2.078125 5.234375 -1.796875 C 5.234375 -0.484375 4.316406 0.171875 2.484375 0.171875 C 2.078125 0.171875 1.6875 0.109375 1.3125 -0.015625 C 0.9375 -0.148438 0.664062 -0.28125 0.5 -0.40625 L 0.265625 -0.609375 L 1.0625 -1.96875 C 1.125 -1.914062 1.203125 -1.851562 1.296875 -1.78125 C 1.398438 -1.707031 1.578125 -1.609375 1.828125 -1.484375 C 2.085938 -1.367188 2.3125 -1.3125 2.5 -1.3125 C 2.914062 -1.3125 3.125 -1.445312 3.125 -1.71875 C 3.125 -1.851562 3.070312 -1.953125 2.96875 -2.015625 C 2.863281 -2.085938 2.679688 -2.171875 2.421875 -2.265625 C 2.171875 -2.359375 1.976562 -2.441406 1.84375 -2.515625 C 1.476562 -2.703125 1.191406 -2.910156 0.984375 -3.140625 C 0.773438 -3.378906 0.671875 -3.695312 0.671875 -4.09375 C 0.671875 -4.675781 0.894531 -5.128906 1.34375 -5.453125 C 1.800781 -5.785156 2.414062 -5.953125 3.1875 -5.953125 Z M 3.1875 -5.953125 "/></g></g></g></g><g clip-path="url(#5ddafc23e5)"><g fill="#98523c" fill-opacity="1"><g transform="translate(483.900998, 140.392219)"><g><path d="M 1.015625 -5.78125 L 1.015625 -7.9375 L 3.015625 -7.9375 L 3.015625 -5.78125 L 4.21875 -5.78125 L 4.21875 -4.265625 L 3.015625 -4.265625 L 3.015625 -2.421875 C 3.015625 -1.890625 3.160156 -1.625 3.453125 -1.625 C 3.535156 -1.625 3.613281 -1.640625 3.6875 -1.671875 C 3.769531 -1.703125 3.835938 -1.726562 3.890625 -1.75 L 3.953125 -1.796875 L 4.453125 -0.1875 C 4.023438 0.0507812 3.535156 0.171875 2.984375 0.171875 C 2.609375 0.171875 2.285156 0.109375 2.015625 -0.015625 C 1.742188 -0.148438 1.535156 -0.328125 1.390625 -0.546875 C 1.253906 -0.773438 1.15625 -1.007812 1.09375 -1.25 C 1.039062 -1.5 1.015625 -1.757812 1.015625 -2.03125 L 1.015625 -4.265625 L 0.1875 -4.265625 L 0.1875 -5.78125 Z M 1.015625 -5.78125 "/></g></g></g></g><g clip-path="url(#8dc9170b28)"><g fill="#98523c" fill-opacity="1"><g transform="translate(483.900998, 156.128397)"><g><path d="M 1.0625 -0.703125 C 0.53125 -1.296875 0.265625 -2.019531 0.265625 -2.875 C 0.265625 -3.738281 0.53125 -4.46875 1.0625 -5.0625 C 1.601562 -5.65625 2.289062 -5.953125 3.125 -5.953125 C 3.894531 -5.953125 4.53125 -5.710938 5.03125 -5.234375 L 5.03125 -5.78125 L 7.015625 -5.78125 L 7.015625 0 L 5.046875 0 L 5.046875 -0.65625 L 5.03125 -0.65625 C 4.53125 -0.101562 3.894531 0.171875 3.125 0.171875 C 2.289062 0.171875 1.601562 -0.117188 1.0625 -0.703125 Z M 2.765625 -3.859375 C 2.503906 -3.609375 2.375 -3.28125 2.375 -2.875 C 2.375 -2.476562 2.5 -2.15625 2.75 -1.90625 C 3 -1.65625 3.328125 -1.53125 3.734375 -1.53125 C 4.117188 -1.53125 4.4375 -1.65625 4.6875 -1.90625 C 4.9375 -2.164062 5.0625 -2.492188 5.0625 -2.890625 C 5.0625 -3.285156 4.929688 -3.609375 4.671875 -3.859375 C 4.421875 -4.117188 4.109375 -4.25 3.734375 -4.25 C 3.347656 -4.25 3.023438 -4.117188 2.765625 -3.859375 Z M 2.765625 -3.859375 "/></g></g></g></g><g clip-path="url(#634c985a71)"><g fill="#98523c" fill-opacity="1"><g transform="translate(483.900998, 171.864576)"><g><path d="M 0.421875 1.421875 L 2.046875 0.625 C 2.347656 1.113281 2.867188 1.359375 3.609375 1.359375 C 3.960938 1.359375 4.285156 1.25 4.578125 1.03125 C 4.878906 0.8125 5.03125 0.472656 5.03125 0.015625 L 5.03125 -0.421875 C 4.675781 -0.0234375 4.039062 0.171875 3.125 0.171875 C 2.289062 0.171875 1.601562 -0.117188 1.0625 -0.703125 C 0.53125 -1.296875 0.265625 -2.019531 0.265625 -2.875 C 0.265625 -3.738281 0.53125 -4.46875 1.0625 -5.0625 C 1.601562 -5.65625 2.289062 -5.953125 3.125 -5.953125 C 3.875 -5.953125 4.492188 -5.722656 4.984375 -5.265625 L 5.03125 -5.265625 L 5.03125 -5.78125 L 7.015625 -5.78125 L 7.015625 0.15625 C 7.015625 1.09375 6.703125 1.816406 6.078125 2.328125 C 5.453125 2.835938 4.628906 3.09375 3.609375 3.09375 C 1.960938 3.09375 0.898438 2.535156 0.421875 1.421875 Z M 2.765625 -3.859375 C 2.503906 -3.609375 2.375 -3.28125 2.375 -2.875 C 2.375 -2.476562 2.5 -2.15625 2.75 -1.90625 C 3 -1.65625 3.328125 -1.53125 3.734375 -1.53125 C 4.117188 -1.53125 4.4375 -1.65625 4.6875 -1.90625 C 4.9375 -2.164062 5.0625 -2.492188 5.0625 -2.890625 C 5.0625 -3.285156 4.929688 -3.609375 4.671875 -3.859375 C 4.421875 -4.117188 4.109375 -4.25 3.734375 -4.25 C 3.347656 -4.25 3.023438 -4.117188 2.765625 -3.859375 Z M 2.765625 -3.859375 "/></g></g></g></g><g clip-path="url(#3e6e259fe9)"><g fill="#98523c" fill-opacity="1"><g transform="translate(483.900998, 187.600755)"><g><path d="M 0.671875 0 L 0.671875 -5.78125 L 2.671875 -5.78125 L 2.671875 -4.953125 L 2.6875 -4.953125 C 2.707031 -4.972656 2.734375 -5.003906 2.765625 -5.046875 C 2.796875 -5.097656 2.867188 -5.179688 2.984375 -5.296875 C 3.097656 -5.410156 3.21875 -5.507812 3.34375 -5.59375 C 3.46875 -5.6875 3.628906 -5.769531 3.828125 -5.84375 C 4.035156 -5.914062 4.25 -5.953125 4.46875 -5.953125 C 4.675781 -5.953125 4.882812 -5.921875 5.09375 -5.859375 C 5.3125 -5.796875 5.46875 -5.734375 5.5625 -5.671875 L 5.71875 -5.59375 L 4.890625 -3.890625 C 4.640625 -4.109375 4.296875 -4.21875 3.859375 -4.21875 C 3.617188 -4.21875 3.410156 -4.160156 3.234375 -4.046875 C 3.054688 -3.941406 2.929688 -3.816406 2.859375 -3.671875 C 2.796875 -3.523438 2.75 -3.394531 2.71875 -3.28125 C 2.6875 -3.175781 2.671875 -3.097656 2.671875 -3.046875 L 2.671875 0 Z M 0.671875 0 "/></g></g></g></g><g clip-path="url(#96ca5845d1)"><g fill="#98523c" fill-opacity="1"><g transform="translate(483.900998, 203.336934)"><g><path d="M 1.0625 -0.703125 C 0.53125 -1.296875 0.265625 -2.019531 0.265625 -2.875 C 0.265625 -3.738281 0.53125 -4.46875 1.0625 -5.0625 C 1.601562 -5.65625 2.289062 -5.953125 3.125 -5.953125 C 3.894531 -5.953125 4.53125 -5.710938 5.03125 -5.234375 L 5.03125 -5.78125 L 7.015625 -5.78125 L 7.015625 0 L 5.046875 0 L 5.046875 -0.65625 L 5.03125 -0.65625 C 4.53125 -0.101562 3.894531 0.171875 3.125 0.171875 C 2.289062 0.171875 1.601562 -0.117188 1.0625 -0.703125 Z M 2.765625 -3.859375 C 2.503906 -3.609375 2.375 -3.28125 2.375 -2.875 C 2.375 -2.476562 2.5 -2.15625 2.75 -1.90625 C 3 -1.65625 3.328125 -1.53125 3.734375 -1.53125 C 4.117188 -1.53125 4.4375 -1.65625 4.6875 -1.90625 C 4.9375 -2.164062 5.0625 -2.492188 5.0625 -2.890625 C 5.0625 -3.285156 4.929688 -3.609375 4.671875 -3.859375 C 4.421875 -4.117188 4.109375 -4.25 3.734375 -4.25 C 3.347656 -4.25 3.023438 -4.117188 2.765625 -3.859375 Z M 2.765625 -3.859375 "/></g></g></g></g></svg>