<svg xmlns="http://www.w3.org/2000/svg" xmlns:xlink="http://www.w3.org/1999/xlink" width="650" zoomAndPan="magnify" viewBox="0 0 487.5 262.499992" height="350" preserveAspectRatio="xMidYMid meet" version="1.0"><defs><g/><clipPath id="3c7db42f9a"><path d="M 472.28125 73.085938 L 477.304688 73.085938 L 477.304688 189.15625 L 472.28125 189.15625 Z M 472.28125 73.085938 " clip-rule="nonzero"/></clipPath></defs><path fill="#98523c" d="M 257.5625 156.507812 L 256.394531 155.648438 L 298.699219 98.378906 L 298.699219 142.292969 L 297.246094 142.292969 L 297.246094 102.785156 Z M 257.5625 156.507812 " fill-opacity="1" fill-rule="nonzero"/><path fill="#98523c" d="M 249.722656 142.292969 L 248.269531 142.292969 L 248.269531 89.253906 L 272.945312 123.640625 L 302.828125 82.378906 L 304 83.230469 L 272.9375 126.121094 L 249.722656 93.765625 Z M 249.722656 142.292969 " fill-opacity="1" fill-rule="nonzero"/><path fill="#98523c" d="M 259.304688 141.867188 L 272.359375 124.453125 L 273.523438 125.324219 L 260.464844 142.738281 Z M 259.304688 141.867188 " fill-opacity="1" fill-rule="nonzero"/><path fill="#98523c" d="M 317.386719 125.050781 L 322.570312 98.5625 L 331.027344 117.710938 L 339.789062 98.5625 L 344.449219 125.050781 L 340.636719 125.050781 L 338.257812 110.1875 L 330.964844 126.191406 L 323.878906 110.171875 L 321.242188 125.058594 Z M 317.386719 125.050781 " fill-opacity="1" fill-rule="nonzero"/><path fill="#98523c" d="M 348.4375 112.621094 C 348.4375 109.152344 349.710938 106.175781 352.253906 103.6875 C 353.457031 102.46875 354.851562 101.535156 356.433594 100.886719 C 358.019531 100.238281 359.667969 99.925781 361.382812 99.953125 C 364.898438 99.953125 367.910156 101.207031 370.414062 103.71875 C 371.644531 104.898438 372.589844 106.277344 373.246094 107.851562 C 373.902344 109.421875 374.21875 111.0625 374.195312 112.765625 C 374.222656 114.46875 373.910156 116.105469 373.246094 117.675781 C 372.585938 119.242188 371.636719 120.613281 370.398438 121.78125 C 367.855469 124.261719 364.785156 125.5 361.191406 125.5 C 358.007812 125.5 355.152344 124.398438 352.621094 122.195312 C 349.835938 119.761719 348.441406 116.570312 348.4375 112.621094 Z M 352.1875 112.671875 C 352.1875 115.386719 353.105469 117.625 354.933594 119.382812 C 356.765625 121.140625 358.867188 122.019531 361.238281 122.019531 C 362.46875 122.046875 363.652344 121.828125 364.789062 121.359375 C 365.925781 120.894531 366.925781 120.222656 367.78125 119.339844 C 368.65625 118.46875 369.324219 117.457031 369.789062 116.3125 C 370.25 115.167969 370.46875 113.976562 370.445312 112.742188 C 370.445312 110.113281 369.566406 107.914062 367.808594 106.136719 C 366.050781 104.363281 363.890625 103.46875 361.335938 103.457031 C 360.113281 103.433594 358.9375 103.652344 357.804688 104.117188 C 356.675781 104.585938 355.6875 105.257812 354.839844 106.136719 C 353.074219 107.894531 352.191406 110.074219 352.1875 112.671875 Z M 352.1875 112.671875 " fill-opacity="1" fill-rule="nonzero"/><path fill="#98523c" d="M 382.589844 100.414062 L 382.589844 115.253906 C 382.589844 117.371094 382.9375 118.921875 383.628906 119.898438 C 384.660156 121.3125 386.113281 122.019531 387.984375 122.019531 C 389.859375 122.019531 391.316406 121.3125 392.355469 119.898438 C 393.046875 118.949219 393.394531 117.402344 393.394531 115.253906 L 393.394531 100.414062 L 397.113281 100.414062 L 397.113281 116.277344 C 397.113281 118.871094 396.304688 121.007812 394.6875 122.691406 C 394.25 123.132812 393.773438 123.53125 393.257812 123.882812 C 392.742188 124.230469 392.195312 124.527344 391.621094 124.769531 C 391.046875 125.007812 390.453125 125.191406 389.84375 125.316406 C 389.234375 125.4375 388.617188 125.5 387.992188 125.5 C 387.367188 125.5 386.75 125.4375 386.140625 125.316406 C 385.53125 125.191406 384.9375 125.007812 384.363281 124.769531 C 383.789062 124.527344 383.242188 124.230469 382.726562 123.882812 C 382.210938 123.53125 381.734375 123.132812 381.296875 122.691406 C 379.683594 121.007812 378.871094 118.871094 378.871094 116.277344 L 378.871094 100.414062 Z M 382.589844 100.414062 " fill-opacity="1" fill-rule="nonzero"/><path fill="#98523c" d="M 411.363281 114.550781 L 418.992188 125.050781 L 414.433594 125.050781 L 407.394531 114.96875 L 406.726562 114.96875 L 406.726562 125.050781 L 403.007812 125.050781 L 403.007812 100.414062 L 407.363281 100.414062 C 410.621094 100.414062 412.972656 101.027344 414.417969 102.25 C 416.015625 103.613281 416.816406 105.410156 416.816406 107.644531 C 416.855469 109.324219 416.355469 110.824219 415.316406 112.144531 C 414.296875 113.433594 412.976562 114.238281 411.363281 114.550781 Z M 406.734375 111.726562 L 407.914062 111.726562 C 411.433594 111.726562 413.191406 110.382812 413.191406 107.691406 C 413.191406 105.171875 411.476562 103.910156 408.050781 103.910156 L 406.726562 103.910156 Z M 406.734375 111.726562 " fill-opacity="1" fill-rule="nonzero"/><path fill="#98523c" d="M 439.78125 119.066406 L 429.230469 119.066406 L 426.484375 125.0625 L 422.480469 125.0625 L 434.675781 98.878906 L 446.421875 125.0625 L 442.347656 125.0625 Z M 438.265625 115.574219 L 434.613281 107.195312 L 430.777344 115.574219 Z M 438.265625 115.574219 " fill-opacity="1" fill-rule="nonzero"/><path fill="#98523c" d="M 347.59375 137.488281 L 347.59375 137.464844 C 347.585938 136.867188 347.75 136.324219 348.085938 135.832031 C 348.421875 135.339844 348.871094 134.988281 349.429688 134.777344 C 349.988281 134.570312 350.558594 134.542969 351.132812 134.695312 C 351.710938 134.847656 352.191406 135.152344 352.574219 135.609375 L 352.199219 135.996094 C 351.71875 135.515625 351.191406 135.09375 350.375 135.09375 C 349.128906 135.09375 348.164062 136.132812 348.164062 137.445312 L 348.164062 137.464844 C 348.15625 137.773438 348.207031 138.066406 348.316406 138.355469 C 348.425781 138.640625 348.585938 138.894531 348.796875 139.117188 C 349.007812 139.339844 349.253906 139.511719 349.535156 139.636719 C 349.816406 139.761719 350.109375 139.828125 350.414062 139.832031 C 351.167969 139.8125 351.78125 139.507812 352.25 138.921875 L 352.617188 139.242188 C 352.058594 139.875 351.394531 140.328125 350.382812 140.328125 C 350.011719 140.324219 349.652344 140.25 349.308594 140.101562 C 348.964844 139.957031 348.664062 139.75 348.402344 139.484375 C 348.140625 139.21875 347.941406 138.910156 347.800781 138.566406 C 347.660156 138.21875 347.59375 137.859375 347.59375 137.488281 Z M 347.59375 137.488281 " fill-opacity="1" fill-rule="nonzero"/><path fill="#98523c" d="M 355.710938 137.488281 L 355.710938 137.464844 C 355.695312 137.085938 355.757812 136.71875 355.894531 136.363281 C 356.03125 136.007812 356.230469 135.695312 356.496094 135.421875 C 356.757812 135.148438 357.066406 134.9375 357.414062 134.785156 C 357.765625 134.636719 358.128906 134.5625 358.507812 134.558594 C 358.890625 134.558594 359.253906 134.632812 359.605469 134.777344 C 359.957031 134.925781 360.265625 135.132812 360.53125 135.40625 C 360.796875 135.675781 361 135.988281 361.136719 136.34375 C 361.277344 136.695312 361.339844 137.0625 361.332031 137.445312 L 361.332031 137.464844 C 361.339844 137.84375 361.273438 138.210938 361.132812 138.5625 C 360.992188 138.914062 360.789062 139.222656 360.523438 139.496094 C 360.257812 139.765625 359.949219 139.972656 359.601562 140.121094 C 359.253906 140.269531 358.886719 140.339844 358.507812 140.34375 C 358.132812 140.34375 357.773438 140.269531 357.425781 140.125 C 357.078125 139.980469 356.773438 139.773438 356.507812 139.503906 C 356.246094 139.234375 356.042969 138.925781 355.90625 138.574219 C 355.765625 138.226562 355.703125 137.863281 355.710938 137.488281 Z M 360.761719 137.488281 L 360.761719 137.464844 C 360.773438 137.15625 360.722656 136.859375 360.613281 136.574219 C 360.503906 136.285156 360.34375 136.03125 360.132812 135.808594 C 359.921875 135.585938 359.675781 135.410156 359.394531 135.289062 C 359.113281 135.164062 358.816406 135.097656 358.507812 135.09375 C 357.210938 135.09375 356.277344 136.15625 356.277344 137.445312 L 356.277344 137.464844 C 356.265625 137.773438 356.316406 138.070312 356.425781 138.355469 C 356.535156 138.644531 356.695312 138.898438 356.90625 139.121094 C 357.121094 139.34375 357.367188 139.519531 357.648438 139.644531 C 357.929688 139.765625 358.222656 139.832031 358.53125 139.835938 C 359.828125 139.832031 360.761719 138.773438 360.761719 137.488281 Z M 360.761719 137.488281 " fill-opacity="1" fill-rule="nonzero"/><path fill="#98523c" d="M 365.097656 134.730469 L 365.625 134.730469 L 365.625 136.28125 C 366.054688 135.308594 366.964844 134.605469 368.046875 134.644531 L 368.046875 135.222656 L 367.996094 135.222656 C 366.730469 135.222656 365.625 136.179688 365.625 137.957031 L 365.625 140.199219 L 365.097656 140.199219 Z M 365.097656 134.730469 " fill-opacity="1" fill-rule="nonzero"/><path fill="#98523c" d="M 371.535156 134.730469 L 372.0625 134.730469 L 372.0625 136.28125 C 372.492188 135.308594 373.402344 134.605469 374.484375 134.644531 L 374.484375 135.222656 L 374.433594 135.222656 C 373.167969 135.222656 372.0625 136.179688 372.0625 137.957031 L 372.0625 140.199219 L 371.535156 140.199219 Z M 371.535156 134.730469 " fill-opacity="1" fill-rule="nonzero"/><path fill="#98523c" d="M 377.328125 137.476562 L 377.328125 137.453125 C 377.328125 135.867188 378.445312 134.601562 379.925781 134.601562 C 381.460938 134.601562 382.4375 135.84375 382.4375 137.464844 C 382.441406 137.535156 382.441406 137.605469 382.4375 137.679688 L 377.898438 137.679688 C 377.992188 139.042969 378.96875 139.835938 380.054688 139.835938 C 380.8125 139.839844 381.441406 139.554688 381.933594 138.976562 L 382.296875 139.300781 C 382.019531 139.632812 381.679688 139.890625 381.28125 140.070312 C 380.886719 140.253906 380.46875 140.339844 380.035156 140.328125 C 378.574219 140.328125 377.328125 139.183594 377.328125 137.476562 Z M 381.867188 137.207031 C 381.792969 136.101562 381.148438 135.082031 379.90625 135.082031 C 378.820312 135.082031 377.988281 135.996094 377.886719 137.207031 Z M 381.867188 137.207031 " fill-opacity="1" fill-rule="nonzero"/><path fill="#98523c" d="M 386.40625 138.796875 L 386.40625 135.210938 L 385.613281 135.210938 L 385.613281 134.730469 L 386.40625 134.730469 L 386.40625 132.980469 L 386.933594 132.980469 L 386.933594 134.730469 L 388.851562 134.730469 L 388.851562 135.210938 L 386.933594 135.210938 L 386.933594 138.742188 C 386.933594 139.523438 387.394531 139.800781 388.027344 139.800781 C 388.3125 139.800781 388.578125 139.738281 388.832031 139.609375 L 388.832031 140.105469 C 388.550781 140.238281 388.253906 140.300781 387.941406 140.296875 C 387.101562 140.296875 386.40625 139.832031 386.40625 138.796875 Z M 386.40625 138.796875 " fill-opacity="1" fill-rule="nonzero"/><path fill="#98523c" d="M 392.019531 137.488281 L 392.019531 137.464844 C 392.011719 137.085938 392.082031 136.722656 392.222656 136.371094 C 392.363281 136.023438 392.566406 135.710938 392.832031 135.441406 C 393.097656 135.175781 393.40625 134.964844 393.753906 134.820312 C 394.101562 134.675781 394.464844 134.601562 394.84375 134.601562 C 395.21875 134.597656 395.578125 134.671875 395.925781 134.8125 C 396.273438 134.957031 396.578125 135.164062 396.839844 135.429688 C 397.105469 135.695312 397.308594 136.003906 397.449219 136.351562 C 397.589844 136.699219 397.65625 137.0625 397.652344 137.4375 L 397.652344 137.457031 C 397.65625 137.835938 397.589844 138.203125 397.449219 138.554688 C 397.308594 138.90625 397.109375 139.21875 396.84375 139.488281 C 396.578125 139.757812 396.269531 139.964844 395.921875 140.113281 C 395.570312 140.261719 395.207031 140.335938 394.828125 140.335938 C 394.453125 140.335938 394.089844 140.265625 393.742188 140.121094 C 393.394531 139.976562 393.089844 139.769531 392.824219 139.5 C 392.558594 139.234375 392.359375 138.925781 392.21875 138.574219 C 392.078125 138.226562 392.011719 137.863281 392.019531 137.488281 Z M 397.074219 137.488281 L 397.074219 137.464844 C 397.082031 137.15625 397.035156 136.859375 396.925781 136.574219 C 396.816406 136.285156 396.65625 136.03125 396.445312 135.808594 C 396.234375 135.585938 395.984375 135.410156 395.703125 135.289062 C 395.421875 135.164062 395.128906 135.097656 394.820312 135.09375 C 393.523438 135.09375 392.589844 136.15625 392.589844 137.445312 L 392.589844 137.464844 C 392.578125 137.773438 392.628906 138.070312 392.738281 138.355469 C 392.847656 138.644531 393.007812 138.898438 393.21875 139.121094 C 393.429688 139.34375 393.675781 139.519531 393.960938 139.644531 C 394.242188 139.765625 394.535156 139.832031 394.84375 139.835938 C 396.140625 139.832031 397.074219 138.773438 397.074219 137.488281 Z M 397.074219 137.488281 " fill-opacity="1" fill-rule="nonzero"/><path fill="#98523c" d="M 401.40625 134.730469 L 401.933594 134.730469 L 401.933594 136.28125 C 402.363281 135.308594 403.277344 134.605469 404.359375 134.644531 L 404.359375 135.222656 L 404.308594 135.222656 C 403.039062 135.222656 401.933594 136.179688 401.933594 137.957031 L 401.933594 140.199219 L 401.40625 140.199219 Z M 401.40625 134.730469 " fill-opacity="1" fill-rule="nonzero"/><path fill="#98523c" d="M 407.125 138.613281 L 407.125 138.59375 C 407.125 137.453125 408.105469 136.8125 409.523438 136.8125 C 410.140625 136.804688 410.746094 136.886719 411.339844 137.050781 L 411.339844 136.8125 C 411.339844 135.707031 410.664062 135.132812 409.535156 135.132812 C 408.925781 135.136719 408.355469 135.28125 407.820312 135.570312 L 407.625 135.109375 C 408.234375 134.800781 408.882812 134.640625 409.566406 134.632812 C 410.308594 134.632812 410.898438 134.835938 411.296875 135.230469 C 411.703125 135.667969 411.890625 136.183594 411.855469 136.777344 L 411.855469 140.1875 L 411.339844 140.1875 L 411.339844 139.277344 C 411.097656 139.613281 410.792969 139.875 410.421875 140.058594 C 410.050781 140.242188 409.660156 140.328125 409.246094 140.316406 C 408.222656 140.328125 407.125 139.75 407.125 138.613281 Z M 411.34375 138.152344 L 411.34375 137.53125 C 410.734375 137.367188 410.117188 137.289062 409.488281 137.289062 C 408.332031 137.289062 407.683594 137.804688 407.683594 138.566406 L 407.683594 138.585938 C 407.683594 139.378906 408.4375 139.84375 409.273438 139.84375 C 410.390625 139.832031 411.34375 139.148438 411.34375 138.15625 Z M 411.34375 138.152344 " fill-opacity="1" fill-rule="nonzero"/><path fill="#98523c" d="M 57.832031 119.246094 C 58.378906 114.449219 60.433594 110.898438 65.402344 110.898438 C 70.351562 110.898438 72.589844 114.433594 73.117188 119.246094 Z M 82.144531 125.351562 C 82.144531 125.351562 85.191406 125.351562 85.191406 122.296875 C 85.191406 111.113281 78.136719 103.464844 64.691406 103.464844 C 51.242188 103.464844 44.1875 110.898438 44.1875 122.179688 C 44.1875 133.464844 51.242188 140.898438 64.691406 140.898438 C 73.648438 140.898438 79.757812 137.59375 82.855469 132.070312 C 82.855469 132.070312 83.019531 131.804688 83.019531 131.421875 C 83.019531 130.691406 82.425781 130.078125 81.679688 130.078125 L 71.675781 130.078125 C 70.484375 132.167969 68.398438 133.464844 65.402344 133.464844 C 60.515625 133.464844 58.445312 130.03125 57.867188 125.351562 Z M 82.144531 125.351562 " fill-opacity="1" fill-rule="nonzero"/><path fill="#98523c" d="M 138.726562 119.246094 C 139.273438 114.449219 141.328125 110.898438 146.296875 110.898438 C 151.246094 110.898438 153.464844 114.433594 154.011719 119.246094 Z M 163.019531 125.351562 C 163.019531 125.351562 166.066406 125.351562 166.066406 122.296875 C 166.066406 111.113281 159.011719 103.464844 145.566406 103.464844 C 132.121094 103.464844 125.066406 110.898438 125.066406 122.179688 C 125.066406 133.464844 132.121094 140.898438 145.566406 140.898438 C 154.523438 140.898438 160.636719 137.59375 163.730469 132.070312 C 163.730469 132.070312 163.898438 131.804688 163.898438 131.421875 C 163.898438 130.691406 163.300781 130.078125 162.554688 130.078125 L 152.570312 130.078125 C 151.378906 132.167969 149.292969 133.464844 146.296875 133.464844 C 141.410156 133.464844 139.339844 130.03125 138.761719 125.351562 Z M 163.019531 125.351562 " fill-opacity="1" fill-rule="nonzero"/><path fill="#98523c" d="M 86.546875 139.46875 L 86.546875 106.417969 C 86.546875 103.367188 89.59375 103.367188 89.59375 103.367188 L 100.042969 103.367188 L 100.042969 140.8125 L 87.871094 140.8125 C 87.890625 140.8125 86.546875 140.8125 86.546875 139.46875 " fill-opacity="1" fill-rule="nonzero"/><path fill="#98523c" d="M 102.0625 140.914062 L 131.523438 103.464844 L 121.785156 103.464844 C 121.785156 103.464844 118.738281 103.464844 116.339844 106.519531 L 102.082031 124.652344 L 102.082031 140.914062 Z M 102.0625 140.914062 " fill-opacity="1" fill-rule="nonzero"/><path fill="#98523c" d="M 181.582031 139.570312 C 181.582031 140.914062 180.242188 140.914062 180.242188 140.914062 L 168.070312 140.914062 L 168.070312 103.464844 L 178.519531 103.464844 C 178.519531 103.464844 181.566406 103.464844 181.566406 106.519531 L 181.566406 108.195312 C 184.433594 105.09375 188.671875 103.464844 193.421875 103.464844 C 202.066406 103.464844 209.054688 109.988281 209.054688 118.035156 L 209.054688 139.570312 C 209.054688 140.914062 207.714844 140.914062 207.714844 140.914062 L 195.542969 140.914062 L 195.542969 121.019531 C 195.542969 117.152344 192.414062 114.019531 188.554688 114.019531 C 184.695312 114.019531 181.566406 117.152344 181.566406 121.019531 L 181.566406 139.570312 Z M 181.582031 139.570312 " fill-opacity="1" fill-rule="nonzero"/><g fill="#98523c" fill-opacity="1"><g transform="translate(67.044929, 94.150919)"><g><path d="M 1.78125 0 L 1.15625 0 L 1.15625 -6.921875 L 1.78125 -6.921875 Z M 1.0625 -8.84375 C 1.0625 -9.25 1.195312 -9.453125 1.46875 -9.453125 C 1.601562 -9.453125 1.707031 -9.394531 1.78125 -9.28125 C 1.851562 -9.175781 1.890625 -9.03125 1.890625 -8.84375 C 1.890625 -8.644531 1.851562 -8.488281 1.78125 -8.375 C 1.707031 -8.269531 1.601562 -8.21875 1.46875 -8.21875 C 1.195312 -8.21875 1.0625 -8.425781 1.0625 -8.84375 Z M 1.0625 -8.84375 "/></g></g></g><g fill="#98523c" fill-opacity="1"><g transform="translate(72.580416, 94.150919)"><g><path d="M 5.984375 0 L 5.984375 -4.484375 C 5.984375 -5.179688 5.835938 -5.6875 5.546875 -6 C 5.253906 -6.320312 4.800781 -6.484375 4.1875 -6.484375 C 3.351562 -6.484375 2.742188 -6.269531 2.359375 -5.84375 C 1.972656 -5.425781 1.78125 -4.75 1.78125 -3.8125 L 1.78125 0 L 1.15625 0 L 1.15625 -6.921875 L 1.6875 -6.921875 L 1.8125 -5.96875 L 1.859375 -5.96875 C 2.304688 -6.6875 3.101562 -7.046875 4.25 -7.046875 C 5.820312 -7.046875 6.609375 -6.207031 6.609375 -4.53125 L 6.609375 0 Z M 5.984375 0 "/></g></g></g><g fill="#98523c" fill-opacity="1"><g transform="translate(82.851359, 94.150919)"><g><path d="M 3.921875 0.125 C 2.929688 0.125 2.15625 -0.1875 1.59375 -0.8125 C 1.03125 -1.4375 0.75 -2.304688 0.75 -3.421875 C 0.75 -4.566406 1.039062 -5.457031 1.625 -6.09375 C 2.207031 -6.726562 3.003906 -7.046875 4.015625 -7.046875 C 4.609375 -7.046875 5.179688 -6.941406 5.734375 -6.734375 L 5.5625 -6.171875 C 4.957031 -6.378906 4.4375 -6.484375 4 -6.484375 C 3.15625 -6.484375 2.515625 -6.21875 2.078125 -5.6875 C 1.640625 -5.164062 1.421875 -4.410156 1.421875 -3.421875 C 1.421875 -2.492188 1.640625 -1.765625 2.078125 -1.234375 C 2.515625 -0.710938 3.125 -0.453125 3.90625 -0.453125 C 4.53125 -0.453125 5.113281 -0.5625 5.65625 -0.78125 L 5.65625 -0.203125 C 5.21875 0.015625 4.640625 0.125 3.921875 0.125 Z M 3.921875 0.125 "/></g></g></g><g fill="#98523c" fill-opacity="1"><g transform="translate(91.628569, 94.150919)"><g><path d="M 6.875 -3.46875 C 6.875 -2.34375 6.597656 -1.460938 6.046875 -0.828125 C 5.503906 -0.191406 4.753906 0.125 3.796875 0.125 C 3.179688 0.125 2.644531 -0.0195312 2.1875 -0.3125 C 1.726562 -0.601562 1.375 -1.019531 1.125 -1.5625 C 0.875 -2.113281 0.75 -2.75 0.75 -3.46875 C 0.75 -4.59375 1.023438 -5.46875 1.578125 -6.09375 C 2.128906 -6.726562 2.878906 -7.046875 3.828125 -7.046875 C 4.773438 -7.046875 5.519531 -6.726562 6.0625 -6.09375 C 6.601562 -5.457031 6.875 -4.582031 6.875 -3.46875 Z M 1.421875 -3.46875 C 1.421875 -2.519531 1.628906 -1.78125 2.046875 -1.25 C 2.460938 -0.71875 3.050781 -0.453125 3.8125 -0.453125 C 4.582031 -0.453125 5.175781 -0.71875 5.59375 -1.25 C 6.007812 -1.78125 6.21875 -2.519531 6.21875 -3.46875 C 6.21875 -4.425781 6.003906 -5.164062 5.578125 -5.6875 C 5.160156 -6.21875 4.570312 -6.484375 3.8125 -6.484375 C 3.039062 -6.484375 2.445312 -6.21875 2.03125 -5.6875 C 1.625 -5.164062 1.421875 -4.425781 1.421875 -3.46875 Z M 1.421875 -3.46875 "/></g></g></g><g fill="#98523c" fill-opacity="1"><g transform="translate(101.848661, 94.150919)"><g><path d="M 3.875 -7.046875 C 4.175781 -7.046875 4.492188 -7.019531 4.828125 -6.96875 L 4.703125 -6.359375 C 4.410156 -6.429688 4.113281 -6.46875 3.8125 -6.46875 C 3.21875 -6.46875 2.726562 -6.21875 2.34375 -5.71875 C 1.96875 -5.21875 1.78125 -4.582031 1.78125 -3.8125 L 1.78125 0 L 1.15625 0 L 1.15625 -6.921875 L 1.6875 -6.921875 L 1.75 -5.671875 L 1.796875 -5.671875 C 2.085938 -6.179688 2.390625 -6.535156 2.703125 -6.734375 C 3.023438 -6.941406 3.414062 -7.046875 3.875 -7.046875 Z M 3.875 -7.046875 "/></g></g></g><g fill="#98523c" fill-opacity="1"><g transform="translate(109.507161, 94.150919)"><g><path d="M 4.109375 0.125 C 3.046875 0.125 2.269531 -0.269531 1.78125 -1.0625 L 1.75 -1.0625 L 1.765625 -0.53125 C 1.773438 -0.21875 1.78125 0.125 1.78125 0.5 L 1.78125 3.125 L 1.15625 3.125 L 1.15625 -6.921875 L 1.6875 -6.921875 L 1.8125 -5.9375 L 1.859375 -5.9375 C 2.328125 -6.675781 3.082031 -7.046875 4.125 -7.046875 C 5.0625 -7.046875 5.773438 -6.738281 6.265625 -6.125 C 6.753906 -5.519531 7 -4.628906 7 -3.453125 C 7 -2.316406 6.738281 -1.4375 6.21875 -0.8125 C 5.707031 -0.1875 5.003906 0.125 4.109375 0.125 Z M 4.109375 -0.4375 C 4.816406 -0.4375 5.363281 -0.695312 5.75 -1.21875 C 6.132812 -1.75 6.328125 -2.484375 6.328125 -3.421875 C 6.328125 -5.460938 5.59375 -6.484375 4.125 -6.484375 C 3.320312 -6.484375 2.726562 -6.257812 2.34375 -5.8125 C 1.96875 -5.363281 1.78125 -4.640625 1.78125 -3.640625 L 1.78125 -3.4375 C 1.78125 -2.351562 1.960938 -1.582031 2.328125 -1.125 C 2.691406 -0.664062 3.285156 -0.4375 4.109375 -0.4375 Z M 4.109375 -0.4375 "/></g></g></g><g fill="#98523c" fill-opacity="1"><g transform="translate(119.848028, 94.150919)"><g><path d="M 6.875 -3.46875 C 6.875 -2.34375 6.597656 -1.460938 6.046875 -0.828125 C 5.503906 -0.191406 4.753906 0.125 3.796875 0.125 C 3.179688 0.125 2.644531 -0.0195312 2.1875 -0.3125 C 1.726562 -0.601562 1.375 -1.019531 1.125 -1.5625 C 0.875 -2.113281 0.75 -2.75 0.75 -3.46875 C 0.75 -4.59375 1.023438 -5.46875 1.578125 -6.09375 C 2.128906 -6.726562 2.878906 -7.046875 3.828125 -7.046875 C 4.773438 -7.046875 5.519531 -6.726562 6.0625 -6.09375 C 6.601562 -5.457031 6.875 -4.582031 6.875 -3.46875 Z M 1.421875 -3.46875 C 1.421875 -2.519531 1.628906 -1.78125 2.046875 -1.25 C 2.460938 -0.71875 3.050781 -0.453125 3.8125 -0.453125 C 4.582031 -0.453125 5.175781 -0.71875 5.59375 -1.25 C 6.007812 -1.78125 6.21875 -2.519531 6.21875 -3.46875 C 6.21875 -4.425781 6.003906 -5.164062 5.578125 -5.6875 C 5.160156 -6.21875 4.570312 -6.484375 3.8125 -6.484375 C 3.039062 -6.484375 2.445312 -6.21875 2.03125 -5.6875 C 1.625 -5.164062 1.421875 -4.425781 1.421875 -3.46875 Z M 1.421875 -3.46875 "/></g></g></g><g fill="#98523c" fill-opacity="1"><g transform="translate(130.068121, 94.150919)"><g><path d="M 3.875 -7.046875 C 4.175781 -7.046875 4.492188 -7.019531 4.828125 -6.96875 L 4.703125 -6.359375 C 4.410156 -6.429688 4.113281 -6.46875 3.8125 -6.46875 C 3.21875 -6.46875 2.726562 -6.21875 2.34375 -5.71875 C 1.96875 -5.21875 1.78125 -4.582031 1.78125 -3.8125 L 1.78125 0 L 1.15625 0 L 1.15625 -6.921875 L 1.6875 -6.921875 L 1.75 -5.671875 L 1.796875 -5.671875 C 2.085938 -6.179688 2.390625 -6.535156 2.703125 -6.734375 C 3.023438 -6.941406 3.414062 -7.046875 3.875 -7.046875 Z M 3.875 -7.046875 "/></g></g></g><g fill="#98523c" fill-opacity="1"><g transform="translate(137.726621, 94.150919)"><g><path d="M 5.359375 0 L 5.203125 -1.09375 L 5.140625 -1.09375 C 4.796875 -0.644531 4.441406 -0.328125 4.078125 -0.140625 C 3.710938 0.0351562 3.28125 0.125 2.78125 0.125 C 2.09375 0.125 1.5625 -0.046875 1.1875 -0.390625 C 0.8125 -0.742188 0.625 -1.226562 0.625 -1.84375 C 0.625 -2.507812 0.90625 -3.03125 1.46875 -3.40625 C 2.03125 -3.78125 2.84375 -3.976562 3.90625 -4 L 5.21875 -4.046875 L 5.21875 -4.5 C 5.21875 -5.15625 5.082031 -5.648438 4.8125 -5.984375 C 4.550781 -6.316406 4.125 -6.484375 3.53125 -6.484375 C 2.894531 -6.484375 2.234375 -6.304688 1.546875 -5.953125 L 1.296875 -6.5 C 2.054688 -6.851562 2.8125 -7.03125 3.5625 -7.03125 C 4.320312 -7.03125 4.890625 -6.832031 5.265625 -6.4375 C 5.640625 -6.050781 5.828125 -5.4375 5.828125 -4.59375 L 5.828125 0 Z M 2.8125 -0.453125 C 3.550781 -0.453125 4.132812 -0.660156 4.5625 -1.078125 C 4.988281 -1.503906 5.203125 -2.09375 5.203125 -2.84375 L 5.203125 -3.515625 L 3.984375 -3.46875 C 3.015625 -3.414062 2.320312 -3.257812 1.90625 -3 C 1.5 -2.75 1.296875 -2.351562 1.296875 -1.8125 C 1.296875 -1.382812 1.425781 -1.050781 1.6875 -0.8125 C 1.957031 -0.570312 2.332031 -0.453125 2.8125 -0.453125 Z M 2.8125 -0.453125 "/></g></g></g><g fill="#98523c" fill-opacity="1"><g transform="translate(147.215741, 94.150919)"><g><path d="M 3.6875 -7.046875 C 4.1875 -7.046875 4.617188 -6.953125 4.984375 -6.765625 C 5.347656 -6.585938 5.675781 -6.28125 5.96875 -5.84375 L 6 -5.84375 C 5.976562 -6.375 5.96875 -6.894531 5.96875 -7.40625 L 5.96875 -9.90625 L 6.59375 -9.90625 L 6.59375 0 L 6.171875 0 L 6.015625 -1.0625 L 5.96875 -1.0625 C 5.4375 -0.269531 4.679688 0.125 3.703125 0.125 C 2.742188 0.125 2.007812 -0.171875 1.5 -0.765625 C 1 -1.359375 0.75 -2.222656 0.75 -3.359375 C 0.75 -4.554688 1 -5.46875 1.5 -6.09375 C 2.007812 -6.726562 2.738281 -7.046875 3.6875 -7.046875 Z M 3.6875 -6.484375 C 2.9375 -6.484375 2.367188 -6.21875 1.984375 -5.6875 C 1.609375 -5.15625 1.421875 -4.382812 1.421875 -3.375 C 1.421875 -1.414062 2.179688 -0.4375 3.703125 -0.4375 C 4.484375 -0.4375 5.054688 -0.660156 5.421875 -1.109375 C 5.785156 -1.566406 5.96875 -2.316406 5.96875 -3.359375 L 5.96875 -3.46875 C 5.96875 -4.539062 5.785156 -5.3125 5.421875 -5.78125 C 5.066406 -6.25 4.488281 -6.484375 3.6875 -6.484375 Z M 3.6875 -6.484375 "/></g></g></g><g fill="#98523c" fill-opacity="1"><g transform="translate(157.556604, 94.150919)"><g><path d="M 6.875 -3.46875 C 6.875 -2.34375 6.597656 -1.460938 6.046875 -0.828125 C 5.503906 -0.191406 4.753906 0.125 3.796875 0.125 C 3.179688 0.125 2.644531 -0.0195312 2.1875 -0.3125 C 1.726562 -0.601562 1.375 -1.019531 1.125 -1.5625 C 0.875 -2.113281 0.75 -2.75 0.75 -3.46875 C 0.75 -4.59375 1.023438 -5.46875 1.578125 -6.09375 C 2.128906 -6.726562 2.878906 -7.046875 3.828125 -7.046875 C 4.773438 -7.046875 5.519531 -6.726562 6.0625 -6.09375 C 6.601562 -5.457031 6.875 -4.582031 6.875 -3.46875 Z M 1.421875 -3.46875 C 1.421875 -2.519531 1.628906 -1.78125 2.046875 -1.25 C 2.460938 -0.71875 3.050781 -0.453125 3.8125 -0.453125 C 4.582031 -0.453125 5.175781 -0.71875 5.59375 -1.25 C 6.007812 -1.78125 6.21875 -2.519531 6.21875 -3.46875 C 6.21875 -4.425781 6.003906 -5.164062 5.578125 -5.6875 C 5.160156 -6.21875 4.570312 -6.484375 3.8125 -6.484375 C 3.039062 -6.484375 2.445312 -6.21875 2.03125 -5.6875 C 1.625 -5.164062 1.421875 -4.425781 1.421875 -3.46875 Z M 1.421875 -3.46875 "/></g></g></g><g fill="#98523c" fill-opacity="1"><g transform="translate(167.776692, 94.150919)"><g><path d="M 3.875 -7.046875 C 4.175781 -7.046875 4.492188 -7.019531 4.828125 -6.96875 L 4.703125 -6.359375 C 4.410156 -6.429688 4.113281 -6.46875 3.8125 -6.46875 C 3.21875 -6.46875 2.726562 -6.21875 2.34375 -5.71875 C 1.96875 -5.21875 1.78125 -4.582031 1.78125 -3.8125 L 1.78125 0 L 1.15625 0 L 1.15625 -6.921875 L 1.6875 -6.921875 L 1.75 -5.671875 L 1.796875 -5.671875 C 2.085938 -6.179688 2.390625 -6.535156 2.703125 -6.734375 C 3.023438 -6.941406 3.414062 -7.046875 3.875 -7.046875 Z M 3.875 -7.046875 "/></g></g></g><g fill="#98523c" fill-opacity="1"><g transform="translate(175.435187, 94.150919)"><g><path d="M 5.359375 0 L 5.203125 -1.09375 L 5.140625 -1.09375 C 4.796875 -0.644531 4.441406 -0.328125 4.078125 -0.140625 C 3.710938 0.0351562 3.28125 0.125 2.78125 0.125 C 2.09375 0.125 1.5625 -0.046875 1.1875 -0.390625 C 0.8125 -0.742188 0.625 -1.226562 0.625 -1.84375 C 0.625 -2.507812 0.90625 -3.03125 1.46875 -3.40625 C 2.03125 -3.78125 2.84375 -3.976562 3.90625 -4 L 5.21875 -4.046875 L 5.21875 -4.5 C 5.21875 -5.15625 5.082031 -5.648438 4.8125 -5.984375 C 4.550781 -6.316406 4.125 -6.484375 3.53125 -6.484375 C 2.894531 -6.484375 2.234375 -6.304688 1.546875 -5.953125 L 1.296875 -6.5 C 2.054688 -6.851562 2.8125 -7.03125 3.5625 -7.03125 C 4.320312 -7.03125 4.890625 -6.832031 5.265625 -6.4375 C 5.640625 -6.050781 5.828125 -5.4375 5.828125 -4.59375 L 5.828125 0 Z M 2.8125 -0.453125 C 3.550781 -0.453125 4.132812 -0.660156 4.5625 -1.078125 C 4.988281 -1.503906 5.203125 -2.09375 5.203125 -2.84375 L 5.203125 -3.515625 L 3.984375 -3.46875 C 3.015625 -3.414062 2.320312 -3.257812 1.90625 -3 C 1.5 -2.75 1.296875 -2.351562 1.296875 -1.8125 C 1.296875 -1.382812 1.425781 -1.050781 1.6875 -0.8125 C 1.957031 -0.570312 2.332031 -0.453125 2.8125 -0.453125 Z M 2.8125 -0.453125 "/></g></g></g><g clip-path="url(#3c7db42f9a)"><path fill="#98523c" d="M 472.292969 73.085938 L 472.292969 189.15625 L 477.289062 189.15625 L 477.289062 73.085938 Z M 472.292969 73.085938 " fill-opacity="1" fill-rule="nonzero"/></g></svg>