<?xml version="1.0" encoding="utf-8"?>
<!-- Generator: Adobe Illustrator 23.0.1, SVG Export Plug-In . SVG Version: 6.00 Build 0)  -->
<svg version="1.1" id="Layer_1" xmlns="http://www.w3.org/2000/svg" xmlns:xlink="http://www.w3.org/1999/xlink" x="0px" y="0px"
	 viewBox="0 0 1683.8 595.3" style="enable-background:new 0 0 1683.8 595.3;" xml:space="preserve">
<path d="M347.4,278.2c3.3-28.9,15.7-50.3,45.7-50.3c29.9,0,43.4,21.3,46.6,50.3H347.4z M494.2,315c0,0,18.4,0,18.4-18.4
	c0-67.4-42.6-113.5-123.8-113.5c-81.2,0-123.8,44.8-123.8,112.8c0,68,42.6,112.8,123.8,112.8c54.1,0,91-19.9,109.7-53.2
	c0,0,1-1.6,1-3.9c0-4.4-3.6-8.1-8.1-8.1H431c-7.2,12.6-19.8,20.4-37.9,20.4c-29.5,0-42-20.7-45.5-48.9H494.2z"/>
<path d="M835.9,278.2c3.3-28.9,15.7-50.3,45.7-50.3c29.9,0,43.3,21.3,46.6,50.3H835.9z M982.6,315c0,0,18.4,0,18.4-18.4
	c0-67.4-42.6-113.5-123.8-113.5c-81.2,0-123.8,44.8-123.8,112.8c0,68,42.6,112.8,123.8,112.8c54.1,0,91-19.9,109.7-53.2
	c0,0,1-1.6,1-3.9c0-4.4-3.6-8.1-8.1-8.1h-60.3c-7.2,12.6-19.8,20.4-37.9,20.4c-29.5,0-42-20.7-45.5-48.9H982.6z"/>
<path d="M520.8,400.1V200.9c0-18.4,18.4-18.4,18.4-18.4h63.1v225.7h-73.5C528.9,408.2,520.8,408.2,520.8,400.1"/>
<path d="M614.5,408.8l177.9-225.7h-58.8c0,0-18.4,0-32.9,18.4l-86.1,109.3V408.8z"/>
<path d="M1094.7,400.7c0,8.1-8.1,8.1-8.1,8.1h-73.5V183.1h63.1c0,0,18.4,0,18.4,18.4v10.1c17.3-18.7,42.9-28.5,71.6-28.5
	c52.2,0,94.4,39.3,94.4,87.8v129.8c0,8.1-8.1,8.1-8.1,8.1h-73.5V288.9c0-23.3-18.9-42.2-42.2-42.2c-23.3,0-42.2,18.9-42.2,42.2
	V400.7z"/>
</svg>
