<svg xmlns="http://www.w3.org/2000/svg" xmlns:xlink="http://www.w3.org/1999/xlink" width="500" zoomAndPan="magnify" viewBox="0 0 375 374.999991" height="500" preserveAspectRatio="xMidYMid meet" version="1.0"><defs><g/></defs><path fill="#98523c" d="M 81.8125 182.160156 C 82.585938 175.351562 85.503906 170.3125 92.554688 170.3125 C 99.585938 170.3125 102.761719 175.328125 103.511719 182.160156 Z M 116.328125 190.832031 C 116.328125 190.832031 120.652344 190.832031 120.652344 186.496094 C 120.652344 170.617188 110.636719 159.757812 91.546875 159.757812 C 72.453125 159.757812 62.4375 170.3125 62.4375 186.332031 C 62.4375 202.351562 72.453125 212.902344 91.546875 212.902344 C 104.265625 212.902344 112.941406 208.214844 117.335938 200.371094 C 117.335938 200.371094 117.574219 199.996094 117.574219 199.453125 C 117.574219 198.414062 116.726562 197.542969 115.667969 197.542969 L 101.46875 197.542969 C 99.773438 200.511719 96.8125 202.351562 92.554688 202.351562 C 85.621094 202.351562 82.679688 197.472656 81.859375 190.832031 Z M 116.328125 190.832031 " fill-opacity="1" fill-rule="nonzero"/><path fill="#98523c" d="M 196.667969 182.160156 C 197.441406 175.351562 200.359375 170.3125 207.414062 170.3125 C 214.441406 170.3125 217.59375 175.328125 218.367188 182.160156 Z M 231.160156 190.832031 C 231.160156 190.832031 235.484375 190.832031 235.484375 186.496094 C 235.484375 170.617188 225.46875 159.757812 206.378906 159.757812 C 187.285156 159.757812 177.269531 170.3125 177.269531 186.332031 C 177.269531 202.351562 187.285156 212.902344 206.378906 212.902344 C 219.097656 212.902344 227.773438 208.214844 232.171875 200.371094 C 232.171875 200.371094 232.40625 199.996094 232.40625 199.453125 C 232.40625 198.414062 231.558594 197.542969 230.5 197.542969 L 216.324219 197.542969 C 214.628906 200.511719 211.667969 202.351562 207.414062 202.351562 C 200.476562 202.351562 197.539062 197.472656 196.714844 190.832031 Z M 231.160156 190.832031 " fill-opacity="1" fill-rule="nonzero"/><path fill="#98523c" d="M 122.582031 210.878906 L 122.582031 163.949219 C 122.582031 159.617188 126.90625 159.617188 126.90625 159.617188 L 141.742188 159.617188 L 141.742188 212.785156 L 124.460938 212.785156 C 124.484375 212.785156 122.582031 212.785156 122.582031 210.878906 " fill-opacity="1" fill-rule="nonzero"/><path fill="#98523c" d="M 144.613281 212.925781 L 186.441406 159.757812 L 172.613281 159.757812 C 172.613281 159.757812 168.289062 159.757812 164.878906 164.09375 L 144.636719 189.839844 L 144.636719 212.925781 Z M 144.613281 212.925781 " fill-opacity="1" fill-rule="nonzero"/><path fill="#98523c" d="M 257.515625 211.019531 C 257.515625 212.925781 255.613281 212.925781 255.613281 212.925781 L 238.332031 212.925781 L 238.332031 159.757812 L 253.167969 159.757812 C 253.167969 159.757812 257.492188 159.757812 257.492188 164.09375 L 257.492188 166.472656 C 261.558594 162.066406 267.578125 159.757812 274.328125 159.757812 C 286.601562 159.757812 296.523438 169.015625 296.523438 180.441406 L 296.523438 211.019531 C 296.523438 212.925781 294.617188 212.925781 294.617188 212.925781 L 277.335938 212.925781 L 277.335938 184.683594 C 277.335938 179.191406 272.894531 174.742188 267.414062 174.742188 C 261.9375 174.742188 257.492188 179.191406 257.492188 184.683594 L 257.492188 211.019531 Z M 257.515625 211.019531 " fill-opacity="1" fill-rule="nonzero"/><g fill="#98523c" fill-opacity="1"><g transform="translate(94.889549, 146.531872)"><g><path d="M 2.53125 0 L 1.640625 0 L 1.640625 -9.8125 L 2.53125 -9.8125 Z M 1.515625 -12.546875 C 1.515625 -13.128906 1.707031 -13.421875 2.09375 -13.421875 C 2.269531 -13.421875 2.410156 -13.34375 2.515625 -13.1875 C 2.628906 -13.039062 2.6875 -12.828125 2.6875 -12.546875 C 2.6875 -12.273438 2.628906 -12.0625 2.515625 -11.90625 C 2.410156 -11.75 2.269531 -11.671875 2.09375 -11.671875 C 1.707031 -11.671875 1.515625 -11.960938 1.515625 -12.546875 Z M 1.515625 -12.546875 "/></g></g></g><g fill="#98523c" fill-opacity="1"><g transform="translate(102.749067, 146.531872)"><g><path d="M 8.484375 0 L 8.484375 -6.375 C 8.484375 -7.351562 8.273438 -8.066406 7.859375 -8.515625 C 7.453125 -8.972656 6.8125 -9.203125 5.9375 -9.203125 C 4.757812 -9.203125 3.894531 -8.90625 3.34375 -8.3125 C 2.800781 -7.71875 2.53125 -6.753906 2.53125 -5.421875 L 2.53125 0 L 1.640625 0 L 1.640625 -9.8125 L 2.40625 -9.8125 L 2.578125 -8.46875 L 2.625 -8.46875 C 3.269531 -9.5 4.40625 -10.015625 6.03125 -10.015625 C 8.257812 -10.015625 9.375 -8.816406 9.375 -6.421875 L 9.375 0 Z M 8.484375 0 "/></g></g></g><g fill="#98523c" fill-opacity="1"><g transform="translate(117.332185, 146.531872)"><g><path d="M 5.5625 0.1875 C 4.15625 0.1875 3.054688 -0.253906 2.265625 -1.140625 C 1.472656 -2.023438 1.078125 -3.257812 1.078125 -4.84375 C 1.078125 -6.476562 1.488281 -7.75 2.3125 -8.65625 C 3.132812 -9.5625 4.265625 -10.015625 5.703125 -10.015625 C 6.546875 -10.015625 7.359375 -9.863281 8.140625 -9.5625 L 7.890625 -8.765625 C 7.046875 -9.054688 6.3125 -9.203125 5.6875 -9.203125 C 4.476562 -9.203125 3.5625 -8.828125 2.9375 -8.078125 C 2.320312 -7.335938 2.015625 -6.269531 2.015625 -4.875 C 2.015625 -3.539062 2.320312 -2.5 2.9375 -1.75 C 3.5625 -1 4.429688 -0.625 5.546875 -0.625 C 6.441406 -0.625 7.269531 -0.785156 8.03125 -1.109375 L 8.03125 -0.28125 C 7.40625 0.03125 6.582031 0.1875 5.5625 0.1875 Z M 5.5625 0.1875 "/></g></g></g><g fill="#98523c" fill-opacity="1"><g transform="translate(129.794438, 146.531872)"><g><path d="M 9.765625 -4.921875 C 9.765625 -3.316406 9.375 -2.0625 8.59375 -1.15625 C 7.820312 -0.257812 6.753906 0.1875 5.390625 0.1875 C 4.523438 0.1875 3.765625 -0.0195312 3.109375 -0.4375 C 2.453125 -0.851562 1.945312 -1.445312 1.59375 -2.21875 C 1.25 -3 1.078125 -3.898438 1.078125 -4.921875 C 1.078125 -6.523438 1.460938 -7.773438 2.234375 -8.671875 C 3.015625 -9.566406 4.082031 -10.015625 5.4375 -10.015625 C 6.789062 -10.015625 7.847656 -9.5625 8.609375 -8.65625 C 9.378906 -7.75 9.765625 -6.503906 9.765625 -4.921875 Z M 2.015625 -4.921875 C 2.015625 -3.578125 2.3125 -2.523438 2.90625 -1.765625 C 3.5 -1.003906 4.335938 -0.625 5.421875 -0.625 C 6.503906 -0.625 7.34375 -1.003906 7.9375 -1.765625 C 8.53125 -2.523438 8.828125 -3.578125 8.828125 -4.921875 C 8.828125 -6.273438 8.523438 -7.328125 7.921875 -8.078125 C 7.328125 -8.828125 6.488281 -9.203125 5.40625 -9.203125 C 4.320312 -9.203125 3.484375 -8.828125 2.890625 -8.078125 C 2.304688 -7.335938 2.015625 -6.285156 2.015625 -4.921875 Z M 2.015625 -4.921875 "/></g></g></g><g fill="#98523c" fill-opacity="1"><g transform="translate(144.305357, 146.531872)"><g><path d="M 5.515625 -10.015625 C 5.929688 -10.015625 6.375 -9.96875 6.84375 -9.875 L 6.671875 -9.03125 C 6.265625 -9.125 5.84375 -9.171875 5.40625 -9.171875 C 4.5625 -9.171875 3.867188 -8.816406 3.328125 -8.109375 C 2.796875 -7.398438 2.53125 -6.503906 2.53125 -5.421875 L 2.53125 0 L 1.640625 0 L 1.640625 -9.8125 L 2.40625 -9.8125 L 2.5 -8.046875 L 2.5625 -8.046875 C 2.957031 -8.765625 3.382812 -9.269531 3.84375 -9.5625 C 4.300781 -9.863281 4.859375 -10.015625 5.515625 -10.015625 Z M 5.515625 -10.015625 "/></g></g></g><g fill="#98523c" fill-opacity="1"><g transform="translate(155.179218, 146.531872)"><g><path d="M 5.84375 0.1875 C 4.332031 0.1875 3.226562 -0.378906 2.53125 -1.515625 L 2.46875 -1.515625 L 2.5 -0.765625 C 2.519531 -0.316406 2.53125 0.171875 2.53125 0.703125 L 2.53125 4.4375 L 1.640625 4.4375 L 1.640625 -9.8125 L 2.40625 -9.8125 L 2.578125 -8.421875 L 2.625 -8.421875 C 3.300781 -9.484375 4.378906 -10.015625 5.859375 -10.015625 C 7.179688 -10.015625 8.191406 -9.578125 8.890625 -8.703125 C 9.585938 -7.828125 9.9375 -6.5625 9.9375 -4.90625 C 9.9375 -3.289062 9.566406 -2.035156 8.828125 -1.140625 C 8.097656 -0.253906 7.101562 0.1875 5.84375 0.1875 Z M 5.828125 -0.609375 C 6.828125 -0.609375 7.601562 -0.984375 8.15625 -1.734375 C 8.707031 -2.484375 8.984375 -3.53125 8.984375 -4.875 C 8.984375 -7.757812 7.941406 -9.203125 5.859375 -9.203125 C 4.710938 -9.203125 3.867188 -8.882812 3.328125 -8.25 C 2.796875 -7.625 2.53125 -6.597656 2.53125 -5.171875 L 2.53125 -4.890625 C 2.53125 -3.347656 2.785156 -2.25 3.296875 -1.59375 C 3.816406 -0.9375 4.660156 -0.609375 5.828125 -0.609375 Z M 5.828125 -0.609375 "/></g></g></g><g fill="#98523c" fill-opacity="1"><g transform="translate(169.861618, 146.531872)"><g><path d="M 9.765625 -4.921875 C 9.765625 -3.316406 9.375 -2.0625 8.59375 -1.15625 C 7.820312 -0.257812 6.753906 0.1875 5.390625 0.1875 C 4.523438 0.1875 3.765625 -0.0195312 3.109375 -0.4375 C 2.453125 -0.851562 1.945312 -1.445312 1.59375 -2.21875 C 1.25 -3 1.078125 -3.898438 1.078125 -4.921875 C 1.078125 -6.523438 1.460938 -7.773438 2.234375 -8.671875 C 3.015625 -9.566406 4.082031 -10.015625 5.4375 -10.015625 C 6.789062 -10.015625 7.847656 -9.5625 8.609375 -8.65625 C 9.378906 -7.75 9.765625 -6.503906 9.765625 -4.921875 Z M 2.015625 -4.921875 C 2.015625 -3.578125 2.3125 -2.523438 2.90625 -1.765625 C 3.5 -1.003906 4.335938 -0.625 5.421875 -0.625 C 6.503906 -0.625 7.34375 -1.003906 7.9375 -1.765625 C 8.53125 -2.523438 8.828125 -3.578125 8.828125 -4.921875 C 8.828125 -6.273438 8.523438 -7.328125 7.921875 -8.078125 C 7.328125 -8.828125 6.488281 -9.203125 5.40625 -9.203125 C 4.320312 -9.203125 3.484375 -8.828125 2.890625 -8.078125 C 2.304688 -7.335938 2.015625 -6.285156 2.015625 -4.921875 Z M 2.015625 -4.921875 "/></g></g></g><g fill="#98523c" fill-opacity="1"><g transform="translate(184.372537, 146.531872)"><g><path d="M 5.515625 -10.015625 C 5.929688 -10.015625 6.375 -9.96875 6.84375 -9.875 L 6.671875 -9.03125 C 6.265625 -9.125 5.84375 -9.171875 5.40625 -9.171875 C 4.5625 -9.171875 3.867188 -8.816406 3.328125 -8.109375 C 2.796875 -7.398438 2.53125 -6.503906 2.53125 -5.421875 L 2.53125 0 L 1.640625 0 L 1.640625 -9.8125 L 2.40625 -9.8125 L 2.5 -8.046875 L 2.5625 -8.046875 C 2.957031 -8.765625 3.382812 -9.269531 3.84375 -9.5625 C 4.300781 -9.863281 4.859375 -10.015625 5.515625 -10.015625 Z M 5.515625 -10.015625 "/></g></g></g><g fill="#98523c" fill-opacity="1"><g transform="translate(195.246398, 146.531872)"><g><path d="M 7.609375 0 L 7.375 -1.546875 L 7.3125 -1.546875 C 6.8125 -0.921875 6.300781 -0.472656 5.78125 -0.203125 C 5.257812 0.0546875 4.644531 0.1875 3.9375 0.1875 C 2.976562 0.1875 2.226562 -0.0546875 1.6875 -0.546875 C 1.15625 -1.046875 0.890625 -1.734375 0.890625 -2.609375 C 0.890625 -3.566406 1.285156 -4.3125 2.078125 -4.84375 C 2.878906 -5.375 4.035156 -5.65625 5.546875 -5.6875 L 7.421875 -5.734375 L 7.421875 -6.390625 C 7.421875 -7.316406 7.226562 -8.019531 6.84375 -8.5 C 6.46875 -8.976562 5.859375 -9.21875 5.015625 -9.21875 C 4.109375 -9.21875 3.164062 -8.960938 2.1875 -8.453125 L 1.859375 -9.234375 C 2.929688 -9.734375 3.992188 -9.984375 5.046875 -9.984375 C 6.128906 -9.984375 6.9375 -9.703125 7.46875 -9.140625 C 8 -8.585938 8.265625 -7.71875 8.265625 -6.53125 L 8.265625 0 Z M 4 -0.625 C 5.039062 -0.625 5.863281 -0.925781 6.46875 -1.53125 C 7.070312 -2.132812 7.375 -2.96875 7.375 -4.03125 L 7.375 -5 L 5.65625 -4.921875 C 4.28125 -4.859375 3.296875 -4.644531 2.703125 -4.28125 C 2.117188 -3.914062 1.828125 -3.347656 1.828125 -2.578125 C 1.828125 -1.960938 2.015625 -1.484375 2.390625 -1.140625 C 2.773438 -0.796875 3.3125 -0.625 4 -0.625 Z M 4 -0.625 "/></g></g></g><g fill="#98523c" fill-opacity="1"><g transform="translate(208.719451, 146.531872)"><g><path d="M 5.234375 -10.015625 C 5.953125 -10.015625 6.566406 -9.882812 7.078125 -9.625 C 7.597656 -9.363281 8.0625 -8.921875 8.46875 -8.296875 L 8.53125 -8.296875 C 8.488281 -9.054688 8.46875 -9.800781 8.46875 -10.53125 L 8.46875 -14.0625 L 9.359375 -14.0625 L 9.359375 0 L 8.765625 0 L 8.546875 -1.5 L 8.46875 -1.5 C 7.726562 -0.375 6.65625 0.1875 5.25 0.1875 C 3.894531 0.1875 2.859375 -0.234375 2.140625 -1.078125 C 1.429688 -1.921875 1.078125 -3.148438 1.078125 -4.765625 C 1.078125 -6.460938 1.429688 -7.757812 2.140625 -8.65625 C 2.847656 -9.5625 3.878906 -10.015625 5.234375 -10.015625 Z M 5.234375 -9.203125 C 4.160156 -9.203125 3.351562 -8.820312 2.8125 -8.0625 C 2.28125 -7.3125 2.015625 -6.21875 2.015625 -4.78125 C 2.015625 -2 3.09375 -0.609375 5.25 -0.609375 C 6.363281 -0.609375 7.175781 -0.929688 7.6875 -1.578125 C 8.207031 -2.222656 8.46875 -3.285156 8.46875 -4.765625 L 8.46875 -4.921875 C 8.46875 -6.441406 8.210938 -7.535156 7.703125 -8.203125 C 7.203125 -8.867188 6.378906 -9.203125 5.234375 -9.203125 Z M 5.234375 -9.203125 "/></g></g></g><g fill="#98523c" fill-opacity="1"><g transform="translate(223.401845, 146.531872)"><g><path d="M 9.765625 -4.921875 C 9.765625 -3.316406 9.375 -2.0625 8.59375 -1.15625 C 7.820312 -0.257812 6.753906 0.1875 5.390625 0.1875 C 4.523438 0.1875 3.765625 -0.0195312 3.109375 -0.4375 C 2.453125 -0.851562 1.945312 -1.445312 1.59375 -2.21875 C 1.25 -3 1.078125 -3.898438 1.078125 -4.921875 C 1.078125 -6.523438 1.460938 -7.773438 2.234375 -8.671875 C 3.015625 -9.566406 4.082031 -10.015625 5.4375 -10.015625 C 6.789062 -10.015625 7.847656 -9.5625 8.609375 -8.65625 C 9.378906 -7.75 9.765625 -6.503906 9.765625 -4.921875 Z M 2.015625 -4.921875 C 2.015625 -3.578125 2.3125 -2.523438 2.90625 -1.765625 C 3.5 -1.003906 4.335938 -0.625 5.421875 -0.625 C 6.503906 -0.625 7.34375 -1.003906 7.9375 -1.765625 C 8.53125 -2.523438 8.828125 -3.578125 8.828125 -4.921875 C 8.828125 -6.273438 8.523438 -7.328125 7.921875 -8.078125 C 7.328125 -8.828125 6.488281 -9.203125 5.40625 -9.203125 C 4.320312 -9.203125 3.484375 -8.828125 2.890625 -8.078125 C 2.304688 -7.335938 2.015625 -6.285156 2.015625 -4.921875 Z M 2.015625 -4.921875 "/></g></g></g><g fill="#98523c" fill-opacity="1"><g transform="translate(237.912758, 146.531872)"><g><path d="M 5.515625 -10.015625 C 5.929688 -10.015625 6.375 -9.96875 6.84375 -9.875 L 6.671875 -9.03125 C 6.265625 -9.125 5.84375 -9.171875 5.40625 -9.171875 C 4.5625 -9.171875 3.867188 -8.816406 3.328125 -8.109375 C 2.796875 -7.398438 2.53125 -6.503906 2.53125 -5.421875 L 2.53125 0 L 1.640625 0 L 1.640625 -9.8125 L 2.40625 -9.8125 L 2.5 -8.046875 L 2.5625 -8.046875 C 2.957031 -8.765625 3.382812 -9.269531 3.84375 -9.5625 C 4.300781 -9.863281 4.859375 -10.015625 5.515625 -10.015625 Z M 5.515625 -10.015625 "/></g></g></g><g fill="#98523c" fill-opacity="1"><g transform="translate(248.786612, 146.531872)"><g><path d="M 7.609375 0 L 7.375 -1.546875 L 7.3125 -1.546875 C 6.8125 -0.921875 6.300781 -0.472656 5.78125 -0.203125 C 5.257812 0.0546875 4.644531 0.1875 3.9375 0.1875 C 2.976562 0.1875 2.226562 -0.0546875 1.6875 -0.546875 C 1.15625 -1.046875 0.890625 -1.734375 0.890625 -2.609375 C 0.890625 -3.566406 1.285156 -4.3125 2.078125 -4.84375 C 2.878906 -5.375 4.035156 -5.65625 5.546875 -5.6875 L 7.421875 -5.734375 L 7.421875 -6.390625 C 7.421875 -7.316406 7.226562 -8.019531 6.84375 -8.5 C 6.46875 -8.976562 5.859375 -9.21875 5.015625 -9.21875 C 4.109375 -9.21875 3.164062 -8.960938 2.1875 -8.453125 L 1.859375 -9.234375 C 2.929688 -9.734375 3.992188 -9.984375 5.046875 -9.984375 C 6.128906 -9.984375 6.9375 -9.703125 7.46875 -9.140625 C 8 -8.585938 8.265625 -7.71875 8.265625 -6.53125 L 8.265625 0 Z M 4 -0.625 C 5.039062 -0.625 5.863281 -0.925781 6.46875 -1.53125 C 7.070312 -2.132812 7.375 -2.96875 7.375 -4.03125 L 7.375 -5 L 5.65625 -4.921875 C 4.28125 -4.859375 3.296875 -4.644531 2.703125 -4.28125 C 2.117188 -3.914062 1.828125 -3.347656 1.828125 -2.578125 C 1.828125 -1.960938 2.015625 -1.484375 2.390625 -1.140625 C 2.773438 -0.796875 3.3125 -0.625 4 -0.625 Z M 4 -0.625 "/></g></g></g></svg>