<svg xmlns="http://www.w3.org/2000/svg" xmlns:xlink="http://www.w3.org/1999/xlink" width="500" zoomAndPan="magnify" viewBox="0 0 375 374.999991" height="500" preserveAspectRatio="xMidYMid meet" version="1.0"><rect x="-37.5" width="450" fill="#ffffff" y="-37.499999" height="449.999989" fill-opacity="1"/><rect x="-37.5" width="450" fill="#ffffff" y="-37.499999" height="449.999989" fill-opacity="1"/><path fill="#98523c" d="M 77.441406 178.660156 C 78.175781 172.214844 80.9375 167.445312 87.613281 167.445312 C 94.269531 167.445312 97.273438 172.195312 97.984375 178.660156 Z M 110.113281 186.867188 C 110.113281 186.867188 114.210938 186.867188 114.210938 182.765625 C 114.210938 167.734375 104.730469 157.453125 86.65625 157.453125 C 68.585938 157.453125 59.101562 167.445312 59.101562 182.609375 C 59.101562 197.773438 68.585938 207.761719 86.65625 207.761719 C 98.695312 207.761719 106.910156 203.324219 111.070312 195.898438 C 111.070312 195.898438 111.292969 195.542969 111.292969 195.027344 C 111.292969 194.046875 110.492188 193.222656 109.492188 193.222656 L 96.046875 193.222656 C 94.445312 196.03125 91.640625 197.773438 87.613281 197.773438 C 81.046875 197.773438 78.265625 193.15625 77.488281 186.867188 Z M 110.113281 186.867188 " fill-opacity="1" fill-rule="nonzero"/><path fill="#98523c" d="M 186.164062 178.660156 C 186.898438 172.214844 189.660156 167.445312 196.335938 167.445312 C 202.992188 167.445312 205.972656 172.195312 206.707031 178.660156 Z M 218.816406 186.867188 C 218.816406 186.867188 222.910156 186.867188 222.910156 182.765625 C 222.910156 167.734375 213.429688 157.453125 195.355469 157.453125 C 177.285156 157.453125 167.804688 167.445312 167.804688 182.609375 C 167.804688 197.773438 177.285156 207.761719 195.355469 207.761719 C 207.398438 207.761719 215.609375 203.324219 219.773438 195.898438 C 219.773438 195.898438 219.996094 195.542969 219.996094 195.027344 C 219.996094 194.046875 219.191406 193.222656 218.191406 193.222656 L 204.769531 193.222656 C 203.167969 196.03125 200.363281 197.773438 196.335938 197.773438 C 189.769531 197.773438 186.988281 193.15625 186.210938 186.867188 Z M 218.816406 186.867188 " fill-opacity="1" fill-rule="nonzero"/><path fill="#98523c" d="M 116.035156 205.84375 L 116.035156 161.421875 C 116.035156 157.320312 120.128906 157.320312 120.128906 157.320312 L 134.171875 157.320312 L 134.171875 207.652344 L 117.816406 207.652344 C 117.835938 207.652344 116.035156 207.652344 116.035156 205.84375 " fill-opacity="1" fill-rule="nonzero"/><path fill="#98523c" d="M 136.890625 207.785156 L 176.484375 157.453125 L 163.394531 157.453125 C 163.394531 157.453125 159.300781 157.453125 156.074219 161.558594 L 136.910156 185.929688 L 136.910156 207.785156 Z M 136.890625 207.785156 " fill-opacity="1" fill-rule="nonzero"/><path fill="#98523c" d="M 243.765625 205.976562 C 243.765625 207.785156 241.960938 207.785156 241.960938 207.785156 L 225.601562 207.785156 L 225.601562 157.453125 L 239.648438 157.453125 C 239.648438 157.453125 243.742188 157.453125 243.742188 161.558594 L 243.742188 163.808594 C 247.59375 159.640625 253.289062 157.453125 259.675781 157.453125 C 271.296875 157.453125 280.6875 166.21875 280.6875 177.035156 L 280.6875 205.976562 C 280.6875 207.785156 278.882812 207.785156 278.882812 207.785156 L 262.527344 207.785156 L 262.527344 181.046875 C 262.527344 175.851562 258.320312 171.636719 253.132812 171.636719 C 247.949219 171.636719 243.742188 175.851562 243.742188 181.046875 L 243.742188 205.976562 Z M 243.765625 205.976562 " fill-opacity="1" fill-rule="nonzero"/></svg>