<?xml version="1.0" encoding="UTF-8" standalone="no"?>
<!-- Created with Inkscape (http://www.inkscape.org/) -->

<svg
   version="1.1"
   id="svg2"
   xml:space="preserve"
   width="526.90668"
   height="428.45334"
   viewBox="0 0 526.90668 428.45334"
   sodipodi:docname="logo_stella.eps"
   xmlns:inkscape="http://www.inkscape.org/namespaces/inkscape"
   xmlns:sodipodi="http://sodipodi.sourceforge.net/DTD/sodipodi-0.dtd"
   xmlns="http://www.w3.org/2000/svg"
   xmlns:svg="http://www.w3.org/2000/svg"><defs
     id="defs6" /><sodipodi:namedview
     id="namedview4"
     pagecolor="#ffffff"
     bordercolor="#666666"
     borderopacity="1.0"
     inkscape:pageshadow="2"
     inkscape:pageopacity="0.0"
     inkscape:pagecheckerboard="0" /><g
     id="g8"
     inkscape:groupmode="layer"
     inkscape:label="ink_ext_XXXXXX"
     transform="matrix(1.3333333,0,0,-1.3333333,0,428.45333)"><g
       id="g10"
       transform="scale(0.1)"><path
         d="M 230.012,1171.76 C 88.0586,1172.42 17.0703,1242.2 17.0703,1381.1 v 463.17 H 165.289 V 1381.1 c 0,-45.18 21.559,-67.76 64.723,-67.76 42.429,0 63.679,22.58 63.679,67.76 v 598.69 c 0,47.86 -45.933,103.8 -137.789,167.86 -92.5622,63.37 -138.8317,140.91 -138.8317,232.6 v 607.79 c 0,138.88 70.6094,208.33 211.8987,208.33 141.953,0 212.941,-69.45 212.941,-208.33 V 2522.85 H 293.691 v 465.19 c 0,44.5 -21.25,66.75 -63.679,66.75 h -1.043 c -42.465,0 -63.68,-22.25 -63.68,-66.75 v -604.75 c 0,-44.5 45.93,-98.77 137.785,-162.83 92.547,-63.37 138.836,-139.55 138.836,-228.54 V 1381.1 c 0,-139.57 -70.644,-209.34 -211.898,-209.34"
         style="fill:#41403a;fill-opacity:1;fill-rule:nonzero;stroke:none"
         id="path12" /><path
         d="M 1003.34,1191.99 H 856.148 V 3035.57 H 717.32 v 140.58 h 424.85 V 3035.57 H 1003.34 V 1191.99"
         style="fill:#41403a;fill-opacity:1;fill-rule:nonzero;stroke:none"
         id="path14" /><path
         d="m 1811.11,1191.99 h -383.09 v 1984.16 h 383.09 v -140.58 h -234.87 v -779.71 h 202.5 v -141.57 h -202.5 v -780.72 h 234.87 v -141.58"
         style="fill:#41403a;fill-opacity:1;fill-rule:nonzero;stroke:none"
         id="path16" /><path
         d="M 94.8984,17.0703 C 43.6445,17.0703 18.0273,42.3906 18.0273,93 v 582.551 c 0,50.371 25.6172,75.57 76.8711,75.57 51.4926,0 77.2306,-25.199 77.2306,-75.57 V 507.172 h -53.762 v 168.379 c 0,16.14 -7.699,24.219 -23.0936,24.219 h -0.375 c -15.4101,0 -23.1093,-8.079 -23.1093,-24.219 V 93 c 0,-16.3789 7.6992,-24.5703 23.1093,-24.5703 15.6326,0 23.4686,8.1914 23.4686,24.5703 v 168.02 h 53.762 V 93 c 0,-50.3594 -25.738,-75.6797 -77.2306,-75.9297"
         style="fill:#41403a;fill-opacity:1;fill-rule:nonzero;stroke:none"
         id="path18" /><path
         d="M 611.168,24.3984 H 557.012 L 545.27,205.629 H 493.023 L 481.277,24.3984 H 427.125 L 444.551,279 482.422,744.129 h 73.441 L 593.738,279.738 611.168,24.3984 M 519.156,615.391 496.047,256.98 h 46.199 l -23.09,358.411"
         style="fill:#41403a;fill-opacity:1;fill-rule:nonzero;stroke:none"
         id="path20" /><path
         d="m 1103.18,24.3984 h -51.87 V 586.422 L 1005.5,24.3984 H 967.629 L 921.816,586.422 V 24.3984 H 869.945 V 744.141 h 73.067 l 43.539,-606.391 43.559,606.391 h 73.07 V 24.3984"
         style="fill:#41403a;fill-opacity:1;fill-rule:nonzero;stroke:none"
         id="path22" /><path
         d="M 1434.66,24.3984 H 1380.9 V 744.141 h 78 c 47.71,0 71.57,-25.172 71.57,-75.582 V 434.91 c 0,-37.18 -17.17,-61.16 -51.5,-71.91 -8.09,-2.449 -19.95,-3.66 -35.6,-3.66 h -8.71 V 24.3984 m 0,668.7616 V 410.691 h 12.12 c 7.58,0 12.75,0.489 15.53,1.469 9.58,3.672 14.39,11.25 14.39,22.75 v 233.649 c 0,16.41 -7.71,24.601 -23.11,24.601 h -18.93"
         style="fill:#41403a;fill-opacity:1;fill-rule:nonzero;stroke:none"
         id="path24" /><path
         d="m 1875.58,17.0703 c -51.24,0 -76.86,25.3086 -76.86,75.9414 V 675.551 c 0,50.371 25.62,75.558 76.86,75.558 51.49,0 77.24,-25.187 77.24,-75.558 V 93.0117 c 0,-50.3711 -25.75,-75.6914 -77.24,-75.9414 m 0,682.6997 c -15.4,0 -23.1,-8.071 -23.1,-24.219 V 93.0117 c 0,-16.3906 7.7,-24.582 23.1,-24.582 15.65,0 23.48,8.1914 23.48,24.582 V 675.551 c 0,16.148 -7.72,24.219 -23.11,24.219 h -0.37"
         style="fill:#41403a;fill-opacity:1;fill-rule:nonzero;stroke:none"
         id="path26" /><path
         d="m 2636.24,24.3984 h -79.15 V 744.141 h 82.55 c 47.7,0 71.56,-25.172 71.56,-75.582 V 434.531 c 0,-23.492 -9.83,-40.109 -29.53,-49.89 19.7,-9.782 29.53,-26.532 29.53,-50.25 V 99.9805 c 0,-50.1407 -24.98,-75.3321 -74.96,-75.5821 M 2610.86,358.969 V 75.7617 h 23.47 c 15.41,0 23.09,8.0781 23.09,24.2188 V 334.391 c 0,11.488 -4.78,19.07 -14.37,22.738 -2.78,1.211 -7.95,1.84 -15.52,1.84 h -16.67 m 0,334.191 V 410.309 h 16.67 c 7.57,0 12.74,0.5 15.52,1.472 9.59,3.668 14.37,11.25 14.37,22.75 v 234.028 c 0,16.41 -7.68,24.601 -23.09,24.601 h -23.47"
         style="fill:#41403a;fill-opacity:1;fill-rule:nonzero;stroke:none"
         id="path28" /><path
         d="M 3124.11,24.3984 H 2985.14 V 744.141 h 138.97 V 693.16 h -85.2 V 410.309 h 73.46 v -51.34 h -73.46 V 75.7617 h 85.2 V 24.3984"
         style="fill:#41403a;fill-opacity:1;fill-rule:nonzero;stroke:none"
         id="path30" /><path
         d="M 3525.64,24.3984 H 3386.68 V 744.141 h 53.76 V 75.7617 h 85.2 V 24.3984"
         style="fill:#41403a;fill-opacity:1;fill-rule:nonzero;stroke:none"
         id="path32" /><path
         d="m 3857.5,17.0703 c -51.25,0 -76.87,25.3086 -76.87,75.9414 V 675.551 c 0,50.371 25.62,75.558 76.87,75.558 51.5,0 77.24,-25.187 77.24,-75.558 V 93.0117 c 0,-50.3711 -25.74,-75.6914 -77.24,-75.9414 m 0,682.6997 c -15.41,0 -23.09,-8.071 -23.09,-24.219 V 93.0117 c 0,-16.3906 7.68,-24.582 23.09,-24.582 15.65,0 23.47,8.1914 23.47,24.582 V 675.551 c 0,16.148 -7.69,24.219 -23.09,24.219 h -0.38"
         style="fill:#41403a;fill-opacity:1;fill-rule:nonzero;stroke:none"
         id="path34" /><path
         d="m 2481.09,1190.54 h -422.17 l 143.35,1983.78 h 155.91 L 2224.9,1338.53 h 256.19 v -147.99"
         style="fill:#41403a;fill-opacity:1;fill-rule:nonzero;stroke:none"
         id="path36" /><path
         d="m 3143.75,1190.54 h -422.18 l 143.36,1983.78 h 155.91 L 2887.56,1338.53 h 256.19 v -147.99"
         style="fill:#41403a;fill-opacity:1;fill-rule:nonzero;stroke:none"
         id="path38" /><path
         d="m 3384.23,1190.54 160.95,1983.78 h 213.76 l 174.95,-1982.35 h -164.9 l -123.21,1658.05 -98.09,-1658.05 -163.46,-1.43"
         style="fill:#41403a;fill-opacity:1;fill-rule:nonzero;stroke:none"
         id="path40" /></g></g></svg>
