<svg xmlns="http://www.w3.org/2000/svg" xmlns:xlink="http://www.w3.org/1999/xlink" width="527" zoomAndPan="magnify" viewBox="0 0 395.25 320.999992" height="428" preserveAspectRatio="xMidYMid meet" version="1.0"><path fill="#ffffff" d="M 23.175781 203.867188 C 9.023438 203.800781 1.945312 196.84375 1.945312 182.996094 L 1.945312 136.816406 L 16.722656 136.816406 L 16.722656 182.996094 C 16.722656 187.5 18.871094 189.753906 23.175781 189.753906 C 27.40625 189.753906 29.523438 187.5 29.523438 182.996094 L 29.523438 123.304688 C 29.523438 118.535156 24.945312 112.957031 15.789062 106.570312 C 6.558594 100.25 1.945312 92.519531 1.945312 83.378906 L 1.945312 22.78125 C 1.945312 8.933594 8.984375 2.007812 23.070312 2.007812 C 37.226562 2.007812 44.304688 8.933594 44.304688 22.78125 L 44.304688 69.160156 L 29.523438 69.160156 L 29.523438 22.78125 C 29.523438 18.34375 27.40625 16.125 23.175781 16.125 L 23.070312 16.125 C 18.839844 16.125 16.722656 18.34375 16.722656 22.78125 L 16.722656 83.074219 C 16.722656 87.511719 21.300781 92.921875 30.460938 99.308594 C 39.6875 105.628906 44.304688 113.222656 44.304688 122.097656 L 44.304688 182.996094 C 44.304688 196.914062 37.257812 203.867188 23.175781 203.867188 " fill-opacity="1" fill-rule="nonzero"/><path fill="#ffffff" d="M 100.277344 201.851562 L 85.601562 201.851562 L 85.601562 18.042969 L 71.761719 18.042969 L 71.761719 4.027344 L 114.121094 4.027344 L 114.121094 18.042969 L 100.277344 18.042969 L 100.277344 201.851562 " fill-opacity="1" fill-rule="nonzero"/><path fill="#ffffff" d="M 180.816406 201.851562 L 142.621094 201.851562 L 142.621094 4.027344 L 180.816406 4.027344 L 180.816406 18.042969 L 157.398438 18.042969 L 157.398438 95.78125 L 177.589844 95.78125 L 177.589844 109.894531 L 157.398438 109.894531 L 157.398438 187.734375 L 180.816406 187.734375 L 180.816406 201.851562 " fill-opacity="1" fill-rule="nonzero"/><path fill="#ffffff" d="M 9.703125 318.992188 C 4.59375 318.992188 2.039062 316.46875 2.039062 311.421875 L 2.039062 253.34375 C 2.039062 248.320312 4.59375 245.808594 9.703125 245.808594 C 14.839844 245.808594 17.40625 248.320312 17.40625 253.34375 L 17.40625 270.128906 L 12.042969 270.128906 L 12.042969 253.34375 C 12.042969 251.734375 11.277344 250.925781 9.742188 250.925781 L 9.703125 250.925781 C 8.167969 250.925781 7.402344 251.734375 7.402344 253.34375 L 7.402344 311.421875 C 7.402344 313.058594 8.167969 313.875 9.703125 313.875 C 11.261719 313.875 12.042969 313.058594 12.042969 311.421875 L 12.042969 294.671875 L 17.40625 294.671875 L 17.40625 311.421875 C 17.40625 316.445312 14.839844 318.96875 9.703125 318.992188 " fill-opacity="1" fill-rule="nonzero"/><path fill="#ffffff" d="M 61.179688 318.261719 L 55.777344 318.261719 L 54.609375 300.195312 L 49.398438 300.195312 L 48.226562 318.261719 L 42.828125 318.261719 L 44.566406 292.878906 L 48.34375 246.503906 L 55.664062 246.503906 L 59.441406 292.804688 L 61.179688 318.261719 M 52.003906 259.339844 L 49.699219 295.074219 L 54.308594 295.074219 L 52.003906 259.339844 " fill-opacity="1" fill-rule="nonzero"/><path fill="#ffffff" d="M 110.234375 318.261719 L 105.0625 318.261719 L 105.0625 262.226562 L 100.496094 318.261719 L 96.71875 318.261719 L 92.152344 262.226562 L 92.152344 318.261719 L 86.980469 318.261719 L 86.980469 246.503906 L 94.265625 246.503906 L 98.605469 306.960938 L 102.949219 246.503906 L 110.234375 246.503906 L 110.234375 318.261719 " fill-opacity="1" fill-rule="nonzero"/><path fill="#ffffff" d="M 143.28125 318.261719 L 137.921875 318.261719 L 137.921875 246.503906 L 145.699219 246.503906 C 150.457031 246.503906 152.835938 249.011719 152.835938 254.039062 L 152.835938 277.335938 C 152.835938 281.042969 151.125 283.433594 147.699219 284.503906 C 146.894531 284.75 145.710938 284.867188 144.152344 284.867188 L 143.28125 284.867188 L 143.28125 318.261719 M 143.28125 251.585938 L 143.28125 279.75 L 144.492188 279.75 C 145.246094 279.75 145.761719 279.699219 146.039062 279.601562 C 146.996094 279.238281 147.472656 278.480469 147.472656 277.335938 L 147.472656 254.039062 C 147.472656 252.402344 146.707031 251.585938 145.171875 251.585938 L 143.28125 251.585938 " fill-opacity="1" fill-rule="nonzero"/><path fill="#ffffff" d="M 187.242188 318.992188 C 182.132812 318.992188 179.582031 316.472656 179.582031 311.421875 L 179.582031 253.34375 C 179.582031 248.320312 182.132812 245.808594 187.242188 245.808594 C 192.378906 245.808594 194.945312 248.320312 194.945312 253.34375 L 194.945312 311.421875 C 194.945312 316.445312 192.378906 318.96875 187.242188 318.992188 M 187.242188 250.925781 C 185.707031 250.925781 184.941406 251.730469 184.941406 253.34375 L 184.941406 311.421875 C 184.941406 313.058594 185.707031 313.875 187.242188 313.875 C 188.804688 313.875 189.585938 313.058594 189.585938 311.421875 L 189.585938 253.34375 C 189.585938 251.730469 188.816406 250.925781 187.28125 250.925781 L 187.242188 250.925781 " fill-opacity="1" fill-rule="nonzero"/><path fill="#ffffff" d="M 263.082031 318.261719 L 255.191406 318.261719 L 255.191406 246.503906 L 263.421875 246.503906 C 268.179688 246.503906 270.558594 249.011719 270.558594 254.039062 L 270.558594 277.371094 C 270.558594 279.714844 269.578125 281.371094 267.613281 282.347656 C 269.578125 283.320312 270.558594 284.992188 270.558594 287.355469 L 270.558594 310.726562 C 270.558594 315.726562 268.066406 318.238281 263.082031 318.261719 M 260.554688 284.90625 L 260.554688 313.140625 L 262.894531 313.140625 C 264.429688 313.140625 265.195312 312.335938 265.195312 310.726562 L 265.195312 287.355469 C 265.195312 286.210938 264.71875 285.453125 263.761719 285.089844 C 263.484375 284.96875 262.96875 284.90625 262.214844 284.90625 L 260.554688 284.90625 M 260.554688 251.585938 L 260.554688 279.789062 L 262.214844 279.789062 C 262.96875 279.789062 263.484375 279.738281 263.761719 279.640625 C 264.71875 279.273438 265.195312 278.519531 265.195312 277.371094 L 265.195312 254.039062 C 265.195312 252.402344 264.429688 251.585938 262.894531 251.585938 L 260.554688 251.585938 " fill-opacity="1" fill-rule="nonzero"/><path fill="#ffffff" d="M 311.726562 318.261719 L 297.871094 318.261719 L 297.871094 246.503906 L 311.726562 246.503906 L 311.726562 251.585938 L 303.230469 251.585938 L 303.230469 279.789062 L 310.554688 279.789062 L 310.554688 284.90625 L 303.230469 284.90625 L 303.230469 313.140625 L 311.726562 313.140625 L 311.726562 318.261719 " fill-opacity="1" fill-rule="nonzero"/><path fill="#ffffff" d="M 351.757812 318.261719 L 337.902344 318.261719 L 337.902344 246.503906 L 343.265625 246.503906 L 343.265625 313.140625 L 351.757812 313.140625 L 351.757812 318.261719 " fill-opacity="1" fill-rule="nonzero"/><path fill="#ffffff" d="M 384.847656 318.992188 C 379.734375 318.992188 377.183594 316.472656 377.183594 311.421875 L 377.183594 253.34375 C 377.183594 248.320312 379.734375 245.808594 384.847656 245.808594 C 389.980469 245.808594 392.546875 248.320312 392.546875 253.34375 L 392.546875 311.421875 C 392.546875 316.445312 389.980469 318.96875 384.847656 318.992188 M 384.847656 250.925781 C 383.308594 250.925781 382.542969 251.730469 382.542969 253.34375 L 382.542969 311.421875 C 382.542969 313.058594 383.308594 313.875 384.847656 313.875 C 386.40625 313.875 387.1875 313.058594 387.1875 311.421875 L 387.1875 253.34375 C 387.1875 251.730469 386.417969 250.925781 384.882812 250.925781 L 384.847656 250.925781 " fill-opacity="1" fill-rule="nonzero"/><path fill="#ffffff" d="M 247.613281 201.996094 L 205.523438 201.996094 L 219.816406 4.207031 L 235.359375 4.207031 L 222.070312 187.242188 L 247.613281 187.242188 L 247.613281 201.996094 " fill-opacity="1" fill-rule="nonzero"/><path fill="#ffffff" d="M 313.683594 201.996094 L 271.589844 201.996094 L 285.882812 4.207031 L 301.429688 4.207031 L 288.140625 187.242188 L 313.683594 187.242188 L 313.683594 201.996094 " fill-opacity="1" fill-rule="nonzero"/><path fill="#ffffff" d="M 337.660156 201.996094 L 353.707031 4.207031 L 375.019531 4.207031 L 392.460938 201.851562 L 376.019531 201.851562 L 363.738281 36.542969 L 353.957031 201.855469 L 337.660156 201.996094 " fill-opacity="1" fill-rule="nonzero"/></svg>