<svg xmlns="http://www.w3.org/2000/svg" xmlns:xlink="http://www.w3.org/1999/xlink" width="500" zoomAndPan="magnify" viewBox="0 0 375 374.999991" height="500" preserveAspectRatio="xMidYMid meet" version="1.0"><path fill="#98523c" d="M 139.320312 224.011719 L 136.089844 221.628906 L 253.179688 63.09375 L 253.179688 184.664062 L 249.164062 184.664062 L 249.164062 75.289062 Z M 139.320312 224.011719 " fill-opacity="1" fill-rule="nonzero"/><path fill="#98523c" d="M 117.625 184.664062 L 113.609375 184.664062 L 113.609375 37.84375 L 181.894531 133.03125 L 264.609375 18.8125 L 267.859375 21.167969 L 181.882812 139.898438 L 117.625 50.332031 Z M 117.625 184.664062 " fill-opacity="1" fill-rule="nonzero"/><path fill="#98523c" d="M 144.140625 183.46875 L 180.277344 135.265625 L 183.492188 137.675781 L 147.351562 185.878906 Z M 144.140625 183.46875 " fill-opacity="1" fill-rule="nonzero"/><path fill="#98523c" d="M 73.046875 299.734375 L 82.652344 250.667969 L 98.316406 286.136719 L 114.542969 250.667969 L 123.171875 299.734375 L 116.105469 299.734375 L 111.707031 272.1875 L 98.207031 301.832031 L 85.085938 272.15625 L 80.175781 299.734375 Z M 73.046875 299.734375 " fill-opacity="1" fill-rule="nonzero"/><path fill="#98523c" d="M 130.5625 276.707031 C 130.5625 270.289062 132.917969 264.769531 137.625 260.15625 C 138.730469 259.039062 139.933594 258.046875 141.234375 257.171875 C 142.539062 256.300781 143.917969 255.566406 145.371094 254.972656 C 146.824219 254.378906 148.320312 253.933594 149.863281 253.644531 C 151.40625 253.351562 152.960938 253.21875 154.53125 253.242188 C 155.308594 253.246094 156.082031 253.289062 156.851562 253.367188 C 157.625 253.449219 158.390625 253.566406 159.152344 253.71875 C 159.914062 253.875 160.664062 254.066406 161.40625 254.292969 C 162.148438 254.519531 162.875 254.785156 163.59375 255.082031 C 164.308594 255.382812 165.007812 255.714844 165.691406 256.082031 C 166.375 256.449219 167.039062 256.847656 167.683594 257.28125 C 168.332031 257.714844 168.953125 258.175781 169.550781 258.667969 C 170.152344 259.160156 170.726562 259.683594 171.273438 260.230469 C 171.824219 260.777344 172.34375 261.351562 172.835938 261.953125 C 173.328125 262.550781 173.792969 263.175781 174.226562 263.820312 C 174.65625 264.464844 175.054688 265.128906 175.425781 265.8125 C 175.792969 266.496094 176.125 267.195312 176.421875 267.910156 C 176.722656 268.628906 176.984375 269.355469 177.214844 270.097656 C 177.441406 270.839844 177.632812 271.589844 177.789062 272.351562 C 177.941406 273.113281 178.058594 273.878906 178.140625 274.652344 C 178.21875 275.421875 178.261719 276.195312 178.265625 276.972656 C 178.292969 278.53125 178.15625 280.078125 177.863281 281.609375 C 177.566406 283.140625 177.117188 284.628906 176.507812 286.066406 C 175.902344 287.503906 175.15625 288.863281 174.265625 290.144531 C 173.378906 291.425781 172.367188 292.601562 171.230469 293.671875 C 170.113281 294.789062 168.894531 295.785156 167.578125 296.65625 C 166.261719 297.527344 164.871094 298.261719 163.40625 298.851562 C 161.941406 299.445312 160.429688 299.882812 158.875 300.171875 C 157.324219 300.460938 155.757812 300.589844 154.175781 300.5625 C 148.285156 300.5625 142.996094 298.523438 138.304688 294.441406 C 133.144531 289.933594 130.5625 284.019531 130.5625 276.707031 Z M 137.507812 276.796875 C 137.507812 281.839844 139.199219 285.988281 142.589844 289.242188 C 145.980469 292.496094 149.871094 294.121094 154.265625 294.117188 C 155.390625 294.140625 156.503906 294.046875 157.609375 293.839844 C 158.714844 293.632812 159.789062 293.316406 160.828125 292.890625 C 161.871094 292.464844 162.855469 291.933594 163.785156 291.304688 C 164.71875 290.675781 165.578125 289.957031 166.359375 289.152344 C 167.988281 287.539062 169.230469 285.667969 170.089844 283.542969 C 170.953125 281.421875 171.363281 279.214844 171.320312 276.921875 C 171.320312 272.054688 169.695312 267.972656 166.441406 264.683594 C 165.667969 263.875 164.820312 263.15625 163.898438 262.523438 C 162.976562 261.894531 161.996094 261.363281 160.964844 260.9375 C 159.929688 260.507812 158.863281 260.191406 157.765625 259.988281 C 156.667969 259.78125 155.558594 259.691406 154.441406 259.71875 C 153.320312 259.695312 152.210938 259.789062 151.109375 259.996094 C 150.011719 260.199219 148.941406 260.519531 147.90625 260.945312 C 146.875 261.371094 145.894531 261.902344 144.964844 262.53125 C 144.039062 263.160156 143.1875 263.878906 142.410156 264.683594 C 141.613281 265.472656 140.898438 266.335938 140.277344 267.269531 C 139.652344 268.203125 139.128906 269.191406 138.707031 270.234375 C 138.285156 271.277344 137.972656 272.347656 137.773438 273.453125 C 137.570312 274.558594 137.480469 275.675781 137.507812 276.796875 Z M 137.507812 276.796875 " fill-opacity="1" fill-rule="nonzero"/><path fill="#98523c" d="M 193.8125 254.097656 L 193.8125 281.597656 C 193.8125 285.519531 194.449219 288.382812 195.730469 290.199219 C 197.640625 292.816406 200.332031 294.128906 203.800781 294.128906 C 207.269531 294.128906 209.972656 292.816406 211.902344 290.199219 C 213.179688 288.445312 213.820312 285.578125 213.820312 281.597656 L 213.820312 254.097656 L 220.707031 254.097656 L 220.707031 283.476562 C 220.707031 288.289062 219.207031 292.246094 216.207031 295.359375 C 215.800781 295.769531 215.378906 296.160156 214.9375 296.527344 C 214.496094 296.898438 214.035156 297.242188 213.558594 297.566406 C 213.082031 297.890625 212.59375 298.1875 212.085938 298.460938 C 211.578125 298.738281 211.0625 298.984375 210.53125 299.207031 C 210 299.429688 209.457031 299.625 208.90625 299.796875 C 208.355469 299.964844 207.800781 300.105469 207.234375 300.21875 C 206.671875 300.332031 206.101562 300.417969 205.527344 300.476562 C 204.957031 300.535156 204.382812 300.5625 203.804688 300.5625 C 203.230469 300.5625 202.65625 300.535156 202.082031 300.476562 C 201.511719 300.417969 200.941406 300.332031 200.375 300.21875 C 199.8125 300.105469 199.253906 299.964844 198.703125 299.796875 C 198.152344 299.625 197.613281 299.429688 197.082031 299.207031 C 196.550781 298.984375 196.03125 298.738281 195.527344 298.460938 C 195.019531 298.1875 194.527344 297.890625 194.050781 297.566406 C 193.574219 297.242188 193.117188 296.898438 192.675781 296.527344 C 192.230469 296.160156 191.808594 295.769531 191.40625 295.359375 C 188.40625 292.246094 186.90625 288.289062 186.90625 283.476562 L 186.90625 254.097656 Z M 193.8125 254.097656 " fill-opacity="1" fill-rule="nonzero"/><path fill="#98523c" d="M 247.101562 280.28125 L 261.230469 299.734375 L 252.804688 299.734375 L 239.769531 281.054688 L 238.53125 281.054688 L 238.53125 299.734375 L 231.640625 299.734375 L 231.640625 254.097656 L 239.710938 254.097656 C 245.742188 254.097656 250.097656 255.230469 252.777344 257.496094 C 255.730469 260.019531 257.207031 263.351562 257.210938 267.496094 C 257.246094 269.007812 257.023438 270.476562 256.546875 271.90625 C 256.070312 273.339844 255.363281 274.648438 254.429688 275.832031 C 253.511719 276.988281 252.425781 277.949219 251.164062 278.714844 C 249.902344 279.480469 248.546875 280 247.101562 280.28125 Z M 238.53125 275.054688 L 240.714844 275.054688 C 247.238281 275.054688 250.5 272.554688 250.5 267.554688 C 250.5 262.886719 247.335938 260.554688 241 260.554688 L 238.550781 260.554688 Z M 238.53125 275.054688 " fill-opacity="1" fill-rule="nonzero"/><path fill="#98523c" d="M 299.734375 288.648438 L 280.199219 288.648438 L 275.117188 299.734375 L 267.695312 299.734375 L 290.277344 251.234375 L 312.0625 299.734375 L 304.527344 299.734375 Z M 296.925781 282.179688 L 290.160156 266.679688 L 283.066406 282.179688 Z M 296.925781 282.179688 " fill-opacity="1" fill-rule="nonzero"/><path fill="#98523c" d="M 128.996094 322.769531 L 128.996094 322.726562 C 128.988281 322.1875 129.058594 321.660156 129.214844 321.140625 C 129.367188 320.625 129.597656 320.140625 129.902344 319.695312 C 130.207031 319.25 130.570312 318.859375 130.996094 318.527344 C 131.421875 318.191406 131.886719 317.933594 132.390625 317.742188 C 132.898438 317.554688 133.421875 317.449219 133.960938 317.421875 C 134.5 317.394531 135.03125 317.449219 135.550781 317.589844 C 136.074219 317.726562 136.5625 317.941406 137.019531 318.230469 C 137.472656 318.519531 137.875 318.875 138.222656 319.289062 L 137.527344 320.003906 C 136.652344 319.109375 135.65625 318.332031 134.144531 318.332031 C 131.839844 318.332031 130.050781 320.261719 130.050781 322.6875 L 130.050781 322.726562 C 130.042969 323.007812 130.0625 323.289062 130.109375 323.566406 C 130.15625 323.84375 130.230469 324.113281 130.328125 324.378906 C 130.429688 324.640625 130.554688 324.890625 130.707031 325.128906 C 130.855469 325.367188 131.027344 325.589844 131.222656 325.792969 C 131.417969 326 131.628906 326.179688 131.859375 326.34375 C 132.089844 326.503906 132.332031 326.644531 132.589844 326.757812 C 132.847656 326.871094 133.117188 326.957031 133.390625 327.019531 C 133.667969 327.078125 133.945312 327.113281 134.226562 327.117188 C 134.890625 327.097656 135.519531 326.941406 136.113281 326.644531 C 136.707031 326.351562 137.210938 325.945312 137.625 325.429688 L 138.300781 326.023438 C 137.96875 326.453125 137.574219 326.820312 137.125 327.128906 C 136.675781 327.433594 136.1875 327.664062 135.667969 327.820312 C 135.144531 327.972656 134.609375 328.042969 134.066406 328.03125 C 133.523438 328.015625 132.992188 327.917969 132.480469 327.738281 C 131.964844 327.558594 131.492188 327.304688 131.054688 326.976562 C 130.621094 326.648438 130.25 326.261719 129.9375 325.816406 C 129.625 325.367188 129.386719 324.886719 129.226562 324.363281 C 129.066406 323.84375 128.988281 323.3125 128.996094 322.769531 Z M 128.996094 322.769531 " fill-opacity="1" fill-rule="nonzero"/><path fill="#98523c" d="M 144.019531 322.769531 L 144.019531 322.726562 C 144.015625 322.382812 144.046875 322.039062 144.109375 321.699219 C 144.175781 321.355469 144.269531 321.027344 144.398438 320.703125 C 144.53125 320.382812 144.6875 320.078125 144.878906 319.789062 C 145.070312 319.5 145.285156 319.230469 145.527344 318.984375 C 145.773438 318.738281 146.039062 318.515625 146.324219 318.324219 C 146.609375 318.128906 146.914062 317.964844 147.234375 317.832031 C 147.554688 317.695312 147.882812 317.59375 148.222656 317.527344 C 148.5625 317.457031 148.90625 317.421875 149.25 317.421875 C 149.59375 317.421875 149.9375 317.457031 150.273438 317.523438 C 150.609375 317.589844 150.9375 317.691406 151.257812 317.824219 C 151.574219 317.957031 151.875 318.121094 152.160156 318.3125 C 152.445312 318.503906 152.707031 318.722656 152.949219 318.96875 C 153.191406 319.214844 153.40625 319.480469 153.59375 319.769531 C 153.78125 320.058594 153.941406 320.363281 154.066406 320.683594 C 154.195312 321 154.289062 321.332031 154.351562 321.667969 C 154.414062 322.007812 154.441406 322.347656 154.4375 322.691406 L 154.4375 322.734375 C 154.449219 323.082031 154.425781 323.429688 154.367188 323.773438 C 154.308594 324.117188 154.21875 324.449219 154.09375 324.777344 C 153.96875 325.101562 153.8125 325.414062 153.625 325.707031 C 153.441406 326 153.226562 326.273438 152.984375 326.527344 C 152.742188 326.777344 152.476562 327 152.191406 327.199219 C 151.902344 327.398438 151.597656 327.566406 151.277344 327.703125 C 150.957031 327.839844 150.625 327.945312 150.285156 328.015625 C 149.941406 328.085938 149.597656 328.121094 149.25 328.121094 C 148.902344 328.125 148.554688 328.089844 148.210938 328.023438 C 147.871094 327.953125 147.539062 327.855469 147.21875 327.71875 C 146.894531 327.585938 146.589844 327.417969 146.300781 327.222656 C 146.011719 327.027344 145.746094 326.804688 145.503906 326.554688 C 145.257812 326.304688 145.042969 326.035156 144.851562 325.742188 C 144.664062 325.449219 144.503906 325.140625 144.378906 324.8125 C 144.25 324.488281 144.15625 324.15625 144.097656 323.8125 C 144.039062 323.46875 144.011719 323.121094 144.019531 322.773438 Z M 153.382812 322.769531 L 153.382812 322.726562 C 153.390625 322.445312 153.371094 322.164062 153.328125 321.886719 C 153.28125 321.609375 153.207031 321.339844 153.109375 321.074219 C 153.007812 320.8125 152.882812 320.558594 152.734375 320.320312 C 152.582031 320.082031 152.410156 319.863281 152.214844 319.65625 C 152.023438 319.453125 151.808594 319.269531 151.578125 319.105469 C 151.347656 318.945312 151.105469 318.804688 150.847656 318.691406 C 150.589844 318.578125 150.324219 318.492188 150.046875 318.429688 C 149.773438 318.371094 149.492188 318.339844 149.210938 318.332031 C 146.804688 318.332031 145.074219 320.304688 145.074219 322.6875 L 145.074219 322.726562 C 145.066406 323.007812 145.085938 323.289062 145.132812 323.566406 C 145.179688 323.84375 145.25 324.117188 145.351562 324.378906 C 145.453125 324.644531 145.578125 324.894531 145.726562 325.132812 C 145.878906 325.371094 146.050781 325.59375 146.246094 325.796875 C 146.4375 326 146.652344 326.183594 146.882812 326.347656 C 147.113281 326.507812 147.355469 326.644531 147.613281 326.757812 C 147.875 326.875 148.140625 326.960938 148.414062 327.019531 C 148.691406 327.082031 148.96875 327.113281 149.25 327.117188 C 151.65625 327.117188 153.359375 325.152344 153.359375 322.769531 Z M 153.382812 322.769531 " fill-opacity="1" fill-rule="nonzero"/><path fill="#98523c" d="M 161.410156 317.65625 L 162.386719 317.65625 L 162.386719 320.539062 C 162.5625 320.085938 162.804688 319.671875 163.105469 319.292969 C 163.410156 318.914062 163.761719 318.589844 164.164062 318.320312 C 164.566406 318.046875 165 317.84375 165.460938 317.703125 C 165.925781 317.5625 166.402344 317.492188 166.886719 317.496094 L 166.886719 318.574219 L 166.785156 318.574219 C 164.441406 318.574219 162.394531 320.34375 162.394531 323.636719 L 162.394531 327.792969 L 161.410156 327.792969 Z M 161.410156 317.65625 " fill-opacity="1" fill-rule="nonzero"/><path fill="#98523c" d="M 173.359375 317.65625 L 174.335938 317.65625 L 174.335938 320.539062 C 174.511719 320.085938 174.753906 319.671875 175.058594 319.292969 C 175.359375 318.914062 175.710938 318.589844 176.113281 318.320312 C 176.515625 318.046875 176.949219 317.84375 177.414062 317.703125 C 177.875 317.5625 178.351562 317.492188 178.835938 317.496094 L 178.835938 318.574219 L 178.734375 318.574219 C 176.390625 318.574219 174.347656 320.34375 174.347656 323.636719 L 174.347656 327.792969 L 173.359375 327.792969 Z M 173.359375 317.65625 " fill-opacity="1" fill-rule="nonzero"/><path fill="#98523c" d="M 184.066406 322.746094 L 184.066406 322.707031 C 184.066406 319.761719 186.136719 317.417969 188.875 317.417969 C 191.722656 317.417969 193.527344 319.722656 193.527344 322.726562 C 193.535156 322.859375 193.535156 322.992188 193.527344 323.121094 L 185.101562 323.121094 C 185.28125 325.648438 187.101562 327.121094 189.074219 327.121094 C 189.75 327.128906 190.390625 326.992188 191.003906 326.714844 C 191.613281 326.4375 192.136719 326.042969 192.574219 325.53125 L 193.25 326.128906 C 192.734375 326.746094 192.105469 327.226562 191.371094 327.558594 C 190.636719 327.894531 189.863281 328.054688 189.054688 328.039062 C 186.359375 328.03125 184.066406 325.921875 184.066406 322.746094 Z M 192.476562 322.246094 C 192.335938 320.203125 191.160156 318.3125 188.835938 318.3125 C 186.835938 318.3125 185.28125 320.003906 185.101562 322.246094 Z M 192.476562 322.246094 " fill-opacity="1" fill-rule="nonzero"/><path fill="#98523c" d="M 200.859375 325.191406 L 200.859375 318.554688 L 199.410156 318.554688 L 199.410156 317.65625 L 200.859375 317.65625 L 200.859375 314.421875 L 201.859375 314.421875 L 201.859375 317.664062 L 205.414062 317.664062 L 205.414062 318.558594 L 201.859375 318.558594 L 201.859375 325.097656 C 201.859375 326.546875 202.714844 327.0625 203.859375 327.0625 C 204.386719 327.058594 204.886719 326.941406 205.359375 326.707031 L 205.359375 327.617188 C 204.839844 327.867188 204.289062 327.988281 203.710938 327.976562 C 202.152344 327.972656 200.859375 327.117188 200.859375 325.191406 Z M 200.859375 325.191406 " fill-opacity="1" fill-rule="nonzero"/><path fill="#98523c" d="M 211.277344 322.769531 L 211.277344 322.726562 C 211.269531 322.382812 211.300781 322.039062 211.363281 321.699219 C 211.429688 321.355469 211.523438 321.027344 211.652344 320.707031 C 211.78125 320.382812 211.941406 320.078125 212.132812 319.789062 C 212.320312 319.5 212.539062 319.230469 212.78125 318.984375 C 213.023438 318.738281 213.289062 318.515625 213.574219 318.324219 C 213.863281 318.128906 214.164062 317.964844 214.484375 317.832031 C 214.804688 317.695312 215.132812 317.59375 215.472656 317.527344 C 215.8125 317.457031 216.15625 317.421875 216.5 317.421875 C 216.84375 317.421875 217.1875 317.457031 217.523438 317.523438 C 217.859375 317.589844 218.1875 317.691406 218.503906 317.824219 C 218.824219 317.957031 219.125 318.121094 219.410156 318.3125 C 219.695312 318.503906 219.957031 318.722656 220.199219 318.96875 C 220.441406 319.214844 220.65625 319.480469 220.84375 319.769531 C 221.03125 320.058594 221.191406 320.363281 221.316406 320.683594 C 221.445312 321 221.539062 321.332031 221.601562 321.667969 C 221.664062 322.007812 221.691406 322.347656 221.6875 322.691406 L 221.6875 322.734375 C 221.691406 323.078125 221.660156 323.421875 221.597656 323.761719 C 221.535156 324.101562 221.4375 324.433594 221.308594 324.753906 C 221.179688 325.078125 221.019531 325.382812 220.832031 325.671875 C 220.640625 325.960938 220.425781 326.230469 220.179688 326.476562 C 219.9375 326.722656 219.671875 326.945312 219.386719 327.136719 C 219.101562 327.332031 218.796875 327.496094 218.476562 327.628906 C 218.160156 327.765625 217.828125 327.863281 217.488281 327.933594 C 217.148438 328.003906 216.808594 328.039062 216.460938 328.039062 C 216.117188 328.039062 215.777344 328.003906 215.4375 327.9375 C 215.101562 327.871094 214.773438 327.769531 214.457031 327.636719 C 214.136719 327.503906 213.835938 327.339844 213.550781 327.148438 C 213.265625 326.957031 213.003906 326.734375 212.761719 326.492188 C 212.519531 326.246094 212.304688 325.980469 212.117188 325.691406 C 211.929688 325.402344 211.773438 325.097656 211.644531 324.777344 C 211.515625 324.460938 211.421875 324.128906 211.359375 323.792969 C 211.296875 323.453125 211.269531 323.113281 211.277344 322.769531 Z M 220.636719 322.769531 L 220.636719 322.726562 C 220.644531 322.445312 220.625 322.164062 220.582031 321.886719 C 220.535156 321.609375 220.460938 321.339844 220.359375 321.074219 C 220.261719 320.8125 220.136719 320.558594 219.984375 320.320312 C 219.835938 320.082031 219.664062 319.859375 219.46875 319.65625 C 219.273438 319.453125 219.0625 319.269531 218.832031 319.105469 C 218.601562 318.945312 218.355469 318.804688 218.097656 318.691406 C 217.839844 318.578125 217.574219 318.492188 217.296875 318.429688 C 217.023438 318.371094 216.742188 318.339844 216.460938 318.332031 C 214.054688 318.332031 212.324219 320.304688 212.324219 322.6875 L 212.324219 322.726562 C 212.316406 323.007812 212.335938 323.289062 212.382812 323.566406 C 212.429688 323.84375 212.5 324.117188 212.601562 324.378906 C 212.703125 324.644531 212.828125 324.894531 212.976562 325.132812 C 213.128906 325.371094 213.300781 325.59375 213.492188 325.796875 C 213.6875 326 213.902344 326.183594 214.132812 326.347656 C 214.363281 326.507812 214.605469 326.644531 214.863281 326.757812 C 215.121094 326.875 215.390625 326.960938 215.664062 327.019531 C 215.941406 327.082031 216.21875 327.113281 216.5 327.117188 C 218.90625 327.117188 220.636719 325.152344 220.636719 322.769531 Z M 220.636719 322.769531 " fill-opacity="1" fill-rule="nonzero"/><path fill="#98523c" d="M 228.660156 317.65625 L 229.636719 317.65625 L 229.636719 320.539062 C 229.8125 320.085938 230.054688 319.671875 230.355469 319.292969 C 230.660156 318.917969 231.011719 318.589844 231.414062 318.320312 C 231.816406 318.050781 232.25 317.84375 232.714844 317.703125 C 233.175781 317.5625 233.652344 317.496094 234.136719 317.496094 L 234.136719 318.574219 L 234.035156 318.574219 C 231.691406 318.574219 229.640625 320.34375 229.640625 323.636719 L 229.640625 327.792969 L 228.660156 327.792969 Z M 228.660156 317.65625 " fill-opacity="1" fill-rule="nonzero"/><path fill="#98523c" d="M 239.257812 324.851562 L 239.257812 324.8125 C 239.257812 322.707031 241.066406 321.511719 243.6875 321.511719 C 244.828125 321.5 245.945312 321.648438 247.046875 321.953125 L 247.046875 321.511719 C 247.046875 319.46875 245.796875 318.414062 243.707031 318.414062 C 242.578125 318.421875 241.519531 318.695312 240.527344 319.226562 L 240.171875 318.371094 C 241.300781 317.800781 242.5 317.511719 243.765625 317.496094 C 244.988281 317.421875 246.054688 317.792969 246.964844 318.613281 C 247.722656 319.417969 248.066406 320.371094 248 321.472656 L 248 327.792969 L 247.046875 327.792969 L 247.046875 326.101562 C 246.601562 326.726562 246.035156 327.210938 245.347656 327.550781 C 244.664062 327.894531 243.9375 328.054688 243.171875 328.03125 C 241.28125 328.03125 239.257812 326.957031 239.257812 324.851562 Z M 247.066406 323.996094 L 247.066406 322.84375 C 245.9375 322.542969 244.792969 322.390625 243.625 322.386719 C 241.480469 322.386719 240.289062 323.34375 240.289062 324.753906 L 240.289062 324.792969 C 240.289062 326.261719 241.679688 327.117188 243.230469 327.117188 C 245.296875 327.117188 247.066406 325.847656 247.066406 323.996094 Z M 247.066406 323.996094 " fill-opacity="1" fill-rule="nonzero"/></svg>