<svg xmlns="http://www.w3.org/2000/svg" xmlns:xlink="http://www.w3.org/1999/xlink" width="500" zoomAndPan="magnify" viewBox="0 0 375 374.999991" height="500" preserveAspectRatio="xMidYMid meet" version="1.0"><path fill="#000000" d="M 27.179688 220.878906 L 25.242188 219.449219 L 95.402344 124.398438 L 95.402344 197.285156 L 92.996094 197.285156 L 92.996094 131.710938 Z M 27.179688 220.878906 " fill-opacity="1" fill-rule="nonzero"/><path fill="#000000" d="M 14.175781 197.285156 L 11.769531 197.285156 L 11.769531 109.257812 L 52.6875 166.328125 L 102.25 97.84375 L 104.199219 99.257812 L 52.675781 170.445312 L 14.175781 116.746094 Z M 14.175781 197.285156 " fill-opacity="1" fill-rule="nonzero"/><path fill="#000000" d="M 30.070312 196.578125 L 51.722656 167.675781 L 53.648438 169.121094 L 31.992188 198.019531 Z M 30.070312 196.578125 " fill-opacity="1" fill-rule="nonzero"/><path fill="#000000" d="M 126.394531 168.667969 L 134.996094 124.707031 L 149.019531 156.488281 L 163.550781 124.707031 L 171.277344 168.667969 L 164.957031 168.667969 L 161.011719 143.996094 L 148.917969 170.5625 L 137.164062 143.972656 L 132.789062 168.679688 Z M 126.394531 168.667969 " fill-opacity="1" fill-rule="nonzero"/><path fill="#000000" d="M 177.894531 148.039062 C 177.894531 142.28125 180.003906 137.339844 184.222656 133.210938 C 185.207031 132.207031 186.285156 131.316406 187.453125 130.535156 C 188.621094 129.75 189.855469 129.09375 191.15625 128.558594 C 192.457031 128.027344 193.800781 127.628906 195.179688 127.371094 C 196.5625 127.109375 197.957031 126.988281 199.359375 127.011719 C 205.191406 127.011719 210.1875 129.09375 214.339844 133.261719 C 215.347656 134.230469 216.25 135.292969 217.039062 136.449219 C 217.832031 137.605469 218.496094 138.828125 219.035156 140.117188 C 219.574219 141.410156 219.976562 142.742188 220.242188 144.117188 C 220.507812 145.492188 220.632812 146.878906 220.613281 148.28125 C 220.636719 149.675781 220.515625 151.0625 220.25 152.433594 C 219.984375 153.804688 219.582031 155.136719 219.039062 156.425781 C 218.496094 157.710938 217.828125 158.929688 217.03125 160.078125 C 216.234375 161.226562 215.328125 162.28125 214.3125 163.242188 C 210.097656 167.355469 205.007812 169.414062 199.042969 169.414062 C 193.765625 169.414062 189.03125 167.585938 184.832031 163.929688 C 180.210938 159.886719 177.898438 154.589844 177.894531 148.039062 Z M 184.113281 148.121094 C 184.113281 152.628906 185.632812 156.34375 188.667969 159.261719 C 191.703125 162.179688 195.1875 163.640625 199.121094 163.640625 C 201.160156 163.683594 203.125 163.316406 205.011719 162.542969 C 206.898438 161.769531 208.550781 160.652344 209.972656 159.191406 C 211.425781 157.742188 212.53125 156.066406 213.300781 154.167969 C 214.066406 152.265625 214.429688 150.289062 214.390625 148.238281 C 214.390625 143.878906 212.933594 140.222656 210.019531 137.277344 C 207.101562 134.328125 203.523438 132.847656 199.28125 132.828125 C 197.253906 132.785156 195.304688 133.152344 193.429688 133.925781 C 191.558594 134.699219 189.917969 135.816406 188.507812 137.277344 C 185.582031 140.195312 184.117188 143.808594 184.113281 148.121094 Z M 184.113281 148.121094 " fill-opacity="1" fill-rule="nonzero"/><path fill="#000000" d="M 234.535156 127.777344 L 234.535156 152.410156 C 234.535156 155.925781 235.105469 158.492188 236.253906 160.117188 C 237.964844 162.464844 240.375 163.640625 243.480469 163.640625 C 246.585938 163.640625 249.003906 162.464844 250.730469 160.117188 C 251.878906 158.542969 252.453125 155.976562 252.453125 152.410156 L 252.453125 127.777344 L 258.621094 127.777344 L 258.621094 154.105469 C 258.621094 158.410156 257.277344 161.957031 254.59375 164.75 C 254.234375 165.117188 253.855469 165.464844 253.460938 165.796875 C 253.0625 166.128906 252.652344 166.4375 252.226562 166.726562 C 251.800781 167.015625 251.359375 167.285156 250.90625 167.53125 C 250.453125 167.777344 249.988281 168 249.511719 168.199219 C 249.039062 168.398438 248.554688 168.574219 248.0625 168.726562 C 247.566406 168.878906 247.070312 169.003906 246.5625 169.105469 C 246.058594 169.207031 245.546875 169.285156 245.035156 169.335938 C 244.523438 169.386719 244.007812 169.410156 243.492188 169.410156 C 242.976562 169.410156 242.460938 169.386719 241.949219 169.335938 C 241.4375 169.285156 240.925781 169.207031 240.421875 169.105469 C 239.917969 169.003906 239.417969 168.878906 238.925781 168.726562 C 238.429688 168.574219 237.949219 168.398438 237.472656 168.199219 C 236.996094 168 236.53125 167.777344 236.078125 167.53125 C 235.625 167.285156 235.1875 167.015625 234.757812 166.726562 C 234.332031 166.4375 233.921875 166.128906 233.523438 165.796875 C 233.128906 165.464844 232.75 165.117188 232.390625 164.75 C 229.710938 161.960938 228.367188 158.414062 228.367188 154.105469 L 228.367188 127.777344 Z M 234.535156 127.777344 " fill-opacity="1" fill-rule="nonzero"/><path fill="#000000" d="M 282.253906 151.242188 L 294.902344 168.667969 L 287.347656 168.667969 L 275.671875 151.933594 L 274.5625 151.933594 L 274.5625 168.667969 L 268.394531 168.667969 L 268.394531 127.777344 L 275.621094 127.777344 C 281.019531 127.777344 284.917969 128.796875 287.316406 130.828125 C 289.96875 133.085938 291.292969 136.070312 291.292969 139.777344 C 291.328125 141.128906 291.128906 142.445312 290.703125 143.726562 C 290.277344 145.011719 289.644531 146.183594 288.808594 147.246094 C 287.988281 148.28125 287.015625 149.144531 285.886719 149.832031 C 284.761719 150.519531 283.546875 150.988281 282.253906 151.242188 Z M 274.578125 146.554688 L 276.535156 146.554688 C 282.367188 146.554688 285.28125 144.324219 285.28125 139.855469 C 285.28125 135.675781 282.441406 133.582031 276.761719 133.582031 L 274.566406 133.582031 Z M 274.578125 146.554688 " fill-opacity="1" fill-rule="nonzero"/><path fill="#000000" d="M 329.382812 158.738281 L 311.886719 158.738281 L 307.332031 168.683594 L 300.691406 168.683594 L 320.914062 125.226562 L 340.398438 168.683594 L 333.636719 168.683594 Z M 326.871094 152.9375 L 320.808594 139.035156 L 314.445312 152.9375 Z M 326.871094 152.9375 " fill-opacity="1" fill-rule="nonzero"/><path fill="#000000" d="M 176.496094 189.308594 L 176.496094 189.273438 C 176.488281 188.789062 176.554688 188.316406 176.691406 187.851562 C 176.832031 187.390625 177.039062 186.957031 177.308594 186.558594 C 177.582031 186.160156 177.910156 185.8125 178.289062 185.515625 C 178.667969 185.214844 179.085938 184.984375 179.539062 184.8125 C 179.992188 184.644531 180.457031 184.550781 180.941406 184.523438 C 181.421875 184.5 181.898438 184.550781 182.363281 184.675781 C 182.832031 184.796875 183.269531 184.988281 183.675781 185.25 C 184.085938 185.507812 184.445312 185.820312 184.753906 186.191406 L 184.128906 186.832031 C 183.335938 186.039062 182.460938 185.335938 181.109375 185.335938 C 179.039062 185.335938 177.441406 187.0625 177.441406 189.238281 L 177.441406 189.273438 C 177.425781 189.78125 177.511719 190.273438 177.691406 190.75 C 177.875 191.222656 178.140625 191.644531 178.488281 192.015625 C 178.839844 192.382812 179.246094 192.671875 179.710938 192.878906 C 180.175781 193.082031 180.664062 193.191406 181.171875 193.203125 C 181.765625 193.1875 182.328125 193.046875 182.859375 192.78125 C 183.394531 192.515625 183.84375 192.152344 184.21875 191.6875 L 184.824219 192.226562 C 183.894531 193.273438 182.792969 194.023438 181.121094 194.023438 C 180.8125 194.019531 180.511719 193.988281 180.210938 193.925781 C 179.910156 193.863281 179.621094 193.769531 179.335938 193.648438 C 179.054688 193.53125 178.789062 193.382812 178.535156 193.210938 C 178.28125 193.039062 178.046875 192.84375 177.832031 192.621094 C 177.617188 192.402344 177.425781 192.167969 177.257812 191.910156 C 177.089844 191.652344 176.949219 191.382812 176.835938 191.097656 C 176.71875 190.8125 176.632812 190.519531 176.578125 190.21875 C 176.519531 189.917969 176.492188 189.613281 176.496094 189.308594 Z M 176.496094 189.308594 " fill-opacity="1" fill-rule="nonzero"/><path fill="#000000" d="M 189.953125 189.308594 L 189.953125 189.273438 C 189.941406 188.960938 189.960938 188.648438 190.015625 188.34375 C 190.066406 188.035156 190.148438 187.734375 190.261719 187.445312 C 190.371094 187.152344 190.511719 186.875 190.679688 186.613281 C 190.847656 186.347656 191.039062 186.105469 191.253906 185.878906 C 191.472656 185.65625 191.707031 185.453125 191.964844 185.277344 C 192.222656 185.097656 192.496094 184.949219 192.78125 184.828125 C 193.066406 184.703125 193.363281 184.609375 193.671875 184.546875 C 193.976562 184.484375 194.285156 184.453125 194.597656 184.449219 C 194.910156 184.449219 195.21875 184.480469 195.523438 184.539062 C 195.828125 184.601562 196.125 184.691406 196.414062 184.8125 C 196.703125 184.933594 196.976562 185.082031 197.234375 185.257812 C 197.492188 185.429688 197.730469 185.628906 197.949219 185.855469 C 198.164062 186.078125 198.359375 186.320312 198.53125 186.582031 C 198.699219 186.84375 198.839844 187.121094 198.953125 187.410156 C 199.070312 187.699219 199.152344 188 199.207031 188.308594 C 199.261719 188.613281 199.285156 188.925781 199.277344 189.238281 L 199.277344 189.273438 C 199.28125 189.582031 199.257812 189.890625 199.203125 190.199219 C 199.144531 190.503906 199.058594 190.800781 198.945312 191.089844 C 198.832031 191.378906 198.6875 191.65625 198.519531 191.917969 C 198.347656 192.175781 198.15625 192.417969 197.9375 192.640625 C 197.71875 192.863281 197.480469 193.0625 197.222656 193.238281 C 196.964844 193.410156 196.695312 193.558594 196.40625 193.679688 C 196.121094 193.800781 195.824219 193.890625 195.519531 193.953125 C 195.214844 194.015625 194.90625 194.046875 194.597656 194.046875 C 194.289062 194.046875 193.980469 194.015625 193.679688 193.957031 C 193.375 193.894531 193.082031 193.804688 192.796875 193.6875 C 192.511719 193.566406 192.242188 193.417969 191.988281 193.246094 C 191.730469 193.074219 191.496094 192.875 191.277344 192.65625 C 191.0625 192.433594 190.871094 192.195312 190.703125 191.933594 C 190.53125 191.675781 190.390625 191.402344 190.277344 191.117188 C 190.164062 190.828125 190.078125 190.53125 190.023438 190.226562 C 189.96875 189.921875 189.945312 189.617188 189.953125 189.308594 Z M 198.335938 189.308594 L 198.335938 189.273438 C 198.34375 189.019531 198.328125 188.769531 198.285156 188.519531 C 198.242188 188.269531 198.179688 188.027344 198.089844 187.792969 C 198 187.554688 197.886719 187.332031 197.753906 187.117188 C 197.617188 186.902344 197.464844 186.703125 197.289062 186.519531 C 197.117188 186.335938 196.925781 186.171875 196.71875 186.027344 C 196.511719 185.882812 196.292969 185.757812 196.0625 185.65625 C 195.832031 185.554688 195.59375 185.480469 195.34375 185.425781 C 195.097656 185.371094 194.847656 185.339844 194.597656 185.335938 C 192.441406 185.335938 190.894531 187.101562 190.894531 189.238281 L 190.894531 189.273438 C 190.886719 189.523438 190.902344 189.777344 190.945312 190.023438 C 190.984375 190.273438 191.050781 190.515625 191.140625 190.753906 C 191.230469 190.988281 191.34375 191.214844 191.476562 191.429688 C 191.613281 191.640625 191.765625 191.839844 191.941406 192.023438 C 192.113281 192.207031 192.304688 192.371094 192.511719 192.515625 C 192.71875 192.660156 192.9375 192.785156 193.167969 192.886719 C 193.398438 192.988281 193.636719 193.066406 193.882812 193.121094 C 194.128906 193.175781 194.378906 193.203125 194.632812 193.207031 C 196.785156 193.203125 198.335938 191.445312 198.335938 189.308594 Z M 198.335938 189.308594 " fill-opacity="1" fill-rule="nonzero"/><path fill="#000000" d="M 205.519531 184.730469 L 206.394531 184.730469 L 206.394531 187.308594 C 207.105469 185.691406 208.617188 184.523438 210.414062 184.589844 L 210.414062 185.546875 L 210.328125 185.546875 C 208.226562 185.546875 206.394531 187.140625 206.394531 190.09375 L 206.394531 193.8125 L 205.519531 193.8125 Z M 205.519531 184.730469 " fill-opacity="1" fill-rule="nonzero"/><path fill="#000000" d="M 216.199219 184.730469 L 217.070312 184.730469 L 217.070312 187.308594 C 217.785156 185.691406 219.296875 184.523438 221.09375 184.589844 L 221.09375 185.546875 L 221.003906 185.546875 C 218.90625 185.546875 217.070312 187.140625 217.070312 190.09375 L 217.070312 193.8125 L 216.199219 193.8125 Z M 216.199219 184.730469 " fill-opacity="1" fill-rule="nonzero"/><path fill="#000000" d="M 225.808594 189.289062 L 225.808594 189.253906 C 225.808594 186.617188 227.65625 184.515625 230.117188 184.515625 C 232.660156 184.515625 234.277344 186.582031 234.277344 189.273438 C 234.289062 189.390625 234.289062 189.507812 234.277344 189.625 L 226.75 189.625 C 226.910156 191.890625 228.527344 193.207031 230.332031 193.207031 C 230.929688 193.210938 231.5 193.085938 232.042969 192.835938 C 232.585938 192.589844 233.054688 192.238281 233.445312 191.78125 L 234.046875 192.316406 C 233.585938 192.871094 233.023438 193.296875 232.367188 193.597656 C 231.707031 193.898438 231.015625 194.042969 230.292969 194.027344 C 227.871094 194.027344 225.808594 192.121094 225.808594 189.289062 Z M 233.335938 188.84375 C 233.214844 187.007812 232.144531 185.316406 230.078125 185.316406 C 228.28125 185.316406 226.898438 186.832031 226.734375 188.84375 Z M 233.335938 188.84375 " fill-opacity="1" fill-rule="nonzero"/><path fill="#000000" d="M 240.863281 191.480469 L 240.863281 185.53125 L 239.546875 185.53125 L 239.546875 184.734375 L 240.863281 184.734375 L 240.863281 181.832031 L 241.734375 181.832031 L 241.734375 184.734375 L 244.917969 184.734375 L 244.917969 185.53125 L 241.734375 185.53125 L 241.734375 191.390625 C 241.734375 192.691406 242.503906 193.152344 243.550781 193.152344 C 244.019531 193.148438 244.464844 193.042969 244.882812 192.832031 L 244.882812 193.652344 C 244.417969 193.871094 243.925781 193.980469 243.410156 193.972656 C 242.011719 193.972656 240.863281 193.203125 240.863281 191.480469 Z M 240.863281 191.480469 " fill-opacity="1" fill-rule="nonzero"/><path fill="#000000" d="M 250.167969 189.308594 L 250.167969 189.273438 C 250.164062 188.960938 250.191406 188.652344 250.25 188.347656 C 250.304688 188.042969 250.390625 187.746094 250.507812 187.457031 C 250.625 187.171875 250.765625 186.898438 250.9375 186.636719 C 251.109375 186.378906 251.300781 186.136719 251.519531 185.917969 C 251.738281 185.695312 251.976562 185.496094 252.230469 185.324219 C 252.488281 185.148438 252.761719 185.003906 253.046875 184.882812 C 253.332031 184.761719 253.628906 184.671875 253.933594 184.609375 C 254.234375 184.546875 254.542969 184.519531 254.855469 184.515625 C 255.160156 184.515625 255.46875 184.546875 255.769531 184.605469 C 256.070312 184.664062 256.363281 184.753906 256.648438 184.871094 C 256.933594 184.992188 257.203125 185.136719 257.460938 185.308594 C 257.714844 185.480469 257.953125 185.675781 258.167969 185.894531 C 258.386719 186.113281 258.578125 186.351562 258.746094 186.609375 C 258.917969 186.867188 259.058594 187.136719 259.175781 187.425781 C 259.289062 187.710938 259.375 188.003906 259.429688 188.308594 C 259.488281 188.609375 259.515625 188.917969 259.511719 189.222656 L 259.511719 189.261719 C 259.515625 189.570312 259.492188 189.878906 259.433594 190.1875 C 259.378906 190.492188 259.292969 190.789062 259.179688 191.078125 C 259.0625 191.367188 258.921875 191.644531 258.75 191.90625 C 258.582031 192.164062 258.386719 192.40625 258.167969 192.628906 C 257.953125 192.851562 257.714844 193.050781 257.457031 193.226562 C 257.199219 193.398438 256.925781 193.546875 256.640625 193.667969 C 256.355469 193.789062 256.058594 193.878906 255.753906 193.941406 C 255.449219 194.003906 255.140625 194.035156 254.828125 194.035156 C 254.519531 194.035156 254.214844 194.007812 253.910156 193.945312 C 253.609375 193.886719 253.3125 193.796875 253.027344 193.679688 C 252.742188 193.558594 252.472656 193.414062 252.214844 193.242188 C 251.960938 193.066406 251.722656 192.871094 251.507812 192.652344 C 251.289062 192.429688 251.097656 192.191406 250.925781 191.933594 C 250.757812 191.675781 250.617188 191.402344 250.5 191.113281 C 250.386719 190.828125 250.300781 190.53125 250.246094 190.226562 C 250.1875 189.925781 250.164062 189.617188 250.167969 189.308594 Z M 258.550781 189.308594 L 258.550781 189.273438 C 258.5625 189.019531 258.542969 188.769531 258.503906 188.519531 C 258.460938 188.269531 258.398438 188.027344 258.308594 187.792969 C 258.21875 187.554688 258.105469 187.332031 257.972656 187.117188 C 257.835938 186.902344 257.683594 186.703125 257.507812 186.519531 C 257.335938 186.339844 257.144531 186.171875 256.9375 186.027344 C 256.734375 185.882812 256.515625 185.761719 256.28125 185.65625 C 256.050781 185.554688 255.8125 185.480469 255.566406 185.425781 C 255.320312 185.371094 255.070312 185.339844 254.816406 185.335938 C 252.664062 185.335938 251.117188 187.101562 251.117188 189.238281 L 251.117188 189.273438 C 251.105469 189.523438 251.125 189.777344 251.164062 190.023438 C 251.207031 190.273438 251.273438 190.515625 251.363281 190.753906 C 251.453125 190.988281 251.5625 191.214844 251.699219 191.429688 C 251.832031 191.640625 251.988281 191.839844 252.160156 192.023438 C 252.335938 192.207031 252.523438 192.371094 252.730469 192.515625 C 252.9375 192.660156 253.15625 192.785156 253.386719 192.886719 C 253.621094 192.988281 253.859375 193.066406 254.105469 193.121094 C 254.351562 193.175781 254.601562 193.203125 254.855469 193.207031 C 257.003906 193.203125 258.550781 191.445312 258.550781 189.308594 Z M 258.550781 189.308594 " fill-opacity="1" fill-rule="nonzero"/><path fill="#000000" d="M 265.742188 184.730469 L 266.617188 184.730469 L 266.617188 187.308594 C 267.328125 185.691406 268.839844 184.523438 270.636719 184.589844 L 270.636719 185.546875 L 270.550781 185.546875 C 268.445312 185.546875 266.617188 187.140625 266.617188 190.09375 L 266.617188 193.8125 L 265.742188 193.8125 Z M 265.742188 184.730469 " fill-opacity="1" fill-rule="nonzero"/><path fill="#000000" d="M 275.226562 191.179688 L 275.226562 191.140625 C 275.226562 189.253906 276.847656 188.1875 279.203125 188.1875 C 280.222656 188.179688 281.226562 188.3125 282.210938 188.582031 L 282.210938 188.1875 C 282.210938 186.351562 281.089844 185.402344 279.222656 185.402344 C 278.210938 185.40625 277.261719 185.648438 276.375 186.128906 L 276.050781 185.363281 C 277.0625 184.847656 278.136719 184.582031 279.273438 184.570312 C 280.503906 184.570312 281.480469 184.90625 282.140625 185.5625 C 282.816406 186.285156 283.125 187.140625 283.066406 188.128906 L 283.066406 193.792969 L 282.210938 193.792969 L 282.210938 192.28125 C 281.8125 192.839844 281.304688 193.269531 280.691406 193.574219 C 280.078125 193.882812 279.425781 194.027344 278.742188 194.007812 C 277.042969 194.027344 275.226562 193.0625 275.226562 191.179688 Z M 282.21875 190.410156 L 282.21875 189.378906 C 281.210938 189.113281 280.1875 188.980469 279.140625 188.980469 C 277.222656 188.980469 276.152344 189.835938 276.152344 191.097656 L 276.152344 191.132812 C 276.152344 192.453125 277.398438 193.21875 278.789062 193.21875 C 280.636719 193.203125 282.21875 192.066406 282.21875 190.417969 Z M 282.21875 190.410156 " fill-opacity="1" fill-rule="nonzero"/></svg>