<svg xmlns="http://www.w3.org/2000/svg" xmlns:xlink="http://www.w3.org/1999/xlink" width="500" zoomAndPan="magnify" viewBox="0 0 375 374.999991" height="500" preserveAspectRatio="xMidYMid meet" version="1.0"><path fill="#98523c" d="M 27.179688 248.402344 L 25.242188 246.976562 L 95.402344 151.921875 L 95.402344 224.8125 L 92.996094 224.8125 L 92.996094 159.234375 Z M 27.179688 248.402344 " fill-opacity="1" fill-rule="nonzero"/><path fill="#98523c" d="M 14.175781 224.8125 L 11.769531 224.8125 L 11.769531 136.78125 L 52.6875 193.855469 L 102.25 125.371094 L 104.199219 126.78125 L 52.675781 197.972656 L 14.175781 144.269531 Z M 14.175781 224.8125 " fill-opacity="1" fill-rule="nonzero"/><path fill="#98523c" d="M 30.070312 224.101562 L 51.722656 195.203125 L 53.648438 196.644531 L 31.992188 225.546875 Z M 30.070312 224.101562 " fill-opacity="1" fill-rule="nonzero"/><path fill="#98523c" d="M 126.394531 196.195312 L 134.996094 152.234375 L 149.019531 184.015625 L 163.550781 152.234375 L 171.277344 196.195312 L 164.957031 196.195312 L 161.011719 171.523438 L 148.917969 198.089844 L 137.164062 171.5 L 132.789062 196.207031 Z M 126.394531 196.195312 " fill-opacity="1" fill-rule="nonzero"/><path fill="#98523c" d="M 177.894531 175.566406 C 177.894531 169.808594 180.003906 164.863281 184.222656 160.734375 C 185.207031 159.734375 186.285156 158.84375 187.453125 158.058594 C 188.621094 157.277344 189.855469 156.617188 191.15625 156.085938 C 192.457031 155.554688 193.800781 155.15625 195.179688 154.894531 C 196.5625 154.632812 197.957031 154.515625 199.359375 154.535156 C 205.191406 154.535156 210.1875 156.621094 214.339844 160.789062 C 215.347656 161.757812 216.25 162.820312 217.039062 163.976562 C 217.832031 165.128906 218.496094 166.351562 219.035156 167.644531 C 219.574219 168.9375 219.976562 170.269531 220.242188 171.644531 C 220.507812 173.019531 220.632812 174.40625 220.613281 175.804688 C 220.636719 177.203125 220.515625 178.585938 220.25 179.960938 C 219.984375 181.332031 219.582031 182.664062 219.039062 183.949219 C 218.496094 185.238281 217.828125 186.457031 217.03125 187.605469 C 216.234375 188.753906 215.328125 189.808594 214.3125 190.765625 C 210.097656 194.882812 205.007812 196.9375 199.042969 196.9375 C 193.765625 196.9375 189.03125 195.109375 184.832031 191.453125 C 180.210938 187.414062 177.898438 182.117188 177.894531 175.566406 Z M 184.113281 175.644531 C 184.113281 180.15625 185.632812 183.871094 188.667969 186.789062 C 191.703125 189.707031 195.1875 191.164062 199.121094 191.164062 C 201.160156 191.207031 203.125 190.84375 205.011719 190.070312 C 206.898438 189.296875 208.550781 188.175781 209.972656 186.714844 C 211.425781 185.269531 212.53125 183.59375 213.300781 181.691406 C 214.066406 179.789062 214.429688 177.816406 214.390625 175.765625 C 214.390625 171.402344 212.933594 167.75 210.019531 164.804688 C 207.101562 161.855469 203.523438 160.371094 199.28125 160.355469 C 197.253906 160.3125 195.304688 160.679688 193.429688 161.453125 C 191.558594 162.226562 189.917969 163.34375 188.507812 164.804688 C 185.582031 167.722656 184.117188 171.335938 184.113281 175.644531 Z M 184.113281 175.644531 " fill-opacity="1" fill-rule="nonzero"/><path fill="#98523c" d="M 234.535156 155.304688 L 234.535156 179.933594 C 234.535156 183.449219 235.105469 186.019531 236.253906 187.644531 C 237.964844 189.992188 240.375 191.164062 243.480469 191.164062 C 246.585938 191.164062 249.003906 189.992188 250.730469 187.644531 C 251.878906 186.070312 252.453125 183.5 252.453125 179.933594 L 252.453125 155.304688 L 258.621094 155.304688 L 258.621094 181.628906 C 258.621094 185.9375 257.277344 189.484375 254.59375 192.273438 C 254.234375 192.644531 253.855469 192.992188 253.460938 193.324219 C 253.0625 193.652344 252.652344 193.964844 252.226562 194.253906 C 251.800781 194.542969 251.359375 194.808594 250.90625 195.054688 C 250.453125 195.300781 249.988281 195.523438 249.511719 195.722656 C 249.039062 195.925781 248.554688 196.101562 248.0625 196.25 C 247.566406 196.402344 247.070312 196.53125 246.5625 196.632812 C 246.058594 196.734375 245.546875 196.808594 245.035156 196.859375 C 244.523438 196.910156 244.007812 196.9375 243.492188 196.9375 C 242.976562 196.9375 242.460938 196.910156 241.949219 196.859375 C 241.4375 196.808594 240.925781 196.734375 240.421875 196.632812 C 239.917969 196.53125 239.417969 196.402344 238.925781 196.25 C 238.429688 196.101562 237.949219 195.925781 237.472656 195.722656 C 236.996094 195.523438 236.53125 195.300781 236.078125 195.054688 C 235.625 194.808594 235.1875 194.542969 234.757812 194.253906 C 234.332031 193.964844 233.921875 193.652344 233.523438 193.324219 C 233.128906 192.992188 232.75 192.644531 232.390625 192.273438 C 229.710938 189.488281 228.367188 185.9375 228.367188 181.628906 L 228.367188 155.304688 Z M 234.535156 155.304688 " fill-opacity="1" fill-rule="nonzero"/><path fill="#98523c" d="M 282.253906 178.769531 L 294.902344 196.195312 L 287.347656 196.195312 L 275.671875 179.457031 L 274.5625 179.457031 L 274.5625 196.195312 L 268.394531 196.195312 L 268.394531 155.304688 L 275.621094 155.304688 C 281.019531 155.304688 284.917969 156.320312 287.316406 158.351562 C 289.96875 160.613281 291.292969 163.597656 291.292969 167.300781 C 291.328125 168.652344 291.128906 169.96875 290.703125 171.253906 C 290.277344 172.535156 289.644531 173.707031 288.808594 174.769531 C 287.988281 175.808594 287.015625 176.667969 285.886719 177.355469 C 284.761719 178.042969 283.546875 178.515625 282.253906 178.769531 Z M 274.578125 174.082031 L 276.535156 174.082031 C 282.367188 174.082031 285.28125 171.847656 285.28125 167.382812 C 285.28125 163.199219 282.441406 161.109375 276.761719 161.105469 L 274.566406 161.105469 Z M 274.578125 174.082031 " fill-opacity="1" fill-rule="nonzero"/><path fill="#98523c" d="M 329.382812 186.261719 L 311.886719 186.261719 L 307.332031 196.210938 L 300.691406 196.210938 L 320.914062 152.753906 L 340.398438 196.210938 L 333.636719 196.210938 Z M 326.871094 180.464844 L 320.808594 166.5625 L 314.445312 180.464844 Z M 326.871094 180.464844 " fill-opacity="1" fill-rule="nonzero"/><path fill="#98523c" d="M 176.496094 216.832031 L 176.496094 216.796875 C 176.488281 216.316406 176.554688 215.839844 176.691406 215.378906 C 176.832031 214.914062 177.039062 214.484375 177.308594 214.085938 C 177.582031 213.6875 177.910156 213.335938 178.289062 213.039062 C 178.667969 212.742188 179.085938 212.507812 179.539062 212.339844 C 179.992188 212.171875 180.457031 212.074219 180.941406 212.050781 C 181.421875 212.027344 181.898438 212.078125 182.363281 212.199219 C 182.832031 212.324219 183.269531 212.515625 183.675781 212.773438 C 184.085938 213.03125 184.445312 213.347656 184.753906 213.71875 L 184.128906 214.359375 C 183.335938 213.5625 182.460938 212.863281 181.109375 212.863281 C 179.039062 212.863281 177.441406 214.589844 177.441406 216.761719 L 177.441406 216.796875 C 177.425781 217.304688 177.511719 217.796875 177.691406 218.273438 C 177.875 218.75 178.140625 219.171875 178.488281 219.539062 C 178.839844 219.910156 179.246094 220.195312 179.710938 220.402344 C 180.175781 220.609375 180.664062 220.71875 181.171875 220.730469 C 181.765625 220.710938 182.328125 220.570312 182.859375 220.304688 C 183.394531 220.042969 183.84375 219.675781 184.21875 219.214844 L 184.824219 219.75 C 183.894531 220.800781 182.792969 221.550781 181.121094 221.550781 C 180.8125 221.546875 180.511719 221.511719 180.210938 221.449219 C 179.910156 221.386719 179.621094 221.296875 179.335938 221.175781 C 179.054688 221.054688 178.789062 220.910156 178.535156 220.734375 C 178.28125 220.5625 178.046875 220.367188 177.832031 220.148438 C 177.617188 219.929688 177.425781 219.691406 177.257812 219.4375 C 177.089844 219.179688 176.949219 218.910156 176.835938 218.625 C 176.71875 218.339844 176.632812 218.046875 176.578125 217.746094 C 176.519531 217.445312 176.492188 217.140625 176.496094 216.832031 Z M 176.496094 216.832031 " fill-opacity="1" fill-rule="nonzero"/><path fill="#98523c" d="M 189.953125 216.832031 L 189.953125 216.796875 C 189.941406 216.484375 189.960938 216.175781 190.015625 215.867188 C 190.066406 215.558594 190.148438 215.261719 190.261719 214.96875 C 190.371094 214.679688 190.511719 214.402344 190.679688 214.136719 C 190.847656 213.875 191.039062 213.628906 191.253906 213.40625 C 191.472656 213.179688 191.707031 212.980469 191.964844 212.800781 C 192.222656 212.625 192.496094 212.476562 192.78125 212.351562 C 193.066406 212.230469 193.363281 212.136719 193.671875 212.074219 C 193.976562 212.011719 194.285156 211.976562 194.597656 211.976562 C 194.910156 211.976562 195.21875 212.003906 195.523438 212.066406 C 195.828125 212.128906 196.125 212.21875 196.414062 212.339844 C 196.703125 212.457031 196.976562 212.605469 197.234375 212.78125 C 197.492188 212.957031 197.730469 213.15625 197.949219 213.378906 C 198.164062 213.601562 198.359375 213.84375 198.53125 214.105469 C 198.699219 214.367188 198.839844 214.644531 198.953125 214.9375 C 199.070312 215.226562 199.152344 215.523438 199.207031 215.832031 C 199.261719 216.140625 199.285156 216.449219 199.277344 216.761719 L 199.277344 216.796875 C 199.28125 217.109375 199.257812 217.417969 199.203125 217.722656 C 199.144531 218.03125 199.058594 218.328125 198.945312 218.617188 C 198.832031 218.90625 198.6875 219.179688 198.519531 219.441406 C 198.347656 219.703125 198.15625 219.945312 197.9375 220.167969 C 197.71875 220.390625 197.480469 220.585938 197.222656 220.761719 C 196.964844 220.9375 196.695312 221.085938 196.40625 221.207031 C 196.121094 221.328125 195.824219 221.417969 195.519531 221.480469 C 195.214844 221.542969 194.90625 221.574219 194.597656 221.574219 C 194.289062 221.574219 193.980469 221.542969 193.679688 221.480469 C 193.375 221.421875 193.082031 221.332031 192.796875 221.210938 C 192.511719 221.09375 192.242188 220.945312 191.988281 220.773438 C 191.730469 220.597656 191.496094 220.402344 191.277344 220.179688 C 191.0625 219.960938 190.871094 219.71875 190.703125 219.460938 C 190.53125 219.203125 190.390625 218.929688 190.277344 218.640625 C 190.164062 218.355469 190.078125 218.058594 190.023438 217.753906 C 189.96875 217.449219 189.945312 217.144531 189.953125 216.832031 Z M 198.335938 216.832031 L 198.335938 216.796875 C 198.34375 216.546875 198.328125 216.292969 198.285156 216.046875 C 198.242188 215.796875 198.179688 215.554688 198.089844 215.316406 C 198 215.082031 197.886719 214.855469 197.753906 214.640625 C 197.617188 214.429688 197.464844 214.230469 197.289062 214.046875 C 197.117188 213.863281 196.925781 213.699219 196.71875 213.554688 C 196.511719 213.410156 196.292969 213.285156 196.0625 213.183594 C 195.832031 213.082031 195.59375 213.003906 195.34375 212.949219 C 195.097656 212.894531 194.847656 212.867188 194.597656 212.863281 C 192.441406 212.863281 190.894531 214.625 190.894531 216.761719 L 190.894531 216.796875 C 190.886719 217.050781 190.902344 217.300781 190.945312 217.550781 C 190.984375 217.800781 191.050781 218.042969 191.140625 218.277344 C 191.230469 218.515625 191.34375 218.738281 191.476562 218.953125 C 191.613281 219.167969 191.765625 219.367188 191.941406 219.550781 C 192.113281 219.730469 192.304688 219.898438 192.511719 220.042969 C 192.71875 220.1875 192.9375 220.3125 193.167969 220.414062 C 193.398438 220.515625 193.636719 220.589844 193.882812 220.644531 C 194.128906 220.699219 194.378906 220.730469 194.632812 220.734375 C 196.785156 220.730469 198.335938 218.96875 198.335938 216.832031 Z M 198.335938 216.832031 " fill-opacity="1" fill-rule="nonzero"/><path fill="#98523c" d="M 205.519531 212.257812 L 206.394531 212.257812 L 206.394531 214.835938 C 207.105469 213.214844 208.617188 212.050781 210.414062 212.113281 L 210.414062 213.074219 L 210.328125 213.074219 C 208.226562 213.074219 206.394531 214.664062 206.394531 217.617188 L 206.394531 221.339844 L 205.519531 221.339844 Z M 205.519531 212.257812 " fill-opacity="1" fill-rule="nonzero"/><path fill="#98523c" d="M 216.199219 212.257812 L 217.070312 212.257812 L 217.070312 214.835938 C 217.785156 213.214844 219.296875 212.050781 221.09375 212.113281 L 221.09375 213.074219 L 221.003906 213.074219 C 218.90625 213.074219 217.070312 214.664062 217.070312 217.617188 L 217.070312 221.339844 L 216.199219 221.339844 Z M 216.199219 212.257812 " fill-opacity="1" fill-rule="nonzero"/><path fill="#98523c" d="M 225.808594 216.8125 L 225.808594 216.777344 C 225.808594 214.144531 227.65625 212.042969 230.117188 212.042969 C 232.660156 212.042969 234.277344 214.109375 234.277344 216.796875 C 234.289062 216.914062 234.289062 217.035156 234.277344 217.152344 L 226.75 217.152344 C 226.910156 219.417969 228.527344 220.734375 230.332031 220.734375 C 230.929688 220.734375 231.5 220.613281 232.042969 220.363281 C 232.585938 220.113281 233.054688 219.761719 233.445312 219.308594 L 234.046875 219.84375 C 233.585938 220.398438 233.023438 220.824219 232.367188 221.125 C 231.707031 221.425781 231.015625 221.566406 230.292969 221.554688 C 227.871094 221.554688 225.808594 219.648438 225.808594 216.8125 Z M 233.335938 216.367188 C 233.214844 214.535156 232.144531 212.84375 230.078125 212.84375 C 228.28125 212.84375 226.898438 214.359375 226.734375 216.367188 Z M 233.335938 216.367188 " fill-opacity="1" fill-rule="nonzero"/><path fill="#98523c" d="M 240.863281 219.007812 L 240.863281 213.058594 L 239.546875 213.058594 L 239.546875 212.261719 L 240.863281 212.261719 L 240.863281 209.355469 L 241.734375 209.355469 L 241.734375 212.261719 L 244.917969 212.261719 L 244.917969 213.058594 L 241.734375 213.058594 L 241.734375 218.914062 C 241.734375 220.214844 242.503906 220.675781 243.550781 220.675781 C 244.019531 220.675781 244.464844 220.570312 244.882812 220.359375 L 244.882812 221.179688 C 244.417969 221.398438 243.925781 221.503906 243.410156 221.496094 C 242.011719 221.496094 240.863281 220.730469 240.863281 219.007812 Z M 240.863281 219.007812 " fill-opacity="1" fill-rule="nonzero"/><path fill="#98523c" d="M 250.167969 216.832031 L 250.167969 216.796875 C 250.164062 216.488281 250.191406 216.179688 250.25 215.875 C 250.304688 215.570312 250.390625 215.273438 250.507812 214.984375 C 250.625 214.695312 250.765625 214.421875 250.9375 214.164062 C 251.109375 213.902344 251.300781 213.664062 251.519531 213.441406 C 251.738281 213.222656 251.976562 213.023438 252.230469 212.847656 C 252.488281 212.675781 252.761719 212.527344 253.046875 212.410156 C 253.332031 212.289062 253.628906 212.199219 253.933594 212.136719 C 254.234375 212.074219 254.542969 212.042969 254.855469 212.042969 C 255.160156 212.042969 255.46875 212.070312 255.769531 212.132812 C 256.070312 212.191406 256.363281 212.28125 256.648438 212.398438 C 256.933594 212.515625 257.203125 212.660156 257.460938 212.832031 C 257.714844 213.003906 257.953125 213.199219 258.167969 213.417969 C 258.386719 213.640625 258.578125 213.878906 258.746094 214.132812 C 258.917969 214.390625 259.058594 214.664062 259.175781 214.949219 C 259.289062 215.234375 259.375 215.53125 259.429688 215.832031 C 259.488281 216.136719 259.515625 216.441406 259.511719 216.75 L 259.511719 216.785156 C 259.515625 217.097656 259.492188 217.40625 259.433594 217.710938 C 259.378906 218.019531 259.292969 218.316406 259.179688 218.605469 C 259.0625 218.894531 258.921875 219.167969 258.75 219.429688 C 258.582031 219.691406 258.386719 219.933594 258.167969 220.15625 C 257.953125 220.375 257.714844 220.574219 257.457031 220.75 C 257.199219 220.925781 256.925781 221.074219 256.640625 221.195312 C 256.355469 221.316406 256.058594 221.40625 255.753906 221.46875 C 255.449219 221.53125 255.140625 221.558594 254.828125 221.5625 C 254.519531 221.5625 254.214844 221.53125 253.910156 221.472656 C 253.609375 221.414062 253.3125 221.324219 253.027344 221.203125 C 252.742188 221.085938 252.472656 220.941406 252.214844 220.765625 C 251.960938 220.59375 251.722656 220.398438 251.507812 220.175781 C 251.289062 219.957031 251.097656 219.71875 250.925781 219.460938 C 250.757812 219.199219 250.617188 218.925781 250.5 218.640625 C 250.386719 218.351562 250.300781 218.058594 250.246094 217.753906 C 250.1875 217.449219 250.164062 217.144531 250.167969 216.832031 Z M 258.550781 216.832031 L 258.550781 216.796875 C 258.5625 216.546875 258.542969 216.292969 258.503906 216.046875 C 258.460938 215.796875 258.398438 215.554688 258.308594 215.316406 C 258.21875 215.082031 258.105469 214.855469 257.972656 214.640625 C 257.835938 214.429688 257.683594 214.230469 257.507812 214.046875 C 257.335938 213.863281 257.144531 213.699219 256.9375 213.554688 C 256.734375 213.410156 256.515625 213.285156 256.28125 213.183594 C 256.050781 213.082031 255.8125 213.003906 255.566406 212.949219 C 255.320312 212.894531 255.070312 212.867188 254.816406 212.863281 C 252.664062 212.863281 251.117188 214.625 251.117188 216.761719 L 251.117188 216.796875 C 251.105469 217.050781 251.125 217.300781 251.164062 217.550781 C 251.207031 217.800781 251.273438 218.042969 251.363281 218.277344 C 251.453125 218.515625 251.5625 218.738281 251.699219 218.953125 C 251.832031 219.167969 251.988281 219.367188 252.160156 219.550781 C 252.335938 219.730469 252.523438 219.898438 252.730469 220.042969 C 252.9375 220.1875 253.15625 220.3125 253.386719 220.414062 C 253.621094 220.515625 253.859375 220.589844 254.105469 220.644531 C 254.351562 220.699219 254.601562 220.730469 254.855469 220.734375 C 257.003906 220.730469 258.550781 218.96875 258.550781 216.832031 Z M 258.550781 216.832031 " fill-opacity="1" fill-rule="nonzero"/><path fill="#98523c" d="M 265.742188 212.257812 L 266.617188 212.257812 L 266.617188 214.835938 C 267.328125 213.214844 268.839844 212.050781 270.636719 212.113281 L 270.636719 213.074219 L 270.550781 213.074219 C 268.445312 213.074219 266.617188 214.664062 266.617188 217.617188 L 266.617188 221.339844 L 265.742188 221.339844 Z M 265.742188 212.257812 " fill-opacity="1" fill-rule="nonzero"/><path fill="#98523c" d="M 275.226562 218.703125 L 275.226562 218.667969 C 275.226562 216.777344 276.847656 215.710938 279.203125 215.710938 C 280.222656 215.703125 281.226562 215.835938 282.210938 216.109375 L 282.210938 215.710938 C 282.210938 213.878906 281.089844 212.925781 279.222656 212.925781 C 278.210938 212.933594 277.261719 213.175781 276.375 213.65625 L 276.050781 212.890625 C 277.0625 212.375 278.136719 212.109375 279.273438 212.09375 C 280.503906 212.09375 281.480469 212.433594 282.140625 213.089844 C 282.816406 213.8125 283.125 214.667969 283.066406 215.65625 L 283.066406 221.316406 L 282.210938 221.316406 L 282.210938 219.804688 C 281.8125 220.363281 281.304688 220.796875 280.691406 221.101562 C 280.078125 221.40625 279.425781 221.550781 278.742188 221.53125 C 277.042969 221.554688 275.226562 220.589844 275.226562 218.703125 Z M 282.21875 217.9375 L 282.21875 216.90625 C 281.210938 216.636719 280.1875 216.503906 279.140625 216.507812 C 277.222656 216.507812 276.152344 217.363281 276.152344 218.625 L 276.152344 218.660156 C 276.152344 219.976562 277.398438 220.746094 278.789062 220.746094 C 280.636719 220.730469 282.21875 219.589844 282.21875 217.945312 Z M 282.21875 217.9375 " fill-opacity="1" fill-rule="nonzero"/></svg>