<svg xmlns="http://www.w3.org/2000/svg" xmlns:xlink="http://www.w3.org/1999/xlink" width="527" zoomAndPan="magnify" viewBox="0 0 395.25 320.999992" height="428" preserveAspectRatio="xMidYMid meet" version="1.0"><defs><clipPath id="c1919c0963"><path d="M 13.941406 5.261719 L 53.722656 5.261719 L 53.722656 194.617188 L 13.941406 194.617188 Z M 13.941406 5.261719 " clip-rule="nonzero"/></clipPath><clipPath id="f9a107036c"><path d="M 27.753906 131.320312 L 27.753906 174.503906 C 27.753906 178.722656 29.757812 180.820312 33.785156 180.820312 C 37.746094 180.820312 39.71875 178.722656 39.71875 174.503906 L 39.71875 118.683594 C 39.71875 114.230469 35.4375 109.007812 26.878906 103.042969 C 18.253906 97.125 13.941406 89.898438 13.941406 81.355469 L 13.941406 24.691406 C 13.941406 11.738281 20.527344 5.261719 33.703125 5.261719 C 46.941406 5.261719 53.5625 11.738281 53.5625 24.691406 L 53.5625 68.050781 L 39.734375 68.050781 L 39.734375 24.691406 C 39.734375 20.539062 37.761719 18.46875 33.800781 18.46875 L 33.703125 18.46875 C 29.742188 18.46875 27.769531 20.539062 27.769531 24.691406 L 27.769531 81.066406 C 27.769531 85.222656 32.050781 90.28125 40.609375 96.25 C 49.234375 102.152344 53.546875 109.265625 53.546875 117.554688 L 53.546875 174.503906 C 53.546875 187.519531 46.960938 194.027344 33.800781 194.027344 C 20.5625 193.949219 13.941406 187.441406 13.941406 174.503906 L 13.941406 131.320312 Z M 27.753906 131.320312 " clip-rule="nonzero"/></clipPath><clipPath id="88e7998921"><path d="M 80.683594 9.035156 L 120.289062 9.035156 L 120.289062 22.144531 L 80.683594 22.144531 Z M 93.621094 22.144531 L 107.351562 22.144531 L 107.351562 194 L 93.621094 194 Z M 93.621094 22.144531 " clip-rule="nonzero"/></clipPath><clipPath id="5895871701"><path d="M 146.941406 9.035156 L 182 9.035156 L 182 22.144531 L 146.941406 22.144531 Z M 146.941406 22.144531 L 160.753906 22.144531 L 160.753906 94.832031 L 146.941406 94.832031 Z M 146.941406 94.832031 L 179.640625 94.832031 L 179.640625 108.023438 L 146.941406 108.023438 Z M 146.941406 108.023438 L 160.753906 108.023438 L 160.753906 180.804688 L 146.941406 180.804688 Z M 146.941406 180.804688 L 182 180.804688 L 182 194 L 146.941406 194 Z M 146.941406 180.804688 " clip-rule="nonzero"/></clipPath><clipPath id="b4de814f73"><path d="M 205.757812 9.203125 L 245.539062 9.203125 L 245.539062 194 L 205.757812 194 Z M 205.757812 9.203125 " clip-rule="nonzero"/></clipPath><clipPath id="38786cdc2c"><path d="M 205.757812 194.152344 L 219.125 9.203125 L 233.667969 9.203125 L 221.242188 180.355469 L 245.125 180.355469 L 245.125 194.152344 Z M 205.757812 194.152344 " clip-rule="nonzero"/></clipPath><clipPath id="c6b035c0aa"><path d="M 267.539062 9.203125 L 307 9.203125 L 307 194 L 267.539062 194 Z M 267.539062 9.203125 " clip-rule="nonzero"/></clipPath><clipPath id="93c1b1ccfe"><path d="M 267.539062 194.152344 L 280.902344 9.203125 L 295.449219 9.203125 L 283.019531 180.355469 L 306.90625 180.355469 L 306.90625 194.152344 Z M 267.539062 194.152344 " clip-rule="nonzero"/></clipPath><clipPath id="b9947a4108"><path d="M 329.316406 9.203125 L 381 9.203125 L 381 194 L 329.316406 194 Z M 329.316406 9.203125 " clip-rule="nonzero"/></clipPath><clipPath id="14a7033f2d"><path d="M 329.316406 194.152344 L 344.320312 9.203125 L 364.242188 9.203125 L 380.554688 194.007812 L 365.183594 194.007812 L 353.691406 39.4375 L 344.558594 194.007812 Z M 329.316406 194.152344 " clip-rule="nonzero"/></clipPath><clipPath id="ee790cf064"><path d="M 15.40625 252.261719 L 30 252.261719 L 30 320.683594 L 15.40625 320.683594 Z M 15.40625 252.261719 " clip-rule="nonzero"/></clipPath><clipPath id="ab232f414d"><path d="M 24.765625 275 L 24.765625 259.308594 C 24.765625 257.796875 24.046875 257.050781 22.617188 257.050781 L 22.570312 257.050781 C 21.136719 257.050781 20.421875 257.796875 20.421875 259.308594 L 20.421875 313.617188 C 20.421875 315.144531 21.136719 315.910156 22.570312 315.910156 C 24.03125 315.910156 24.765625 315.144531 24.765625 313.617188 L 24.765625 297.945312 L 29.777344 297.945312 L 29.777344 313.601562 C 29.777344 318.296875 27.375 320.652344 22.585938 320.683594 C 17.8125 320.683594 15.425781 318.328125 15.425781 313.601562 L 15.425781 259.308594 C 15.40625 254.617188 17.796875 252.261719 22.570312 252.261719 C 27.375 252.261719 29.777344 254.617188 29.777344 259.308594 L 29.777344 275.015625 Z M 24.765625 275 " clip-rule="nonzero"/></clipPath><clipPath id="8a666232aa"><path d="M 53.546875 252.910156 L 71 252.910156 L 71 320 L 53.546875 320 Z M 53.546875 252.910156 " clip-rule="nonzero"/></clipPath><clipPath id="01c276dd45"><path d="M 59.691406 303.113281 L 58.59375 320.011719 L 53.546875 320.011719 L 55.171875 296.269531 L 58.703125 252.910156 L 65.546875 252.910156 L 69.078125 296.207031 L 70.703125 320.011719 L 65.65625 320.011719 L 64.558594 303.113281 Z M 64.273438 298.324219 L 62.125 264.910156 L 59.976562 298.324219 Z M 64.273438 298.324219 " clip-rule="nonzero"/></clipPath><clipPath id="4a1be7a985"><path d="M 94.832031 252.910156 L 117 252.910156 L 117 320 L 94.832031 320 Z M 94.832031 252.910156 " clip-rule="nonzero"/></clipPath><clipPath id="a32867a31f"><path d="M 103.933594 320.011719 L 99.667969 267.613281 L 99.667969 320.011719 L 94.832031 320.011719 L 94.832031 252.910156 L 101.644531 252.910156 L 105.699219 309.445312 L 109.757812 252.910156 L 116.566406 252.910156 L 116.566406 320.011719 L 111.746094 320.011719 L 111.746094 267.613281 L 107.464844 320.011719 Z M 103.933594 320.011719 " clip-rule="nonzero"/></clipPath><clipPath id="a85de0ccb4"><path d="M 142.46875 252.910156 L 156.789062 252.910156 L 156.789062 320 L 142.46875 320 Z M 142.46875 252.910156 " clip-rule="nonzero"/></clipPath><clipPath id="f5a3a53b53"><path d="M 142.46875 252.910156 L 149.738281 252.910156 C 154.179688 252.910156 156.40625 255.265625 156.40625 259.960938 L 156.40625 281.742188 C 156.40625 285.210938 154.800781 287.441406 151.601562 288.441406 C 150.851562 288.664062 149.738281 288.792969 148.277344 288.792969 L 147.480469 288.792969 L 147.480469 320.011719 L 142.46875 320.011719 Z M 147.480469 257.667969 L 147.480469 284.003906 L 148.609375 284.003906 C 149.308594 284.003906 149.804688 283.957031 150.058594 283.859375 C 150.949219 283.527344 151.394531 282.808594 151.394531 281.742188 L 151.394531 259.960938 C 151.394531 258.433594 150.679688 257.667969 149.246094 257.667969 Z M 147.480469 257.667969 " clip-rule="nonzero"/></clipPath><clipPath id="d0e5d5ced1"><path d="M 181.421875 252.261719 L 196 252.261719 L 196 320.695312 L 181.421875 320.695312 Z M 181.421875 252.261719 " clip-rule="nonzero"/></clipPath><clipPath id="42645f605b"><path d="M 195.789062 313.621094 C 195.789062 318.3125 193.386719 320.667969 188.582031 320.699219 C 183.808594 320.699219 181.421875 318.347656 181.421875 313.621094 L 181.421875 259.3125 C 181.421875 254.617188 183.808594 252.261719 188.582031 252.261719 C 193.386719 252.261719 195.789062 254.617188 195.789062 259.3125 Z M 190.777344 259.3125 C 190.777344 257.800781 190.0625 257.050781 188.628906 257.050781 L 188.582031 257.050781 C 187.148438 257.050781 186.433594 257.800781 186.433594 259.3125 L 186.433594 313.621094 C 186.433594 315.148438 187.148438 315.910156 188.582031 315.910156 C 190.046875 315.910156 190.777344 315.148438 190.777344 313.621094 Z M 190.777344 259.3125 " clip-rule="nonzero"/></clipPath><clipPath id="2014cd2684"><path d="M 252.125 252.910156 L 267 252.910156 L 267 320 L 252.125 320 Z M 252.125 252.910156 " clip-rule="nonzero"/></clipPath><clipPath id="4079aaecb0"><path d="M 252.125 252.910156 L 259.824219 252.910156 C 264.28125 252.910156 266.492188 255.265625 266.492188 259.960938 L 266.492188 281.777344 C 266.492188 283.972656 265.570312 285.515625 263.738281 286.421875 C 265.570312 287.328125 266.492188 288.886719 266.492188 291.101562 L 266.492188 312.964844 C 266.492188 317.640625 264.167969 319.980469 259.507812 320.011719 L 252.125 320.011719 Z M 257.136719 257.667969 L 257.136719 284.035156 L 258.695312 284.035156 C 259.394531 284.035156 259.886719 283.988281 260.144531 283.890625 C 261.035156 283.542969 261.480469 282.84375 261.480469 281.777344 L 261.480469 259.960938 C 261.480469 258.433594 260.761719 257.667969 259.332031 257.667969 Z M 257.136719 288.824219 L 257.136719 315.222656 L 259.316406 315.222656 C 260.746094 315.222656 261.464844 314.476562 261.464844 312.964844 L 261.464844 291.117188 C 261.464844 290.050781 261.019531 289.335938 260.128906 289 C 259.871094 288.886719 259.378906 288.824219 258.679688 288.824219 Z M 257.136719 288.824219 " clip-rule="nonzero"/></clipPath><clipPath id="29f0b12887"><path d="M 292.03125 252.910156 L 304.984375 252.910156 L 304.984375 257.667969 L 292.03125 257.667969 Z M 292.03125 257.667969 L 297.042969 257.667969 L 297.042969 284.035156 L 292.03125 284.035156 Z M 292.03125 284.035156 L 303.882812 284.035156 L 303.882812 288.824219 L 292.03125 288.824219 Z M 292.03125 288.824219 L 297.042969 288.824219 L 297.042969 315.222656 L 292.03125 315.222656 Z M 292.03125 315.222656 L 304.984375 315.222656 L 304.984375 320 L 292.03125 320 Z M 292.03125 315.222656 " clip-rule="nonzero"/></clipPath><clipPath id="fe10ff237b"><path d="M 329.464844 252.910156 L 334.476562 252.910156 L 334.476562 315.222656 L 329.464844 315.222656 Z M 329.464844 315.222656 L 342.417969 315.222656 L 342.417969 320 L 329.464844 320 Z M 329.464844 315.222656 " clip-rule="nonzero"/></clipPath><clipPath id="00dc5cadaa"><path d="M 366.191406 252.261719 L 381 252.261719 L 381 320.695312 L 366.191406 320.695312 Z M 366.191406 252.261719 " clip-rule="nonzero"/></clipPath><clipPath id="914acc1722"><path d="M 380.5625 313.621094 C 380.5625 318.3125 378.160156 320.667969 373.367188 320.699219 C 368.59375 320.699219 366.207031 318.347656 366.207031 313.621094 L 366.207031 259.3125 C 366.191406 254.617188 368.578125 252.261719 373.351562 252.261719 C 378.160156 252.261719 380.5625 254.617188 380.5625 259.3125 Z M 375.546875 259.3125 C 375.546875 257.800781 374.832031 257.050781 373.402344 257.050781 L 373.351562 257.050781 C 371.921875 257.050781 371.203125 257.800781 371.203125 259.3125 L 371.203125 313.621094 C 371.203125 315.148438 371.921875 315.910156 373.351562 315.910156 C 374.816406 315.910156 375.546875 315.148438 375.546875 313.621094 Z M 375.546875 259.3125 " clip-rule="nonzero"/></clipPath></defs><g clip-path="url(#c1919c0963)"><g clip-path="url(#f9a107036c)"><path fill="#ffffff" d="M 13.941406 5.261719 L 53.722656 5.261719 L 53.722656 194.617188 L 13.941406 194.617188 Z M 13.941406 5.261719 " fill-opacity="1" fill-rule="nonzero"/></g></g><g clip-path="url(#88e7998921)"><path fill="#ffffff" d="M 80.683594 9.035156 L 120.464844 9.035156 L 120.464844 193.613281 L 80.683594 193.613281 Z M 80.683594 9.035156 " fill-opacity="1" fill-rule="nonzero"/></g><g clip-path="url(#5895871701)"><path fill="#ffffff" d="M 146.941406 9.035156 L 181.949219 9.035156 L 181.949219 193.613281 L 146.941406 193.613281 Z M 146.941406 9.035156 " fill-opacity="1" fill-rule="nonzero"/></g><g clip-path="url(#b4de814f73)"><g clip-path="url(#38786cdc2c)"><path fill="#ffffff" d="M 205.757812 9.203125 L 245.539062 9.203125 L 245.539062 193.785156 L 205.757812 193.785156 Z M 205.757812 9.203125 " fill-opacity="1" fill-rule="nonzero"/></g></g><g clip-path="url(#c6b035c0aa)"><g clip-path="url(#93c1b1ccfe)"><path fill="#ffffff" d="M 267.539062 9.203125 L 307.316406 9.203125 L 307.316406 193.785156 L 267.539062 193.785156 Z M 267.539062 9.203125 " fill-opacity="1" fill-rule="nonzero"/></g></g><g clip-path="url(#b9947a4108)"><g clip-path="url(#14a7033f2d)"><path fill="#ffffff" d="M 329.316406 9.203125 L 380.234375 9.203125 L 380.234375 193.785156 L 329.316406 193.785156 Z M 329.316406 9.203125 " fill-opacity="1" fill-rule="nonzero"/></g></g><g clip-path="url(#ee790cf064)"><g clip-path="url(#ab232f414d)"><path fill="#ffffff" d="M 15.40625 252.261719 L 29.730469 252.261719 L 29.730469 320.683594 L 15.40625 320.683594 Z M 15.40625 252.261719 " fill-opacity="1" fill-rule="nonzero"/></g></g><g clip-path="url(#8a666232aa)"><g clip-path="url(#01c276dd45)"><path fill="#ffffff" d="M 53.546875 252.910156 L 71.050781 252.910156 L 71.050781 319.742188 L 53.546875 319.742188 Z M 53.546875 252.910156 " fill-opacity="1" fill-rule="nonzero"/></g></g><g clip-path="url(#4a1be7a985)"><g clip-path="url(#a32867a31f)"><path fill="#ffffff" d="M 94.832031 252.910156 L 117.109375 252.910156 L 117.109375 319.742188 L 94.832031 319.742188 Z M 94.832031 252.910156 " fill-opacity="1" fill-rule="nonzero"/></g></g><g clip-path="url(#a85de0ccb4)"><g clip-path="url(#f5a3a53b53)"><path fill="#ffffff" d="M 142.46875 252.910156 L 156.789062 252.910156 L 156.789062 319.742188 L 142.46875 319.742188 Z M 142.46875 252.910156 " fill-opacity="1" fill-rule="nonzero"/></g></g><g clip-path="url(#d0e5d5ced1)"><g clip-path="url(#42645f605b)"><path fill="#ffffff" d="M 181.421875 252.261719 L 195.742188 252.261719 L 195.742188 320.683594 L 181.421875 320.683594 Z M 181.421875 252.261719 " fill-opacity="1" fill-rule="nonzero"/></g></g><g clip-path="url(#2014cd2684)"><g clip-path="url(#4079aaecb0)"><path fill="#ffffff" d="M 252.125 252.910156 L 266.445312 252.910156 L 266.445312 319.742188 L 252.125 319.742188 Z M 252.125 252.910156 " fill-opacity="1" fill-rule="nonzero"/></g></g><g clip-path="url(#29f0b12887)"><path fill="#ffffff" d="M 292.03125 252.910156 L 304.757812 252.910156 L 304.757812 319.742188 L 292.03125 319.742188 Z M 292.03125 252.910156 " fill-opacity="1" fill-rule="nonzero"/></g><g clip-path="url(#fe10ff237b)"><path fill="#ffffff" d="M 329.464844 252.910156 L 342.195312 252.910156 L 342.195312 319.742188 L 329.464844 319.742188 Z M 329.464844 252.910156 " fill-opacity="1" fill-rule="nonzero"/></g><g clip-path="url(#00dc5cadaa)"><g clip-path="url(#914acc1722)"><path fill="#ffffff" d="M 366.191406 252.261719 L 380.511719 252.261719 L 380.511719 320.683594 L 366.191406 320.683594 Z M 366.191406 252.261719 " fill-opacity="1" fill-rule="nonzero"/></g></g></svg>