<svg xmlns="http://www.w3.org/2000/svg" xmlns:xlink="http://www.w3.org/1999/xlink" width="527" zoomAndPan="magnify" viewBox="0 0 395.25 320.999992" height="428" preserveAspectRatio="xMidYMid meet" version="1.0"><defs><clipPath id="5a69ae190b"><path d="M 27.269531 14.25 L 64.15625 14.25 L 64.15625 189.835938 L 27.269531 189.835938 Z M 27.269531 14.25 " clip-rule="nonzero"/></clipPath><clipPath id="100318c102"><path d="M 40.078125 131.140625 L 40.078125 171.1875 C 40.078125 175.097656 41.9375 177.042969 45.667969 177.042969 C 49.34375 177.042969 51.171875 175.097656 51.171875 171.1875 L 51.171875 119.425781 C 51.171875 115.292969 47.203125 110.453125 39.265625 104.921875 C 31.269531 99.433594 27.269531 92.734375 27.269531 84.808594 L 27.269531 32.265625 C 27.269531 20.253906 33.378906 14.25 45.59375 14.25 C 57.871094 14.25 64.011719 20.253906 64.011719 32.265625 L 64.011719 72.472656 L 51.1875 72.472656 L 51.1875 32.265625 C 51.1875 28.414062 49.359375 26.496094 45.683594 26.496094 L 45.59375 26.496094 C 41.921875 26.496094 40.089844 28.414062 40.089844 32.265625 L 40.089844 84.542969 C 40.089844 88.394531 44.0625 93.085938 52 98.621094 C 59.996094 104.09375 63.996094 110.691406 63.996094 118.378906 L 63.996094 171.1875 C 63.996094 183.257812 57.886719 189.292969 45.683594 189.292969 C 33.40625 189.21875 27.269531 183.183594 27.269531 171.1875 L 27.269531 131.140625 Z M 40.078125 131.140625 " clip-rule="nonzero"/></clipPath><clipPath id="7fd8358892"><path d="M 89.160156 17.746094 L 125.882812 17.746094 L 125.882812 29.90625 L 89.160156 29.90625 Z M 101.15625 29.90625 L 113.886719 29.90625 L 113.886719 189 L 101.15625 189 Z M 101.15625 29.90625 " clip-rule="nonzero"/></clipPath><clipPath id="0ec98cc13f"><path d="M 150.597656 17.746094 L 183.722656 17.746094 L 183.722656 29.90625 L 150.597656 29.90625 Z M 150.597656 29.90625 L 163.40625 29.90625 L 163.40625 97.308594 L 150.597656 97.308594 Z M 150.597656 97.308594 L 180.921875 97.308594 L 180.921875 109.539062 L 150.597656 109.539062 Z M 150.597656 109.539062 L 163.40625 109.539062 L 163.40625 177.03125 L 150.597656 177.03125 Z M 150.597656 177.03125 L 183.722656 177.03125 L 183.722656 189 L 150.597656 189 Z M 150.597656 177.03125 " clip-rule="nonzero"/></clipPath><clipPath id="f3acb2f81b"><path d="M 205.140625 17.90625 L 242 17.90625 L 242 190 L 205.140625 190 Z M 205.140625 17.90625 " clip-rule="nonzero"/></clipPath><clipPath id="1c4b91f526"><path d="M 205.140625 189.40625 L 217.535156 17.90625 L 231.019531 17.90625 L 219.496094 176.613281 L 241.644531 176.613281 L 241.644531 189.40625 Z M 205.140625 189.40625 " clip-rule="nonzero"/></clipPath><clipPath id="28180bd224"><path d="M 262.425781 17.90625 L 299 17.90625 L 299 190 L 262.425781 190 Z M 262.425781 17.90625 " clip-rule="nonzero"/></clipPath><clipPath id="37ccb2099a"><path d="M 262.425781 189.40625 L 274.820312 17.90625 L 288.308594 17.90625 L 276.785156 176.613281 L 298.933594 176.613281 L 298.933594 189.40625 Z M 262.425781 189.40625 " clip-rule="nonzero"/></clipPath><clipPath id="98b657de15"><path d="M 319.714844 17.90625 L 367 17.90625 L 367 190 L 319.714844 190 Z M 319.714844 17.90625 " clip-rule="nonzero"/></clipPath><clipPath id="78dcf36f31"><path d="M 319.714844 189.40625 L 333.628906 17.90625 L 352.101562 17.90625 L 367.226562 189.273438 L 352.972656 189.273438 L 342.320312 45.941406 L 333.847656 189.273438 Z M 319.714844 189.40625 " clip-rule="nonzero"/></clipPath><clipPath id="93a08aa810"><path d="M 28.628906 243.289062 L 42 243.289062 L 42 306.738281 L 28.628906 306.738281 Z M 28.628906 243.289062 " clip-rule="nonzero"/></clipPath><clipPath id="8a3f59df1a"><path d="M 37.304688 264.375 L 37.304688 249.828125 C 37.304688 248.425781 36.640625 247.730469 35.3125 247.730469 L 35.269531 247.730469 C 33.941406 247.730469 33.277344 248.425781 33.277344 249.828125 L 33.277344 300.1875 C 33.277344 301.601562 33.941406 302.3125 35.269531 302.3125 C 36.625 302.3125 37.304688 301.601562 37.304688 300.1875 L 37.304688 285.652344 L 41.953125 285.652344 L 41.953125 300.171875 C 41.953125 304.523438 39.726562 306.707031 35.285156 306.738281 C 30.855469 306.738281 28.644531 304.554688 28.644531 300.171875 L 28.644531 249.828125 C 28.628906 245.472656 30.84375 243.289062 35.269531 243.289062 C 39.726562 243.289062 41.953125 245.472656 41.953125 249.828125 L 41.953125 264.390625 Z M 37.304688 264.375 " clip-rule="nonzero"/></clipPath><clipPath id="b17b3d167f"><path d="M 63.996094 243.894531 L 80 243.894531 L 80 306 L 63.996094 306 Z M 63.996094 243.894531 " clip-rule="nonzero"/></clipPath><clipPath id="6046922205"><path d="M 69.691406 290.445312 L 68.675781 306.113281 L 63.996094 306.113281 L 65.5 284.101562 L 68.777344 243.894531 L 75.121094 243.894531 L 78.398438 284.042969 L 79.902344 306.113281 L 75.226562 306.113281 L 74.207031 290.445312 Z M 73.941406 286.003906 L 71.949219 255.019531 L 69.957031 286.003906 Z M 73.941406 286.003906 " clip-rule="nonzero"/></clipPath><clipPath id="9faf774e51"><path d="M 102.277344 243.894531 L 122.9375 243.894531 L 122.9375 306 L 102.277344 306 Z M 102.277344 243.894531 " clip-rule="nonzero"/></clipPath><clipPath id="7a199e325b"><path d="M 110.71875 306.117188 L 106.765625 257.527344 L 106.765625 306.117188 L 102.277344 306.117188 L 102.277344 243.894531 L 108.59375 243.894531 L 112.355469 296.320312 L 116.121094 243.894531 L 122.433594 243.894531 L 122.433594 306.117188 L 117.964844 306.117188 L 117.964844 257.527344 L 113.996094 306.117188 Z M 110.71875 306.117188 " clip-rule="nonzero"/></clipPath><clipPath id="7818cda722"><path d="M 146.449219 243.894531 L 159.730469 243.894531 L 159.730469 306 L 146.449219 306 Z M 146.449219 243.894531 " clip-rule="nonzero"/></clipPath><clipPath id="dca67c0620"><path d="M 146.449219 243.894531 L 153.195312 243.894531 C 157.308594 243.894531 159.375 246.078125 159.375 250.429688 L 159.375 270.628906 C 159.375 273.847656 157.886719 275.914062 154.921875 276.839844 C 154.226562 277.046875 153.195312 277.167969 151.835938 277.167969 L 151.097656 277.167969 L 151.097656 306.117188 L 146.449219 306.117188 Z M 151.097656 248.304688 L 151.097656 272.726562 L 152.144531 272.726562 C 152.796875 272.726562 153.253906 272.679688 153.488281 272.59375 C 154.316406 272.28125 154.726562 271.617188 154.726562 270.628906 L 154.726562 250.429688 C 154.726562 249.011719 154.0625 248.304688 152.738281 248.304688 Z M 151.097656 248.304688 " clip-rule="nonzero"/></clipPath><clipPath id="2c4bc0570a"><path d="M 182.570312 243.292969 L 196 243.292969 L 196 307 L 182.570312 307 Z M 182.570312 243.292969 " clip-rule="nonzero"/></clipPath><clipPath id="a740cfd3e2"><path d="M 195.894531 300.1875 C 195.894531 304.539062 193.667969 306.726562 189.210938 306.753906 C 184.785156 306.753906 182.570312 304.570312 182.570312 300.1875 L 182.570312 249.828125 C 182.570312 245.476562 184.785156 243.292969 189.210938 243.292969 C 193.667969 243.292969 195.894531 245.476562 195.894531 249.828125 Z M 191.246094 249.828125 C 191.246094 248.425781 190.582031 247.734375 189.253906 247.734375 L 189.210938 247.734375 C 187.882812 247.734375 187.21875 248.425781 187.21875 249.828125 L 187.21875 300.1875 C 187.21875 301.605469 187.882812 302.3125 189.210938 302.3125 C 190.570312 302.3125 191.246094 301.605469 191.246094 300.1875 Z M 191.246094 249.828125 " clip-rule="nonzero"/></clipPath><clipPath id="9d46bdc01e"><path d="M 248.132812 243.894531 L 262 243.894531 L 262 306 L 248.132812 306 Z M 248.132812 243.894531 " clip-rule="nonzero"/></clipPath><clipPath id="6c1693f397"><path d="M 248.132812 243.894531 L 255.273438 243.894531 C 259.40625 243.894531 261.457031 246.078125 261.457031 250.429688 L 261.457031 270.660156 C 261.457031 272.695312 260.601562 274.125 258.90625 274.96875 C 260.601562 275.808594 261.457031 277.253906 261.457031 279.304688 L 261.457031 299.578125 C 261.457031 303.917969 259.304688 306.085938 254.980469 306.117188 L 248.132812 306.117188 Z M 252.78125 248.304688 L 252.78125 272.753906 L 254.226562 272.753906 C 254.875 272.753906 255.335938 272.710938 255.570312 272.621094 C 256.398438 272.296875 256.808594 271.648438 256.808594 270.660156 L 256.808594 250.429688 C 256.808594 249.011719 256.144531 248.304688 254.816406 248.304688 Z M 252.78125 277.195312 L 252.78125 301.675781 L 254.804688 301.675781 C 256.132812 301.675781 256.796875 300.980469 256.796875 299.578125 L 256.796875 279.320312 C 256.796875 278.332031 256.382812 277.667969 255.554688 277.359375 C 255.320312 277.253906 254.863281 277.195312 254.214844 277.195312 Z M 252.78125 277.195312 " clip-rule="nonzero"/></clipPath><clipPath id="ee6969554e"><path d="M 285.140625 243.894531 L 297 243.894531 L 297 248.304688 L 285.140625 248.304688 Z M 285.140625 248.304688 L 289.785156 248.304688 L 289.785156 272.753906 L 285.140625 272.753906 Z M 285.140625 272.753906 L 296.132812 272.753906 L 296.132812 277.195312 L 285.140625 277.195312 Z M 285.140625 277.195312 L 289.785156 277.195312 L 289.785156 301.675781 L 285.140625 301.675781 Z M 285.140625 301.675781 L 297 301.675781 L 297 306 L 285.140625 306 Z M 285.140625 301.675781 " clip-rule="nonzero"/></clipPath><clipPath id="c426f0abfc"><path d="M 319.851562 243.894531 L 324.5 243.894531 L 324.5 301.675781 L 319.851562 301.675781 Z M 319.851562 301.675781 L 331.863281 301.675781 L 331.863281 306 L 319.851562 306 Z M 319.851562 301.675781 " clip-rule="nonzero"/></clipPath><clipPath id="fab57613cc"><path d="M 353.910156 243.292969 L 368 243.292969 L 368 307 L 353.910156 307 Z M 353.910156 243.292969 " clip-rule="nonzero"/></clipPath><clipPath id="c5a923e141"><path d="M 367.234375 300.1875 C 367.234375 304.539062 365.003906 306.726562 360.5625 306.753906 C 356.136719 306.753906 353.925781 304.570312 353.925781 300.1875 L 353.925781 249.828125 C 353.910156 245.476562 356.121094 243.292969 360.550781 243.292969 C 365.003906 243.292969 367.234375 245.476562 367.234375 249.828125 Z M 362.585938 249.828125 C 362.585938 248.425781 361.921875 247.734375 360.59375 247.734375 L 360.550781 247.734375 C 359.222656 247.734375 358.558594 248.425781 358.558594 249.828125 L 358.558594 300.1875 C 358.558594 301.605469 359.222656 302.3125 360.550781 302.3125 C 361.90625 302.3125 362.585938 301.605469 362.585938 300.1875 Z M 362.585938 249.828125 " clip-rule="nonzero"/></clipPath></defs><g clip-path="url(#5a69ae190b)"><g clip-path="url(#100318c102)"><path fill="#ffffff" d="M 27.269531 14.25 L 64.15625 14.25 L 64.15625 189.835938 L 27.269531 189.835938 Z M 27.269531 14.25 " fill-opacity="1" fill-rule="nonzero"/></g></g><g clip-path="url(#7fd8358892)"><path fill="#ffffff" d="M 89.160156 17.746094 L 126.046875 17.746094 L 126.046875 188.90625 L 89.160156 188.90625 Z M 89.160156 17.746094 " fill-opacity="1" fill-rule="nonzero"/></g><g clip-path="url(#0ec98cc13f)"><path fill="#ffffff" d="M 150.597656 17.746094 L 183.058594 17.746094 L 183.058594 188.90625 L 150.597656 188.90625 Z M 150.597656 17.746094 " fill-opacity="1" fill-rule="nonzero"/></g><g clip-path="url(#f3acb2f81b)"><g clip-path="url(#1c4b91f526)"><path fill="#ffffff" d="M 205.140625 17.90625 L 242.027344 17.90625 L 242.027344 189.066406 L 205.140625 189.066406 Z M 205.140625 17.90625 " fill-opacity="1" fill-rule="nonzero"/></g></g><g clip-path="url(#28180bd224)"><g clip-path="url(#37ccb2099a)"><path fill="#ffffff" d="M 262.425781 17.90625 L 299.316406 17.90625 L 299.316406 189.066406 L 262.425781 189.066406 Z M 262.425781 17.90625 " fill-opacity="1" fill-rule="nonzero"/></g></g><g clip-path="url(#98b657de15)"><g clip-path="url(#78dcf36f31)"><path fill="#ffffff" d="M 319.714844 17.90625 L 366.929688 17.90625 L 366.929688 189.066406 L 319.714844 189.066406 Z M 319.714844 17.90625 " fill-opacity="1" fill-rule="nonzero"/></g></g><g clip-path="url(#93a08aa810)"><g clip-path="url(#8a3f59df1a)"><path fill="#ffffff" d="M 28.628906 243.289062 L 41.910156 243.289062 L 41.910156 306.738281 L 28.628906 306.738281 Z M 28.628906 243.289062 " fill-opacity="1" fill-rule="nonzero"/></g></g><g clip-path="url(#b17b3d167f)"><g clip-path="url(#6046922205)"><path fill="#ffffff" d="M 63.996094 243.894531 L 80.226562 243.894531 L 80.226562 305.863281 L 63.996094 305.863281 Z M 63.996094 243.894531 " fill-opacity="1" fill-rule="nonzero"/></g></g><g clip-path="url(#9faf774e51)"><g clip-path="url(#7a199e325b)"><path fill="#ffffff" d="M 102.277344 243.894531 L 122.9375 243.894531 L 122.9375 305.867188 L 102.277344 305.867188 Z M 102.277344 243.894531 " fill-opacity="1" fill-rule="nonzero"/></g></g><g clip-path="url(#7818cda722)"><g clip-path="url(#dca67c0620)"><path fill="#ffffff" d="M 146.449219 243.894531 L 159.730469 243.894531 L 159.730469 305.867188 L 146.449219 305.867188 Z M 146.449219 243.894531 " fill-opacity="1" fill-rule="nonzero"/></g></g><g clip-path="url(#2c4bc0570a)"><g clip-path="url(#a740cfd3e2)"><path fill="#ffffff" d="M 182.570312 243.292969 L 195.851562 243.292969 L 195.851562 306.738281 L 182.570312 306.738281 Z M 182.570312 243.292969 " fill-opacity="1" fill-rule="nonzero"/></g></g><g clip-path="url(#9d46bdc01e)"><g clip-path="url(#6c1693f397)"><path fill="#ffffff" d="M 248.132812 243.894531 L 261.414062 243.894531 L 261.414062 305.867188 L 248.132812 305.867188 Z M 248.132812 243.894531 " fill-opacity="1" fill-rule="nonzero"/></g></g><g clip-path="url(#ee6969554e)"><path fill="#ffffff" d="M 285.140625 243.894531 L 296.941406 243.894531 L 296.941406 305.867188 L 285.140625 305.867188 Z M 285.140625 243.894531 " fill-opacity="1" fill-rule="nonzero"/></g><g clip-path="url(#c426f0abfc)"><path fill="#ffffff" d="M 319.851562 243.894531 L 331.65625 243.894531 L 331.65625 305.867188 L 319.851562 305.867188 Z M 319.851562 243.894531 " fill-opacity="1" fill-rule="nonzero"/></g><g clip-path="url(#fab57613cc)"><g clip-path="url(#c5a923e141)"><path fill="#ffffff" d="M 353.910156 243.292969 L 367.1875 243.292969 L 367.1875 306.738281 L 353.910156 306.738281 Z M 353.910156 243.292969 " fill-opacity="1" fill-rule="nonzero"/></g></g></svg>